<svg width="1079" height="1017" viewBox="0 0 1079 1017" fill="none" xmlns="http://www.w3.org/2000/svg">
<mask id="path-1-outside-1_9425_434" maskUnits="userSpaceOnUse" x="-0.975586" y="0" width="1080" height="933" fill="black">
<rect fill="white" x="-0.975586" width="1080" height="933"/>
<path d="M1060.76 901.601C1064.65 908.267 1059.84 916.633 1052.12 916.634H26.0393C18.3241 916.634 13.5152 908.267 17.3987 901.601L95.1545 768.134H983.007L1060.76 901.601ZM929.992 677.134H148.169L229.731 537.134H848.431L929.992 677.134ZM795.416 446.134H282.745L362.559 309.134H715.603L795.416 446.134ZM530.44 20.966C534.297 14.3447 543.863 14.3446 547.721 20.966L662.587 218.134H415.573L530.44 20.966Z"/>
</mask>
<path d="M1060.76 901.601C1064.65 908.267 1059.84 916.633 1052.12 916.634H26.0393C18.3241 916.634 13.5152 908.267 17.3987 901.601L95.1545 768.134H983.007L1060.76 901.601ZM929.992 677.134H148.169L229.731 537.134H848.431L929.992 677.134ZM795.416 446.134H282.745L362.559 309.134H715.603L795.416 446.134ZM530.44 20.966C534.297 14.3447 543.863 14.3446 547.721 20.966L662.587 218.134H415.573L530.44 20.966Z" fill="#1A1A2E"/>
<path d="M1060.76 901.601L1074.59 893.547L1074.59 893.547L1060.76 901.601ZM1052.12 916.634V932.634H1052.12L1052.12 916.634ZM26.0393 916.634L26.0389 932.634H26.0393V916.634ZM17.3987 901.601L3.57371 893.547L3.57344 893.547L17.3987 901.601ZM95.1545 768.134V752.134H85.9587L81.3296 760.08L95.1545 768.134ZM983.007 768.134L996.832 760.08L992.203 752.134H983.007V768.134ZM929.992 677.134V693.134H957.831L943.817 669.08L929.992 677.134ZM148.169 677.134L134.344 669.08L120.331 693.134H148.169V677.134ZM229.731 537.134V521.134H220.535L215.906 529.08L229.731 537.134ZM848.431 537.134L862.256 529.08L857.627 521.134H848.431V537.134ZM795.416 446.134V462.134H823.255L809.241 438.08L795.416 446.134ZM282.745 446.134L268.92 438.08L254.907 462.134H282.745V446.134ZM362.559 309.134V293.134H353.363L348.734 301.08L362.559 309.134ZM715.603 309.134L729.428 301.08L724.799 293.134H715.603V309.134ZM530.44 20.966L516.615 12.9115L516.615 12.9118L530.44 20.966ZM547.721 20.966L561.546 12.9118V12.9117L547.721 20.966ZM662.587 218.134V234.134H690.426L676.412 210.08L662.587 218.134ZM415.573 218.134L401.748 210.08L387.735 234.134H415.573V218.134ZM1060.76 901.601L1046.94 909.654C1044.61 905.653 1047.49 900.634 1052.12 900.634L1052.12 916.634L1052.12 932.634C1072.18 932.633 1084.69 910.881 1074.59 893.547L1060.76 901.601ZM1052.12 916.634V900.634H26.0393V916.634V932.634H1052.12V916.634ZM26.0393 916.634L26.0396 900.634C30.668 900.634 33.5544 905.654 31.2239 909.655L17.3987 901.601L3.57344 893.547C-6.52409 910.881 5.98029 932.634 26.0389 932.634L26.0393 916.634ZM17.3987 901.601L31.2236 909.655L108.979 776.188L95.1545 768.134L81.3296 760.08L3.57371 893.547L17.3987 901.601ZM95.1545 768.134V784.134H983.007V768.134V752.134H95.1545V768.134ZM983.007 768.134L969.182 776.188L1046.94 909.655L1060.76 901.601L1074.59 893.547L996.832 760.08L983.007 768.134ZM929.992 677.134V661.134H148.169V677.134V693.134H929.992V677.134ZM148.169 677.134L161.994 685.188L243.556 545.188L229.731 537.134L215.906 529.08L134.344 669.08L148.169 677.134ZM229.731 537.134V553.134H848.431V537.134V521.134H229.731V537.134ZM848.431 537.134L834.606 545.188L916.167 685.188L929.992 677.134L943.817 669.08L862.256 529.08L848.431 537.134ZM795.416 446.134V430.134H282.745V446.134V462.134H795.416V446.134ZM282.745 446.134L296.57 454.188L376.384 317.188L362.559 309.134L348.734 301.08L268.92 438.08L282.745 446.134ZM362.559 309.134V325.134H715.603V309.134V293.134H362.559V309.134ZM715.603 309.134L701.778 317.188L781.591 454.188L795.416 446.134L809.241 438.08L729.428 301.08L715.603 309.134ZM530.44 20.966L544.264 29.0205C541.95 32.9928 536.211 32.9936 533.896 29.0202L547.721 20.966L561.546 12.9117C551.516 -4.30441 526.645 -4.30333 516.615 12.9115L530.44 20.966ZM547.721 20.966L533.896 29.0202L648.762 226.188L662.587 218.134L676.412 210.08L561.546 12.9118L547.721 20.966ZM662.587 218.134V202.134H415.573V218.134V234.134H662.587V218.134ZM415.573 218.134L429.398 226.188L544.265 29.0202L530.44 20.966L516.615 12.9118L401.748 210.08L415.573 218.134Z" fill="black" mask="url(#path-1-outside-1_9425_434)"/>
<path d="M434.542 739V698.273H449.059C452.227 698.273 454.852 698.849 456.934 700.003C459.015 701.156 460.573 702.734 461.607 704.736C462.641 706.724 463.158 708.965 463.158 711.457C463.158 713.963 462.635 716.217 461.587 718.219C460.553 720.207 458.989 721.785 456.894 722.952C454.813 724.105 452.194 724.682 449.039 724.682H439.056V719.472H448.482C450.484 719.472 452.108 719.127 453.354 718.438C454.601 717.735 455.515 716.78 456.099 715.574C456.682 714.367 456.974 712.995 456.974 711.457C456.974 709.92 456.682 708.554 456.099 707.361C455.515 706.168 454.594 705.233 453.334 704.557C452.088 703.881 450.444 703.543 448.403 703.543H440.687V739H434.542ZM469.885 739V708.455H475.632V713.307H475.95C476.507 711.663 477.488 710.37 478.893 709.429C480.312 708.474 481.916 707.997 483.706 707.997C484.077 707.997 484.515 708.01 485.018 708.037C485.535 708.063 485.94 708.097 486.231 708.136V713.824C485.993 713.758 485.569 713.685 484.959 713.605C484.349 713.512 483.739 713.466 483.129 713.466C481.724 713.466 480.471 713.764 479.371 714.361C478.284 714.944 477.422 715.759 476.785 716.807C476.149 717.841 475.831 719.021 475.831 720.347V739H469.885ZM503.15 739.616C500.286 739.616 497.787 738.96 495.653 737.648C493.518 736.335 491.861 734.499 490.681 732.139C489.501 729.779 488.911 727.022 488.911 723.866C488.911 720.698 489.501 717.927 490.681 715.554C491.861 713.181 493.518 711.338 495.653 710.026C497.787 708.713 500.286 708.057 503.15 708.057C506.013 708.057 508.512 708.713 510.647 710.026C512.781 711.338 514.439 713.181 515.619 715.554C516.798 717.927 517.388 720.698 517.388 723.866C517.388 727.022 516.798 729.779 515.619 732.139C514.439 734.499 512.781 736.335 510.647 737.648C508.512 738.96 506.013 739.616 503.15 739.616ZM503.17 734.625C505.026 734.625 506.564 734.134 507.783 733.153C509.003 732.172 509.905 730.866 510.488 729.236C511.084 727.605 511.383 725.809 511.383 723.847C511.383 721.898 511.084 720.108 510.488 718.477C509.905 716.833 509.003 715.514 507.783 714.52C506.564 713.526 505.026 713.028 503.17 713.028C501.3 713.028 499.749 713.526 498.516 714.52C497.297 715.514 496.388 716.833 495.792 718.477C495.208 720.108 494.917 721.898 494.917 723.847C494.917 725.809 495.208 727.605 495.792 729.236C496.388 730.866 497.297 732.172 498.516 733.153C499.749 734.134 501.3 734.625 503.17 734.625ZM524.025 708.455H529.972V740.989C529.972 743.03 529.6 744.754 528.858 746.159C528.129 747.564 527.042 748.632 525.597 749.361C524.165 750.09 522.395 750.455 520.287 750.455C520.075 750.455 519.876 750.455 519.69 750.455C519.491 750.455 519.286 750.448 519.074 750.435V745.324C519.259 745.324 519.425 745.324 519.571 745.324C519.704 745.324 519.856 745.324 520.028 745.324C521.434 745.324 522.448 744.946 523.071 744.19C523.707 743.448 524.025 742.367 524.025 740.949V708.455ZM526.969 703.741C525.935 703.741 525.046 703.397 524.304 702.707C523.575 702.005 523.21 701.17 523.21 700.202C523.21 699.221 523.575 698.385 524.304 697.696C525.046 696.993 525.935 696.642 526.969 696.642C528.003 696.642 528.884 696.993 529.614 697.696C530.356 698.385 530.727 699.221 530.727 700.202C530.727 701.17 530.356 702.005 529.614 702.707C528.884 703.397 528.003 703.741 526.969 703.741ZM551.136 739.616C548.126 739.616 545.534 738.973 543.36 737.688C541.199 736.388 539.529 734.565 538.349 732.219C537.182 729.859 536.599 727.095 536.599 723.926C536.599 720.797 537.182 718.04 538.349 715.653C539.529 713.267 541.172 711.404 543.28 710.065C545.402 708.726 547.881 708.057 550.718 708.057C552.441 708.057 554.112 708.342 555.729 708.912C557.347 709.482 558.798 710.377 560.084 711.597C561.37 712.816 562.385 714.401 563.127 716.349C563.869 718.285 564.241 720.638 564.241 723.409V725.517H539.959V721.062H558.414C558.414 719.498 558.096 718.113 557.459 716.906C556.823 715.687 555.928 714.725 554.775 714.023C553.635 713.32 552.296 712.969 550.758 712.969C549.087 712.969 547.629 713.38 546.383 714.202C545.15 715.01 544.195 716.071 543.519 717.384C542.856 718.683 542.525 720.095 542.525 721.619V725.099C542.525 727.141 542.883 728.878 543.599 730.31C544.328 731.741 545.342 732.835 546.641 733.591C547.94 734.333 549.458 734.705 551.195 734.705C552.322 734.705 553.35 734.545 554.278 734.227C555.206 733.896 556.008 733.405 556.684 732.756C557.36 732.106 557.877 731.304 558.235 730.349L563.863 731.364C563.412 733.021 562.603 734.473 561.437 735.719C560.283 736.952 558.832 737.913 557.082 738.602C555.345 739.278 553.363 739.616 551.136 739.616ZM583.704 739.616C580.748 739.616 578.203 738.947 576.068 737.608C573.947 736.256 572.316 734.393 571.176 732.02C570.036 729.647 569.466 726.929 569.466 723.866C569.466 720.764 570.049 718.027 571.216 715.653C572.382 713.267 574.026 711.404 576.148 710.065C578.269 708.726 580.768 708.057 583.645 708.057C585.965 708.057 588.033 708.488 589.849 709.349C591.666 710.198 593.131 711.391 594.244 712.929C595.371 714.467 596.041 716.263 596.253 718.318H590.466C590.148 716.886 589.418 715.653 588.278 714.619C587.151 713.585 585.64 713.068 583.744 713.068C582.087 713.068 580.635 713.506 579.389 714.381C578.156 715.242 577.195 716.475 576.506 718.08C575.816 719.67 575.472 721.553 575.472 723.727C575.472 725.955 575.81 727.877 576.486 729.494C577.162 731.112 578.116 732.365 579.349 733.253C580.596 734.141 582.061 734.585 583.744 734.585C584.871 734.585 585.892 734.38 586.807 733.969C587.735 733.545 588.51 732.941 589.133 732.159C589.77 731.377 590.214 730.436 590.466 729.335H596.253C596.041 731.311 595.398 733.074 594.324 734.625C593.25 736.176 591.811 737.396 590.008 738.284C588.219 739.172 586.117 739.616 583.704 739.616ZM616.87 708.455V713.227H600.185V708.455H616.87ZM604.66 701.136H610.606V730.031C610.606 731.185 610.778 732.053 611.123 732.636C611.467 733.206 611.912 733.598 612.455 733.81C613.012 734.009 613.615 734.108 614.265 734.108C614.742 734.108 615.16 734.075 615.518 734.009C615.876 733.942 616.154 733.889 616.353 733.849L617.427 738.761C617.082 738.894 616.592 739.027 615.955 739.159C615.319 739.305 614.523 739.384 613.569 739.398C612.004 739.424 610.546 739.146 609.194 738.562C607.842 737.979 606.748 737.078 605.913 735.858C605.077 734.638 604.66 733.107 604.66 731.264V701.136ZM645.844 715.912L640.455 716.866C640.23 716.177 639.872 715.521 639.381 714.898C638.904 714.275 638.254 713.764 637.432 713.366C636.61 712.969 635.583 712.77 634.35 712.77C632.666 712.77 631.261 713.148 630.134 713.903C629.007 714.646 628.444 715.607 628.444 716.787C628.444 717.808 628.822 718.63 629.577 719.253C630.333 719.876 631.553 720.386 633.236 720.784L638.089 721.898C640.899 722.547 642.994 723.548 644.373 724.901C645.752 726.253 646.441 728.009 646.441 730.17C646.441 732 645.911 733.631 644.85 735.062C643.803 736.481 642.338 737.595 640.455 738.403C638.586 739.212 636.418 739.616 633.952 739.616C630.532 739.616 627.741 738.887 625.58 737.429C623.419 735.957 622.093 733.869 621.603 731.165L627.35 730.29C627.708 731.788 628.444 732.921 629.557 733.69C630.671 734.446 632.123 734.824 633.913 734.824C635.861 734.824 637.419 734.42 638.586 733.611C639.753 732.789 640.336 731.788 640.336 730.608C640.336 729.653 639.978 728.851 639.262 728.202C638.559 727.552 637.479 727.062 636.021 726.73L630.85 725.597C628 724.947 625.892 723.913 624.526 722.494C623.174 721.076 622.498 719.279 622.498 717.105C622.498 715.302 623.002 713.724 624.009 712.372C625.017 711.02 626.409 709.966 628.185 709.21C629.962 708.441 631.997 708.057 634.29 708.057C637.592 708.057 640.19 708.773 642.086 710.205C643.982 711.623 645.235 713.526 645.844 715.912Z" fill="black"/>
<path d="M440.627 967.562V962.273H472.147V967.562H459.44V1003H453.315V967.562H440.627ZM487.072 1003.62C484.208 1003.62 481.709 1002.96 479.574 1001.65C477.44 1000.34 475.783 998.499 474.603 996.139C473.423 993.779 472.833 991.022 472.833 987.866C472.833 984.698 473.423 981.927 474.603 979.554C475.783 977.181 477.44 975.338 479.574 974.026C481.709 972.713 484.208 972.057 487.072 972.057C489.935 972.057 492.434 972.713 494.569 974.026C496.703 975.338 498.36 977.181 499.54 979.554C500.72 981.927 501.31 984.698 501.31 987.866C501.31 991.022 500.72 993.779 499.54 996.139C498.36 998.499 496.703 1000.34 494.569 1001.65C492.434 1002.96 489.935 1003.62 487.072 1003.62ZM487.092 998.625C488.948 998.625 490.485 998.134 491.705 997.153C492.925 996.172 493.826 994.866 494.41 993.236C495.006 991.605 495.305 989.809 495.305 987.847C495.305 985.898 495.006 984.108 494.41 982.477C493.826 980.833 492.925 979.514 491.705 978.52C490.485 977.526 488.948 977.028 487.092 977.028C485.222 977.028 483.671 977.526 482.438 978.52C481.218 979.514 480.31 980.833 479.714 982.477C479.13 984.108 478.839 985.898 478.839 987.847C478.839 989.809 479.13 991.605 479.714 993.236C480.31 994.866 481.218 996.172 482.438 997.153C483.671 998.134 485.222 998.625 487.092 998.625ZM525.945 983.213V988.364H507.888V983.213H525.945ZM545.304 1003.6C542.838 1003.6 540.637 1002.97 538.702 1001.71C536.779 1000.43 535.268 998.625 534.168 996.278C533.08 993.919 532.537 991.088 532.537 987.787C532.537 984.486 533.087 981.662 534.187 979.315C535.301 976.969 536.826 975.172 538.761 973.926C540.697 972.68 542.891 972.057 545.344 972.057C547.239 972.057 548.764 972.375 549.918 973.011C551.084 973.634 551.986 974.364 552.622 975.199C553.272 976.034 553.775 976.77 554.133 977.406H554.491V962.273H560.437V1003H554.631V998.247H554.133C553.775 998.897 553.258 999.639 552.582 1000.47C551.919 1001.31 551.005 1002.04 549.838 1002.66C548.671 1003.29 547.16 1003.6 545.304 1003.6ZM546.616 998.526C548.327 998.526 549.772 998.075 550.952 997.173C552.145 996.259 553.046 994.992 553.656 993.375C554.279 991.758 554.591 989.875 554.591 987.727C554.591 985.606 554.286 983.75 553.676 982.159C553.066 980.568 552.171 979.329 550.991 978.44C549.811 977.552 548.353 977.108 546.616 977.108C544.827 977.108 543.335 977.572 542.142 978.5C540.949 979.428 540.047 980.694 539.437 982.298C538.841 983.902 538.543 985.712 538.543 987.727C538.543 989.769 538.847 991.605 539.457 993.236C540.067 994.866 540.969 996.159 542.162 997.114C543.368 998.055 544.853 998.526 546.616 998.526ZM581.79 1003.62C578.927 1003.62 576.428 1002.96 574.293 1001.65C572.159 1000.34 570.502 998.499 569.322 996.139C568.142 993.779 567.552 991.022 567.552 987.866C567.552 984.698 568.142 981.927 569.322 979.554C570.502 977.181 572.159 975.338 574.293 974.026C576.428 972.713 578.927 972.057 581.79 972.057C584.654 972.057 587.153 972.713 589.288 974.026C591.422 975.338 593.079 977.181 594.259 979.554C595.439 981.927 596.029 984.698 596.029 987.866C596.029 991.022 595.439 993.779 594.259 996.139C593.079 998.499 591.422 1000.34 589.288 1001.65C587.153 1002.96 584.654 1003.62 581.79 1003.62ZM581.81 998.625C583.666 998.625 585.204 998.134 586.424 997.153C587.644 996.172 588.545 994.866 589.128 993.236C589.725 991.605 590.023 989.809 590.023 987.847C590.023 985.898 589.725 984.108 589.128 982.477C588.545 980.833 587.644 979.514 586.424 978.52C585.204 977.526 583.666 977.028 581.81 977.028C579.941 977.028 578.39 977.526 577.157 978.52C575.937 979.514 575.029 980.833 574.432 982.477C573.849 984.108 573.557 985.898 573.557 987.847C573.557 989.809 573.849 991.605 574.432 993.236C575.029 994.866 575.937 996.172 577.157 997.153C578.39 998.134 579.941 998.625 581.81 998.625ZM607.18 962.273V976.77H602.248V962.273H607.18ZM637.751 979.912L632.361 980.866C632.136 980.177 631.778 979.521 631.288 978.898C630.81 978.275 630.161 977.764 629.339 977.366C628.517 976.969 627.489 976.77 626.256 976.77C624.573 976.77 623.167 977.148 622.04 977.903C620.914 978.646 620.35 979.607 620.35 980.787C620.35 981.808 620.728 982.63 621.484 983.253C622.239 983.876 623.459 984.386 625.143 984.784L629.995 985.898C632.806 986.547 634.9 987.548 636.279 988.901C637.658 990.253 638.347 992.009 638.347 994.17C638.347 996 637.817 997.631 636.756 999.062C635.709 1000.48 634.244 1001.59 632.361 1002.4C630.492 1003.21 628.324 1003.62 625.859 1003.62C622.438 1003.62 619.647 1002.89 617.486 1001.43C615.325 999.957 614 997.869 613.509 995.165L619.256 994.29C619.614 995.788 620.35 996.921 621.464 997.69C622.577 998.446 624.029 998.824 625.819 998.824C627.768 998.824 629.325 998.42 630.492 997.611C631.659 996.789 632.242 995.788 632.242 994.608C632.242 993.653 631.884 992.851 631.168 992.202C630.466 991.552 629.385 991.062 627.927 990.73L622.756 989.597C619.906 988.947 617.798 987.913 616.432 986.494C615.08 985.076 614.404 983.279 614.404 981.105C614.404 979.302 614.908 977.724 615.915 976.372C616.923 975.02 618.315 973.966 620.092 973.21C621.868 972.441 623.903 972.057 626.197 972.057C629.498 972.057 632.096 972.773 633.992 974.205C635.888 975.623 637.141 977.526 637.751 979.912Z" fill="black"/>
<path d="M405.714 469.273H413.171L426.137 500.932H426.614L439.58 469.273H447.038V510H441.191V480.528H440.813L428.802 509.94H423.949L411.938 480.509H411.56V510H405.714V469.273ZM468.659 510.616C465.65 510.616 463.058 509.973 460.883 508.688C458.722 507.388 457.052 505.565 455.872 503.219C454.705 500.859 454.122 498.095 454.122 494.926C454.122 491.797 454.705 489.04 455.872 486.653C457.052 484.267 458.696 482.404 460.804 481.065C462.925 479.726 465.404 479.057 468.241 479.057C469.965 479.057 471.635 479.342 473.253 479.912C474.87 480.482 476.322 481.377 477.608 482.597C478.894 483.816 479.908 485.401 480.65 487.349C481.393 489.285 481.764 491.638 481.764 494.409V496.517H457.483V492.062H475.937C475.937 490.498 475.619 489.113 474.983 487.906C474.347 486.687 473.452 485.725 472.298 485.023C471.158 484.32 469.819 483.969 468.281 483.969C466.611 483.969 465.152 484.38 463.906 485.202C462.673 486.01 461.719 487.071 461.043 488.384C460.38 489.683 460.048 491.095 460.048 492.619V496.099C460.048 498.141 460.406 499.878 461.122 501.31C461.851 502.741 462.865 503.835 464.165 504.591C465.464 505.333 466.982 505.705 468.719 505.705C469.846 505.705 470.873 505.545 471.801 505.227C472.729 504.896 473.531 504.405 474.207 503.756C474.883 503.106 475.4 502.304 475.758 501.349L481.386 502.364C480.936 504.021 480.127 505.473 478.96 506.719C477.807 507.952 476.355 508.913 474.605 509.602C472.868 510.278 470.886 510.616 468.659 510.616ZM501.168 522.091C498.742 522.091 496.654 521.773 494.904 521.136C493.167 520.5 491.749 519.658 490.648 518.611C489.548 517.563 488.726 516.417 488.182 515.17L493.293 513.062C493.651 513.646 494.128 514.262 494.725 514.912C495.335 515.575 496.157 516.138 497.191 516.602C498.238 517.066 499.584 517.298 501.228 517.298C503.482 517.298 505.344 516.748 506.816 515.648C508.288 514.561 509.023 512.824 509.023 510.438V504.432H508.646C508.288 505.081 507.771 505.804 507.094 506.599C506.431 507.395 505.517 508.084 504.35 508.668C503.183 509.251 501.665 509.543 499.796 509.543C497.383 509.543 495.209 508.979 493.273 507.852C491.351 506.712 489.826 505.035 488.699 502.821C487.586 500.594 487.029 497.856 487.029 494.608C487.029 491.36 487.579 488.576 488.68 486.256C489.793 483.936 491.318 482.159 493.253 480.926C495.189 479.68 497.383 479.057 499.836 479.057C501.732 479.057 503.263 479.375 504.43 480.011C505.596 480.634 506.504 481.364 507.154 482.199C507.817 483.034 508.327 483.77 508.685 484.406H509.123V479.455H514.949V510.676C514.949 513.301 514.34 515.455 513.12 517.139C511.9 518.823 510.25 520.069 508.168 520.878C506.1 521.687 503.767 522.091 501.168 522.091ZM501.109 504.611C502.819 504.611 504.264 504.213 505.444 503.418C506.637 502.609 507.539 501.455 508.148 499.957C508.771 498.446 509.083 496.636 509.083 494.528C509.083 492.473 508.778 490.664 508.168 489.099C507.558 487.535 506.664 486.315 505.484 485.44C504.304 484.552 502.845 484.108 501.109 484.108C499.319 484.108 497.827 484.572 496.634 485.5C495.441 486.415 494.539 487.661 493.93 489.239C493.333 490.816 493.035 492.58 493.035 494.528C493.035 496.53 493.34 498.287 493.949 499.798C494.559 501.31 495.461 502.49 496.654 503.338C497.86 504.187 499.345 504.611 501.109 504.611ZM531.813 510.676C529.878 510.676 528.128 510.318 526.563 509.602C524.999 508.873 523.759 507.819 522.844 506.44C521.943 505.062 521.492 503.371 521.492 501.369C521.492 499.646 521.824 498.227 522.486 497.114C523.149 496 524.044 495.118 525.171 494.469C526.298 493.819 527.557 493.329 528.949 492.997C530.342 492.666 531.76 492.414 533.205 492.241C535.035 492.029 536.52 491.857 537.66 491.724C538.8 491.579 539.628 491.347 540.146 491.028C540.663 490.71 540.921 490.193 540.921 489.477V489.338C540.921 487.601 540.431 486.256 539.449 485.301C538.482 484.347 537.037 483.869 535.114 483.869C533.112 483.869 531.535 484.313 530.381 485.202C529.241 486.077 528.452 487.051 528.015 488.125L522.427 486.852C523.09 484.996 524.057 483.498 525.33 482.358C526.616 481.205 528.094 480.369 529.765 479.852C531.435 479.322 533.192 479.057 535.035 479.057C536.254 479.057 537.547 479.203 538.913 479.494C540.291 479.773 541.577 480.29 542.771 481.045C543.977 481.801 544.965 482.882 545.734 484.287C546.503 485.679 546.887 487.489 546.887 489.716V510H541.08V505.824H540.842C540.457 506.593 539.88 507.348 539.111 508.091C538.342 508.833 537.355 509.45 536.148 509.94C534.942 510.431 533.497 510.676 531.813 510.676ZM533.106 505.903C534.75 505.903 536.155 505.579 537.322 504.929C538.502 504.279 539.396 503.431 540.006 502.384C540.629 501.323 540.941 500.189 540.941 498.983V495.045C540.729 495.258 540.318 495.456 539.708 495.642C539.111 495.814 538.429 495.967 537.66 496.099C536.891 496.219 536.142 496.331 535.413 496.438C534.683 496.53 534.074 496.61 533.583 496.676C532.43 496.822 531.376 497.067 530.421 497.412C529.48 497.757 528.724 498.254 528.154 498.903C527.597 499.54 527.319 500.388 527.319 501.449C527.319 502.92 527.862 504.034 528.949 504.79C530.037 505.532 531.422 505.903 533.106 505.903ZM583.289 510H570.104V469.273H583.707C587.697 469.273 591.124 470.088 593.988 471.719C596.851 473.336 599.046 475.663 600.57 478.699C602.108 481.722 602.877 485.348 602.877 489.577C602.877 493.819 602.101 497.465 600.55 500.514C599.012 503.563 596.785 505.91 593.869 507.554C590.952 509.185 587.425 510 583.289 510ZM576.249 504.631H582.951C586.053 504.631 588.632 504.047 590.687 502.881C592.742 501.701 594.28 499.997 595.3 497.77C596.321 495.529 596.832 492.798 596.832 489.577C596.832 486.382 596.321 483.67 595.3 481.443C594.293 479.216 592.788 477.526 590.786 476.372C588.784 475.219 586.298 474.642 583.329 474.642H576.249V504.631ZM622.908 510.616C620.044 510.616 617.545 509.96 615.41 508.648C613.276 507.335 611.619 505.499 610.439 503.139C609.259 500.779 608.669 498.022 608.669 494.866C608.669 491.698 609.259 488.927 610.439 486.554C611.619 484.181 613.276 482.338 615.41 481.026C617.545 479.713 620.044 479.057 622.908 479.057C625.771 479.057 628.27 479.713 630.405 481.026C632.539 482.338 634.196 484.181 635.376 486.554C636.556 488.927 637.146 491.698 637.146 494.866C637.146 498.022 636.556 500.779 635.376 503.139C634.196 505.499 632.539 507.335 630.405 508.648C628.27 509.96 625.771 510.616 622.908 510.616ZM622.927 505.625C624.784 505.625 626.321 505.134 627.541 504.153C628.761 503.172 629.662 501.866 630.246 500.236C630.842 498.605 631.141 496.809 631.141 494.847C631.141 492.898 630.842 491.108 630.246 489.477C629.662 487.833 628.761 486.514 627.541 485.52C626.321 484.526 624.784 484.028 622.927 484.028C621.058 484.028 619.507 484.526 618.274 485.52C617.054 486.514 616.146 487.833 615.55 489.477C614.966 491.108 614.675 492.898 614.675 494.847C614.675 496.809 614.966 498.605 615.55 500.236C616.146 501.866 617.054 503.172 618.274 504.153C619.507 505.134 621.058 505.625 622.927 505.625ZM648.894 469.273V473.091C648.894 474.218 648.682 475.404 648.258 476.651C647.847 477.884 647.263 479.07 646.508 480.21C645.752 481.35 644.864 482.331 643.843 483.153L640.9 481.045C641.682 479.905 642.358 478.692 642.928 477.406C643.512 476.12 643.803 474.702 643.803 473.151V469.273H648.894ZM673.672 486.912L668.283 487.866C668.058 487.177 667.7 486.521 667.209 485.898C666.732 485.275 666.083 484.764 665.261 484.366C664.439 483.969 663.411 483.77 662.178 483.77C660.494 483.77 659.089 484.148 657.962 484.903C656.835 485.646 656.272 486.607 656.272 487.787C656.272 488.808 656.65 489.63 657.405 490.253C658.161 490.876 659.381 491.386 661.065 491.784L665.917 492.898C668.727 493.547 670.822 494.548 672.201 495.901C673.58 497.253 674.269 499.009 674.269 501.17C674.269 503 673.739 504.631 672.678 506.062C671.631 507.481 670.166 508.595 668.283 509.403C666.414 510.212 664.246 510.616 661.78 510.616C658.36 510.616 655.569 509.887 653.408 508.429C651.247 506.957 649.922 504.869 649.431 502.165L655.178 501.29C655.536 502.788 656.272 503.921 657.386 504.69C658.499 505.446 659.951 505.824 661.741 505.824C663.69 505.824 665.247 505.42 666.414 504.611C667.581 503.789 668.164 502.788 668.164 501.608C668.164 500.653 667.806 499.851 667.09 499.202C666.387 498.552 665.307 498.062 663.849 497.73L658.678 496.597C655.828 495.947 653.72 494.913 652.354 493.494C651.002 492.076 650.326 490.279 650.326 488.105C650.326 486.302 650.83 484.724 651.837 483.372C652.845 482.02 654.237 480.966 656.013 480.21C657.79 479.441 659.825 479.057 662.119 479.057C665.42 479.057 668.018 479.773 669.914 481.205C671.81 482.623 673.063 484.526 673.672 486.912Z" fill="black"/>
<path d="M448.795 243.562V238.273H480.315V243.562H467.608V279H461.483V243.562H448.795ZM492.749 260.864V279H486.803V238.273H492.669V253.426H493.047C493.763 251.782 494.857 250.476 496.328 249.509C497.8 248.541 499.722 248.057 502.095 248.057C504.19 248.057 506.02 248.488 507.584 249.349C509.162 250.211 510.381 251.497 511.243 253.207C512.118 254.904 512.556 257.026 512.556 259.571V279H506.61V260.287C506.61 258.046 506.033 256.31 504.88 255.077C503.726 253.83 502.122 253.207 500.067 253.207C498.662 253.207 497.402 253.506 496.289 254.102C495.188 254.699 494.32 255.574 493.684 256.727C493.06 257.867 492.749 259.246 492.749 260.864ZM533.655 279.616C530.646 279.616 528.054 278.973 525.88 277.688C523.719 276.388 522.048 274.565 520.868 272.219C519.701 269.859 519.118 267.095 519.118 263.926C519.118 260.797 519.701 258.04 520.868 255.653C522.048 253.267 523.692 251.404 525.8 250.065C527.921 248.726 530.4 248.057 533.237 248.057C534.961 248.057 536.631 248.342 538.249 248.912C539.866 249.482 541.318 250.377 542.604 251.597C543.89 252.816 544.904 254.401 545.647 256.349C546.389 258.285 546.76 260.638 546.76 263.409V265.517H522.479V261.062H540.934C540.934 259.498 540.615 258.113 539.979 256.906C539.343 255.687 538.448 254.725 537.294 254.023C536.154 253.32 534.815 252.969 533.277 252.969C531.607 252.969 530.148 253.38 528.902 254.202C527.669 255.01 526.715 256.071 526.039 257.384C525.376 258.683 525.044 260.095 525.044 261.619V265.099C525.044 267.141 525.402 268.878 526.118 270.31C526.847 271.741 527.862 272.835 529.161 273.591C530.46 274.333 531.978 274.705 533.715 274.705C534.842 274.705 535.869 274.545 536.797 274.227C537.725 273.896 538.527 273.405 539.203 272.756C539.88 272.106 540.397 271.304 540.755 270.349L546.382 271.364C545.932 273.021 545.123 274.473 543.956 275.719C542.803 276.952 541.351 277.913 539.601 278.602C537.864 279.278 535.882 279.616 533.655 279.616ZM553.358 279V248.455H559.065V253.426H559.443C560.079 251.742 561.12 250.43 562.565 249.489C564.01 248.534 565.74 248.057 567.755 248.057C569.797 248.057 571.507 248.534 572.886 249.489C574.278 250.443 575.305 251.756 575.968 253.426H576.286C577.016 251.795 578.176 250.496 579.767 249.528C581.358 248.547 583.253 248.057 585.454 248.057C588.225 248.057 590.485 248.925 592.235 250.662C593.999 252.399 594.88 255.017 594.88 258.517V279H588.934V259.074C588.934 257.006 588.371 255.508 587.244 254.58C586.117 253.652 584.771 253.188 583.207 253.188C581.271 253.188 579.767 253.784 578.693 254.977C577.619 256.157 577.082 257.675 577.082 259.531V279H571.156V258.696C571.156 257.039 570.639 255.706 569.605 254.699C568.571 253.691 567.225 253.188 565.568 253.188C564.441 253.188 563.4 253.486 562.446 254.082C561.504 254.666 560.742 255.481 560.159 256.528C559.589 257.576 559.304 258.789 559.304 260.168V279H553.358ZM616.014 279.616C613.005 279.616 610.413 278.973 608.239 277.688C606.078 276.388 604.407 274.565 603.228 272.219C602.061 269.859 601.478 267.095 601.478 263.926C601.478 260.797 602.061 258.04 603.228 255.653C604.407 253.267 606.051 251.404 608.159 250.065C610.281 248.726 612.76 248.057 615.597 248.057C617.32 248.057 618.991 248.342 620.608 248.912C622.226 249.482 623.677 250.377 624.963 251.597C626.249 252.816 627.264 254.401 628.006 256.349C628.748 258.285 629.12 260.638 629.12 263.409V265.517H604.838V261.062H623.293C623.293 259.498 622.975 258.113 622.338 256.906C621.702 255.687 620.807 254.725 619.654 254.023C618.514 253.32 617.175 252.969 615.637 252.969C613.966 252.969 612.508 253.38 611.262 254.202C610.029 255.01 609.074 256.071 608.398 257.384C607.735 258.683 607.404 260.095 607.404 261.619V265.099C607.404 267.141 607.762 268.878 608.478 270.31C609.207 271.741 610.221 272.835 611.52 273.591C612.819 274.333 614.337 274.705 616.074 274.705C617.201 274.705 618.228 274.545 619.157 274.227C620.085 273.896 620.887 273.405 621.563 272.756C622.239 272.106 622.756 271.304 623.114 270.349L628.742 271.364C628.291 273.021 627.482 274.473 626.316 275.719C625.162 276.952 623.71 277.913 621.96 278.602C620.224 279.278 618.242 279.616 616.014 279.616Z" fill="black"/>
<circle cx="539.024" cy="149" r="48" fill="#FBFFFE" stroke="#CACACA" stroke-width="8"/>
<mask id="path-8-outside-2_9425_434" maskUnits="userSpaceOnUse" x="521.024" y="126" width="36" height="46" fill="black">
<rect fill="white" x="521.024" y="126" width="36" height="46"/>
<path d="M522.125 133.031V127.364H555.897V133.031H542.282V171H535.719V133.031H522.125Z"/>
</mask>
<path d="M522.125 133.031V127.364H555.897V133.031H542.282V171H535.719V133.031H522.125Z" fill="#1A1A2E"/>
<path d="M522.125 133.031H521.125V134.031H522.125V133.031ZM522.125 127.364V126.364H521.125V127.364H522.125ZM555.897 127.364H556.897V126.364H555.897V127.364ZM555.897 133.031V134.031H556.897V133.031H555.897ZM542.282 133.031V132.031H541.282V133.031H542.282ZM542.282 171V172H543.282V171H542.282ZM535.719 171H534.719V172H535.719V171ZM535.719 133.031H536.719V132.031H535.719V133.031ZM522.125 133.031H523.125V127.364H522.125H521.125V133.031H522.125ZM522.125 127.364V128.364H555.897V127.364V126.364H522.125V127.364ZM555.897 127.364H554.897V133.031H555.897H556.897V127.364H555.897ZM555.897 133.031V132.031H542.282V133.031V134.031H555.897V133.031ZM542.282 133.031H541.282V171H542.282H543.282V133.031H542.282ZM542.282 171V170H535.719V171V172H542.282V171ZM535.719 171H536.719V133.031H535.719H534.719V171H535.719ZM535.719 133.031V132.031H522.125V133.031V134.031H535.719V133.031Z" fill="#CACACA" mask="url(#path-8-outside-2_9425_434)"/>
<circle cx="417.024" cy="382" r="48" fill="#FBFFFE" stroke="#CACACA" stroke-width="8"/>
<mask id="path-11-outside-3_9425_434" maskUnits="userSpaceOnUse" x="393.024" y="359" width="48" height="46" fill="black">
<rect fill="white" x="393.024" y="359" width="48" height="46"/>
<path d="M394.895 360.364H402.885L416.777 394.284H417.288L431.18 360.364H439.17V404H432.906V372.423H432.501L419.632 403.936H414.433L401.564 372.402H401.159V404H394.895V360.364Z"/>
</mask>
<path d="M394.895 360.364H402.885L416.777 394.284H417.288L431.18 360.364H439.17V404H432.906V372.423H432.501L419.632 403.936H414.433L401.564 372.402H401.159V404H394.895V360.364Z" fill="#1A1A2E"/>
<path d="M394.895 360.364V359.364H393.895V360.364H394.895ZM402.885 360.364L403.81 359.985L403.556 359.364H402.885V360.364ZM416.777 394.284L415.851 394.663L416.106 395.284H416.777V394.284ZM417.288 394.284V395.284H417.959L418.213 394.663L417.288 394.284ZM431.18 360.364V359.364H430.509L430.255 359.985L431.18 360.364ZM439.17 360.364H440.17V359.364H439.17V360.364ZM439.17 404V405H440.17V404H439.17ZM432.906 404H431.906V405H432.906V404ZM432.906 372.423H433.906V371.423H432.906V372.423ZM432.501 372.423V371.423H431.829L431.575 372.045L432.501 372.423ZM419.632 403.936V404.936H420.304L420.558 404.314L419.632 403.936ZM414.433 403.936L413.507 404.314L413.761 404.936H414.433V403.936ZM401.564 372.402L402.49 372.024L402.236 371.402H401.564V372.402ZM401.159 372.402V371.402H400.159V372.402H401.159ZM401.159 404V405H402.159V404H401.159ZM394.895 404H393.895V405H394.895V404ZM394.895 360.364V361.364H402.885V360.364V359.364H394.895V360.364ZM402.885 360.364L401.959 360.743L415.851 394.663L416.777 394.284L417.702 393.905L403.81 359.985L402.885 360.364ZM416.777 394.284V395.284H417.288V394.284V393.284H416.777V394.284ZM417.288 394.284L418.213 394.663L432.106 360.743L431.18 360.364L430.255 359.985L416.363 393.905L417.288 394.284ZM431.18 360.364V361.364H439.17V360.364V359.364H431.18V360.364ZM439.17 360.364H438.17V404H439.17H440.17V360.364H439.17ZM439.17 404V403H432.906V404V405H439.17V404ZM432.906 404H433.906V372.423H432.906H431.906V404H432.906ZM432.906 372.423V371.423H432.501V372.423V373.423H432.906V372.423ZM432.501 372.423L431.575 372.045L418.706 403.558L419.632 403.936L420.558 404.314L433.427 372.801L432.501 372.423ZM419.632 403.936V402.936H414.433V403.936V404.936H419.632V403.936ZM414.433 403.936L415.359 403.558L402.49 372.024L401.564 372.402L400.638 372.78L413.507 404.314L414.433 403.936ZM401.564 372.402V371.402H401.159V372.402V373.402H401.564V372.402ZM401.159 372.402H400.159V404H401.159H402.159V372.402H401.159ZM401.159 404V403H394.895V404V405H401.159V404ZM394.895 404H395.895V360.364H394.895H393.895V404H394.895Z" fill="#CACACA" mask="url(#path-11-outside-3_9425_434)"/>
<circle cx="301.024" cy="607" r="48" fill="#FBFFFE" stroke="#CACACA" stroke-width="8"/>
<mask id="path-14-outside-4_9425_434" maskUnits="userSpaceOnUse" x="286.024" y="584" width="33" height="46" fill="black">
<rect fill="white" x="286.024" y="584" width="33" height="46"/>
<path d="M287.129 629V585.364H302.683C306.078 585.364 308.89 585.982 311.12 587.217C313.351 588.453 315.02 590.143 316.128 592.288C317.236 594.419 317.79 596.82 317.79 599.49C317.79 602.175 317.228 604.589 316.106 606.734C314.998 608.865 313.322 610.555 311.078 611.805C308.848 613.041 306.042 613.659 302.662 613.659H291.966V608.077H302.065C304.21 608.077 305.95 607.707 307.285 606.969C308.62 606.216 309.601 605.193 310.226 603.901C310.851 602.608 311.163 601.138 311.163 599.49C311.163 597.842 310.851 596.379 310.226 595.101C309.601 593.822 308.613 592.821 307.264 592.097C305.929 591.372 304.167 591.01 301.98 591.01H293.713V629H287.129Z"/>
</mask>
<path d="M287.129 629V585.364H302.683C306.078 585.364 308.89 585.982 311.12 587.217C313.351 588.453 315.02 590.143 316.128 592.288C317.236 594.419 317.79 596.82 317.79 599.49C317.79 602.175 317.228 604.589 316.106 606.734C314.998 608.865 313.322 610.555 311.078 611.805C308.848 613.041 306.042 613.659 302.662 613.659H291.966V608.077H302.065C304.21 608.077 305.95 607.707 307.285 606.969C308.62 606.216 309.601 605.193 310.226 603.901C310.851 602.608 311.163 601.138 311.163 599.49C311.163 597.842 310.851 596.379 310.226 595.101C309.601 593.822 308.613 592.821 307.264 592.097C305.929 591.372 304.167 591.01 301.98 591.01H293.713V629H287.129Z" fill="#1A1A2E"/>
<path d="M287.129 629H286.129V630H287.129V629ZM287.129 585.364V584.364H286.129V585.364H287.129ZM316.128 592.288L315.239 592.747L315.24 592.75L316.128 592.288ZM316.106 606.734L315.22 606.271L315.219 606.273L316.106 606.734ZM311.078 611.805L311.563 612.68L311.564 612.679L311.078 611.805ZM291.966 613.659H290.966V614.659H291.966V613.659ZM291.966 608.077V607.077H290.966V608.077H291.966ZM307.285 606.969L307.769 607.844L307.776 607.84L307.285 606.969ZM307.264 592.097L306.787 592.976L306.791 592.978L307.264 592.097ZM293.713 591.01V590.01H292.713V591.01H293.713ZM293.713 629V630H294.713V629H293.713ZM287.129 629H288.129V585.364H287.129H286.129V629H287.129ZM287.129 585.364V586.364H302.683V585.364V584.364H287.129V585.364ZM302.683 585.364V586.364C305.962 586.364 308.595 586.961 310.636 588.092L311.12 587.217L311.605 586.343C309.186 585.002 306.193 584.364 302.683 584.364V585.364ZM311.12 587.217L310.636 588.092C312.703 589.238 314.227 590.788 315.239 592.747L316.128 592.288L317.016 591.829C315.812 589.499 313.998 587.668 311.605 586.343L311.12 587.217ZM316.128 592.288L315.24 592.75C316.266 594.723 316.79 596.962 316.79 599.49H317.79H318.79C318.79 596.677 318.205 594.116 317.015 591.827L316.128 592.288ZM317.79 599.49H316.79C316.79 602.031 316.26 604.284 315.22 606.271L316.106 606.734L316.992 607.198C318.197 604.895 318.79 602.318 318.79 599.49H317.79ZM316.106 606.734L315.219 606.273C314.208 608.218 312.677 609.77 310.591 610.932L311.078 611.805L311.564 612.679C313.967 611.341 315.789 609.512 316.993 607.196L316.106 606.734ZM311.078 611.805L310.593 610.931C308.552 612.062 305.926 612.659 302.662 612.659V613.659V614.659C306.159 614.659 309.144 614.021 311.563 612.68L311.078 611.805ZM302.662 613.659V612.659H291.966V613.659V614.659H302.662V613.659ZM291.966 613.659H292.966V608.077H291.966H290.966V613.659H291.966ZM291.966 608.077V609.077H302.065V608.077V607.077H291.966V608.077ZM302.065 608.077V609.077C304.314 609.077 306.238 608.691 307.769 607.844L307.285 606.969L306.801 606.094C305.662 606.724 304.106 607.077 302.065 607.077V608.077ZM307.285 606.969L307.776 607.84C309.277 606.994 310.406 605.825 311.126 604.336L310.226 603.901L309.325 603.465C308.795 604.562 307.964 605.438 306.794 606.098L307.285 606.969ZM310.226 603.901L311.126 604.336C311.826 602.889 312.163 601.266 312.163 599.49H311.163H310.163C310.163 601.009 309.876 602.327 309.325 603.465L310.226 603.901ZM311.163 599.49H312.163C312.163 597.714 311.826 596.097 311.124 594.662L310.226 595.101L309.327 595.54C309.876 596.662 310.163 597.971 310.163 599.49H311.163ZM310.226 595.101L311.124 594.662C310.4 593.18 309.256 592.031 307.737 591.216L307.264 592.097L306.791 592.978C307.971 593.611 308.801 594.464 309.327 595.54L310.226 595.101ZM307.264 592.097L307.741 591.218C306.209 590.386 304.265 590.01 301.98 590.01V591.01V592.01C304.069 592.01 305.649 592.358 306.787 592.976L307.264 592.097ZM301.98 591.01V590.01H293.713V591.01V592.01H301.98V591.01ZM293.713 591.01H292.713V629H293.713H294.713V591.01H293.713ZM293.713 629V628H287.129V629V630H293.713V629Z" fill="#CACACA" mask="url(#path-14-outside-4_9425_434)"/>
<circle cx="667.024" cy="607" r="48" fill="#FBFFFE" stroke="#CACACA" stroke-width="8"/>
<mask id="path-17-outside-5_9425_434" maskUnits="userSpaceOnUse" x="652.024" y="584" width="33" height="46" fill="black">
<rect fill="white" x="652.024" y="584" width="33" height="46"/>
<path d="M653.129 629V585.364H668.683C672.078 585.364 674.89 585.982 677.12 587.217C679.351 588.453 681.02 590.143 682.128 592.288C683.236 594.419 683.79 596.82 683.79 599.49C683.79 602.175 683.228 604.589 682.106 606.734C680.998 608.865 679.322 610.555 677.078 611.805C674.848 613.041 672.042 613.659 668.662 613.659H657.966V608.077H668.065C670.21 608.077 671.95 607.707 673.285 606.969C674.62 606.216 675.601 605.193 676.226 603.901C676.851 602.608 677.163 601.138 677.163 599.49C677.163 597.842 676.851 596.379 676.226 595.101C675.601 593.822 674.613 592.821 673.264 592.097C671.929 591.372 670.167 591.01 667.98 591.01H659.713V629H653.129Z"/>
</mask>
<path d="M653.129 629V585.364H668.683C672.078 585.364 674.89 585.982 677.12 587.217C679.351 588.453 681.02 590.143 682.128 592.288C683.236 594.419 683.79 596.82 683.79 599.49C683.79 602.175 683.228 604.589 682.106 606.734C680.998 608.865 679.322 610.555 677.078 611.805C674.848 613.041 672.042 613.659 668.662 613.659H657.966V608.077H668.065C670.21 608.077 671.95 607.707 673.285 606.969C674.62 606.216 675.601 605.193 676.226 603.901C676.851 602.608 677.163 601.138 677.163 599.49C677.163 597.842 676.851 596.379 676.226 595.101C675.601 593.822 674.613 592.821 673.264 592.097C671.929 591.372 670.167 591.01 667.98 591.01H659.713V629H653.129Z" fill="#1A1A2E"/>
<path d="M653.129 629H652.129V630H653.129V629ZM653.129 585.364V584.364H652.129V585.364H653.129ZM682.128 592.288L681.239 592.747L681.24 592.75L682.128 592.288ZM682.106 606.734L681.22 606.271L681.219 606.273L682.106 606.734ZM677.078 611.805L677.563 612.68L677.564 612.679L677.078 611.805ZM657.966 613.659H656.966V614.659H657.966V613.659ZM657.966 608.077V607.077H656.966V608.077H657.966ZM673.285 606.969L673.769 607.844L673.776 607.84L673.285 606.969ZM673.264 592.097L672.787 592.976L672.791 592.978L673.264 592.097ZM659.713 591.01V590.01H658.713V591.01H659.713ZM659.713 629V630H660.713V629H659.713ZM653.129 629H654.129V585.364H653.129H652.129V629H653.129ZM653.129 585.364V586.364H668.683V585.364V584.364H653.129V585.364ZM668.683 585.364V586.364C671.962 586.364 674.595 586.961 676.636 588.092L677.12 587.217L677.605 586.343C675.186 585.002 672.193 584.364 668.683 584.364V585.364ZM677.12 587.217L676.636 588.092C678.703 589.238 680.227 590.788 681.239 592.747L682.128 592.288L683.016 591.829C681.812 589.499 679.998 587.668 677.605 586.343L677.12 587.217ZM682.128 592.288L681.24 592.75C682.266 594.723 682.79 596.962 682.79 599.49H683.79H684.79C684.79 596.677 684.205 594.116 683.015 591.827L682.128 592.288ZM683.79 599.49H682.79C682.79 602.031 682.26 604.284 681.22 606.271L682.106 606.734L682.992 607.198C684.197 604.895 684.79 602.318 684.79 599.49H683.79ZM682.106 606.734L681.219 606.273C680.208 608.218 678.677 609.77 676.591 610.932L677.078 611.805L677.564 612.679C679.967 611.341 681.789 609.512 682.993 607.196L682.106 606.734ZM677.078 611.805L676.593 610.931C674.552 612.062 671.926 612.659 668.662 612.659V613.659V614.659C672.159 614.659 675.144 614.021 677.563 612.68L677.078 611.805ZM668.662 613.659V612.659H657.966V613.659V614.659H668.662V613.659ZM657.966 613.659H658.966V608.077H657.966H656.966V613.659H657.966ZM657.966 608.077V609.077H668.065V608.077V607.077H657.966V608.077ZM668.065 608.077V609.077C670.314 609.077 672.238 608.691 673.769 607.844L673.285 606.969L672.801 606.094C671.662 606.724 670.106 607.077 668.065 607.077V608.077ZM673.285 606.969L673.776 607.84C675.277 606.994 676.406 605.825 677.126 604.336L676.226 603.901L675.325 603.465C674.795 604.562 673.964 605.438 672.794 606.098L673.285 606.969ZM676.226 603.901L677.126 604.336C677.826 602.889 678.163 601.266 678.163 599.49H677.163H676.163C676.163 601.009 675.876 602.327 675.325 603.465L676.226 603.901ZM677.163 599.49H678.163C678.163 597.714 677.826 596.097 677.124 594.662L676.226 595.101L675.327 595.54C675.876 596.662 676.163 597.971 676.163 599.49H677.163ZM676.226 595.101L677.124 594.662C676.4 593.18 675.256 592.031 673.737 591.216L673.264 592.097L672.791 592.978C673.971 593.611 674.801 594.464 675.327 595.54L676.226 595.101ZM673.264 592.097L673.741 591.218C672.209 590.386 670.265 590.01 667.98 590.01V591.01V592.01C670.069 592.01 671.649 592.358 672.787 592.976L673.264 592.097ZM667.98 591.01V590.01H659.713V591.01V592.01H667.98V591.01ZM659.713 591.01H658.713V629H659.713H660.713V591.01H659.713ZM659.713 629V628H653.129V629V630H659.713V629Z" fill="#CACACA" mask="url(#path-17-outside-5_9425_434)"/>
<circle cx="179.024" cy="838" r="48" fill="#FBFFFE" stroke="#CACACA" stroke-width="8"/>
<mask id="path-20-outside-6_9425_434" maskUnits="userSpaceOnUse" x="169.024" y="818" width="21" height="44" fill="black">
<rect fill="white" x="169.024" y="818" width="21" height="44"/>
<path d="M187.922 827.273V832.386H170.046V827.273H187.922ZM174.84 819.432H181.21V850.391C181.21 851.626 181.395 852.557 181.764 853.182C182.134 853.793 182.609 854.212 183.192 854.439C183.788 854.652 184.435 854.759 185.131 854.759C185.642 854.759 186.09 854.723 186.473 854.652C186.857 854.581 187.155 854.524 187.368 854.482L188.519 859.744C188.149 859.886 187.624 860.028 186.942 860.17C186.26 860.327 185.408 860.412 184.385 860.426C182.709 860.455 181.146 860.156 179.698 859.531C178.249 858.906 177.077 857.94 176.182 856.634C175.287 855.327 174.84 853.686 174.84 851.712V819.432Z"/>
</mask>
<path d="M187.922 827.273V832.386H170.046V827.273H187.922ZM174.84 819.432H181.21V850.391C181.21 851.626 181.395 852.557 181.764 853.182C182.134 853.793 182.609 854.212 183.192 854.439C183.788 854.652 184.435 854.759 185.131 854.759C185.642 854.759 186.09 854.723 186.473 854.652C186.857 854.581 187.155 854.524 187.368 854.482L188.519 859.744C188.149 859.886 187.624 860.028 186.942 860.17C186.26 860.327 185.408 860.412 184.385 860.426C182.709 860.455 181.146 860.156 179.698 859.531C178.249 858.906 177.077 857.94 176.182 856.634C175.287 855.327 174.84 853.686 174.84 851.712V819.432Z" fill="#1A1A2E"/>
<path d="M187.922 827.273H188.922V826.273H187.922V827.273ZM187.922 832.386V833.386H188.922V832.386H187.922ZM170.046 832.386H169.046V833.386H170.046V832.386ZM170.046 827.273V826.273H169.046V827.273H170.046ZM174.84 819.432V818.432H173.84V819.432H174.84ZM181.21 819.432H182.21V818.432H181.21V819.432ZM181.764 853.182L180.903 853.691L180.909 853.699L181.764 853.182ZM183.192 854.439L182.828 855.37L182.842 855.376L182.856 855.381L183.192 854.439ZM186.473 854.652L186.655 855.635V855.635L186.473 854.652ZM187.368 854.482L188.345 854.268L188.135 853.308L187.172 853.501L187.368 854.482ZM188.519 859.744L188.878 860.678L189.679 860.369L189.495 859.531L188.519 859.744ZM186.942 860.17L186.738 859.191L186.728 859.194L186.718 859.196L186.942 860.17ZM184.385 860.426L184.371 859.426L184.368 859.426L184.385 860.426ZM179.698 859.531L179.301 860.449H179.301L179.698 859.531ZM176.182 856.634L175.357 857.199V857.199L176.182 856.634ZM187.922 827.273H186.922V832.386H187.922H188.922V827.273H187.922ZM187.922 832.386V831.386H170.046V832.386V833.386H187.922V832.386ZM170.046 832.386H171.046V827.273H170.046H169.046V832.386H170.046ZM170.046 827.273V828.273H187.922V827.273V826.273H170.046V827.273ZM174.84 819.432V820.432H181.21V819.432V818.432H174.84V819.432ZM181.21 819.432H180.21V850.391H181.21H182.21V819.432H181.21ZM181.21 850.391H180.21C180.21 851.695 180.4 852.838 180.903 853.691L181.764 853.182L182.625 852.673C182.39 852.276 182.21 851.558 182.21 850.391H181.21ZM181.764 853.182L180.909 853.699C181.375 854.471 182.012 855.052 182.828 855.37L183.192 854.439L183.555 853.507C183.207 853.371 182.892 853.115 182.62 852.664L181.764 853.182ZM183.192 854.439L182.856 855.381C183.57 855.636 184.331 855.759 185.131 855.759V854.759V853.759C184.538 853.759 184.007 853.668 183.528 853.497L183.192 854.439ZM185.131 854.759V855.759C185.686 855.759 186.196 855.72 186.655 855.635L186.473 854.652L186.291 853.669C185.983 853.726 185.599 853.759 185.131 853.759V854.759ZM186.473 854.652L186.655 855.635C187.04 855.564 187.344 855.506 187.564 855.462L187.368 854.482L187.172 853.501C186.966 853.542 186.673 853.598 186.291 853.669L186.473 854.652ZM187.368 854.482L186.391 854.695L187.542 859.958L188.519 859.744L189.495 859.531L188.345 854.268L187.368 854.482ZM188.519 859.744L188.16 858.811C187.865 858.924 187.4 859.054 186.738 859.191L186.942 860.17L187.146 861.149C187.847 861.003 188.434 860.848 188.878 860.678L188.519 859.744ZM186.942 860.17L186.718 859.196C186.129 859.331 185.353 859.413 184.371 859.426L184.385 860.426L184.399 861.426C185.463 861.411 186.391 861.323 187.165 861.145L186.942 860.17ZM184.385 860.426L184.368 859.426C182.825 859.452 181.404 859.178 180.094 858.613L179.698 859.531L179.301 860.449C180.889 861.134 182.593 861.457 184.402 861.426L184.385 860.426ZM179.698 859.531L180.094 858.613C178.819 858.063 177.796 857.22 177.007 856.069L176.182 856.634L175.357 857.199C176.358 858.661 177.678 859.749 179.301 860.449L179.698 859.531ZM176.182 856.634L177.007 856.069C176.251 854.965 175.84 853.534 175.84 851.712H174.84H173.84C173.84 853.838 174.323 855.688 175.357 857.199L176.182 856.634ZM174.84 851.712H175.84V819.432H174.84H173.84V851.712H174.84Z" fill="#CACACA" mask="url(#path-20-outside-6_9425_434)"/>
<circle cx="423.024" cy="607" r="48" fill="#FBFFFE" stroke="#CACACA" stroke-width="8"/>
<mask id="path-23-outside-7_9425_434" maskUnits="userSpaceOnUse" x="408.024" y="584" width="33" height="46" fill="black">
<rect fill="white" x="408.024" y="584" width="33" height="46"/>
<path d="M409.129 629V585.364H424.683C428.078 585.364 430.89 585.982 433.12 587.217C435.351 588.453 437.02 590.143 438.128 592.288C439.236 594.419 439.79 596.82 439.79 599.49C439.79 602.175 439.228 604.589 438.106 606.734C436.998 608.865 435.322 610.555 433.078 611.805C430.848 613.041 428.042 613.659 424.662 613.659H413.966V608.077H424.065C426.21 608.077 427.95 607.707 429.285 606.969C430.62 606.216 431.601 605.193 432.226 603.901C432.851 602.608 433.163 601.138 433.163 599.49C433.163 597.842 432.851 596.379 432.226 595.101C431.601 593.822 430.613 592.821 429.264 592.097C427.929 591.372 426.167 591.01 423.98 591.01H415.713V629H409.129Z"/>
</mask>
<path d="M409.129 629V585.364H424.683C428.078 585.364 430.89 585.982 433.12 587.217C435.351 588.453 437.02 590.143 438.128 592.288C439.236 594.419 439.79 596.82 439.79 599.49C439.79 602.175 439.228 604.589 438.106 606.734C436.998 608.865 435.322 610.555 433.078 611.805C430.848 613.041 428.042 613.659 424.662 613.659H413.966V608.077H424.065C426.21 608.077 427.95 607.707 429.285 606.969C430.62 606.216 431.601 605.193 432.226 603.901C432.851 602.608 433.163 601.138 433.163 599.49C433.163 597.842 432.851 596.379 432.226 595.101C431.601 593.822 430.613 592.821 429.264 592.097C427.929 591.372 426.167 591.01 423.98 591.01H415.713V629H409.129Z" fill="#1A1A2E"/>
<path d="M409.129 629H408.129V630H409.129V629ZM409.129 585.364V584.364H408.129V585.364H409.129ZM438.128 592.288L437.239 592.747L437.24 592.75L438.128 592.288ZM438.106 606.734L437.22 606.271L437.219 606.273L438.106 606.734ZM433.078 611.805L433.563 612.68L433.564 612.679L433.078 611.805ZM413.966 613.659H412.966V614.659H413.966V613.659ZM413.966 608.077V607.077H412.966V608.077H413.966ZM429.285 606.969L429.769 607.844L429.776 607.84L429.285 606.969ZM429.264 592.097L428.787 592.976L428.791 592.978L429.264 592.097ZM415.713 591.01V590.01H414.713V591.01H415.713ZM415.713 629V630H416.713V629H415.713ZM409.129 629H410.129V585.364H409.129H408.129V629H409.129ZM409.129 585.364V586.364H424.683V585.364V584.364H409.129V585.364ZM424.683 585.364V586.364C427.962 586.364 430.595 586.961 432.636 588.092L433.12 587.217L433.605 586.343C431.186 585.002 428.193 584.364 424.683 584.364V585.364ZM433.12 587.217L432.636 588.092C434.703 589.238 436.227 590.788 437.239 592.747L438.128 592.288L439.016 591.829C437.812 589.499 435.998 587.668 433.605 586.343L433.12 587.217ZM438.128 592.288L437.24 592.75C438.266 594.723 438.79 596.962 438.79 599.49H439.79H440.79C440.79 596.677 440.205 594.116 439.015 591.827L438.128 592.288ZM439.79 599.49H438.79C438.79 602.031 438.26 604.284 437.22 606.271L438.106 606.734L438.992 607.198C440.197 604.895 440.79 602.318 440.79 599.49H439.79ZM438.106 606.734L437.219 606.273C436.208 608.218 434.677 609.77 432.591 610.932L433.078 611.805L433.564 612.679C435.967 611.341 437.789 609.512 438.993 607.196L438.106 606.734ZM433.078 611.805L432.593 610.931C430.552 612.062 427.926 612.659 424.662 612.659V613.659V614.659C428.159 614.659 431.144 614.021 433.563 612.68L433.078 611.805ZM424.662 613.659V612.659H413.966V613.659V614.659H424.662V613.659ZM413.966 613.659H414.966V608.077H413.966H412.966V613.659H413.966ZM413.966 608.077V609.077H424.065V608.077V607.077H413.966V608.077ZM424.065 608.077V609.077C426.314 609.077 428.238 608.691 429.769 607.844L429.285 606.969L428.801 606.094C427.662 606.724 426.106 607.077 424.065 607.077V608.077ZM429.285 606.969L429.776 607.84C431.277 606.994 432.406 605.825 433.126 604.336L432.226 603.901L431.325 603.465C430.795 604.562 429.964 605.438 428.794 606.098L429.285 606.969ZM432.226 603.901L433.126 604.336C433.826 602.889 434.163 601.266 434.163 599.49H433.163H432.163C432.163 601.009 431.876 602.327 431.325 603.465L432.226 603.901ZM433.163 599.49H434.163C434.163 597.714 433.826 596.097 433.124 594.662L432.226 595.101L431.327 595.54C431.876 596.662 432.163 597.971 432.163 599.49H433.163ZM432.226 595.101L433.124 594.662C432.4 593.18 431.256 592.031 429.737 591.216L429.264 592.097L428.791 592.978C429.971 593.611 430.801 594.464 431.327 595.54L432.226 595.101ZM429.264 592.097L429.741 591.218C428.209 590.386 426.265 590.01 423.98 590.01V591.01V592.01C426.069 592.01 427.649 592.358 428.787 592.976L429.264 592.097ZM423.98 591.01V590.01H415.713V591.01V592.01H423.98V591.01ZM415.713 591.01H414.713V629H415.713H416.713V591.01H415.713ZM415.713 629V628H409.129V629V630H415.713V629Z" fill="#CACACA" mask="url(#path-23-outside-7_9425_434)"/>
<circle cx="789.024" cy="607" r="48" fill="#FBFFFE" stroke="#CACACA" stroke-width="8"/>
<mask id="path-26-outside-8_9425_434" maskUnits="userSpaceOnUse" x="774.024" y="584" width="33" height="46" fill="black">
<rect fill="white" x="774.024" y="584" width="33" height="46"/>
<path d="M775.129 629V585.364H790.683C794.078 585.364 796.89 585.982 799.12 587.217C801.351 588.453 803.02 590.143 804.128 592.288C805.236 594.419 805.79 596.82 805.79 599.49C805.79 602.175 805.228 604.589 804.106 606.734C802.998 608.865 801.322 610.555 799.078 611.805C796.848 613.041 794.042 613.659 790.662 613.659H779.966V608.077H790.065C792.21 608.077 793.95 607.707 795.285 606.969C796.62 606.216 797.601 605.193 798.226 603.901C798.851 602.608 799.163 601.138 799.163 599.49C799.163 597.842 798.851 596.379 798.226 595.101C797.601 593.822 796.613 592.821 795.264 592.097C793.929 591.372 792.167 591.01 789.98 591.01H781.713V629H775.129Z"/>
</mask>
<path d="M775.129 629V585.364H790.683C794.078 585.364 796.89 585.982 799.12 587.217C801.351 588.453 803.02 590.143 804.128 592.288C805.236 594.419 805.79 596.82 805.79 599.49C805.79 602.175 805.228 604.589 804.106 606.734C802.998 608.865 801.322 610.555 799.078 611.805C796.848 613.041 794.042 613.659 790.662 613.659H779.966V608.077H790.065C792.21 608.077 793.95 607.707 795.285 606.969C796.62 606.216 797.601 605.193 798.226 603.901C798.851 602.608 799.163 601.138 799.163 599.49C799.163 597.842 798.851 596.379 798.226 595.101C797.601 593.822 796.613 592.821 795.264 592.097C793.929 591.372 792.167 591.01 789.98 591.01H781.713V629H775.129Z" fill="#1A1A2E"/>
<path d="M775.129 629H774.129V630H775.129V629ZM775.129 585.364V584.364H774.129V585.364H775.129ZM804.128 592.288L803.239 592.747L803.24 592.75L804.128 592.288ZM804.106 606.734L803.22 606.271L803.219 606.273L804.106 606.734ZM799.078 611.805L799.563 612.68L799.564 612.679L799.078 611.805ZM779.966 613.659H778.966V614.659H779.966V613.659ZM779.966 608.077V607.077H778.966V608.077H779.966ZM795.285 606.969L795.769 607.844L795.776 607.84L795.285 606.969ZM795.264 592.097L794.787 592.976L794.791 592.978L795.264 592.097ZM781.713 591.01V590.01H780.713V591.01H781.713ZM781.713 629V630H782.713V629H781.713ZM775.129 629H776.129V585.364H775.129H774.129V629H775.129ZM775.129 585.364V586.364H790.683V585.364V584.364H775.129V585.364ZM790.683 585.364V586.364C793.962 586.364 796.595 586.961 798.636 588.092L799.12 587.217L799.605 586.343C797.186 585.002 794.193 584.364 790.683 584.364V585.364ZM799.12 587.217L798.636 588.092C800.703 589.238 802.227 590.788 803.239 592.747L804.128 592.288L805.016 591.829C803.812 589.499 801.998 587.668 799.605 586.343L799.12 587.217ZM804.128 592.288L803.24 592.75C804.266 594.723 804.79 596.962 804.79 599.49H805.79H806.79C806.79 596.677 806.205 594.116 805.015 591.827L804.128 592.288ZM805.79 599.49H804.79C804.79 602.031 804.26 604.284 803.22 606.271L804.106 606.734L804.992 607.198C806.197 604.895 806.79 602.318 806.79 599.49H805.79ZM804.106 606.734L803.219 606.273C802.208 608.218 800.677 609.77 798.591 610.932L799.078 611.805L799.564 612.679C801.967 611.341 803.789 609.512 804.993 607.196L804.106 606.734ZM799.078 611.805L798.593 610.931C796.552 612.062 793.926 612.659 790.662 612.659V613.659V614.659C794.159 614.659 797.144 614.021 799.563 612.68L799.078 611.805ZM790.662 613.659V612.659H779.966V613.659V614.659H790.662V613.659ZM779.966 613.659H780.966V608.077H779.966H778.966V613.659H779.966ZM779.966 608.077V609.077H790.065V608.077V607.077H779.966V608.077ZM790.065 608.077V609.077C792.314 609.077 794.238 608.691 795.769 607.844L795.285 606.969L794.801 606.094C793.662 606.724 792.106 607.077 790.065 607.077V608.077ZM795.285 606.969L795.776 607.84C797.277 606.994 798.406 605.825 799.126 604.336L798.226 603.901L797.325 603.465C796.795 604.562 795.964 605.438 794.794 606.098L795.285 606.969ZM798.226 603.901L799.126 604.336C799.826 602.889 800.163 601.266 800.163 599.49H799.163H798.163C798.163 601.009 797.876 602.327 797.325 603.465L798.226 603.901ZM799.163 599.49H800.163C800.163 597.714 799.826 596.097 799.124 594.662L798.226 595.101L797.327 595.54C797.876 596.662 798.163 597.971 798.163 599.49H799.163ZM798.226 595.101L799.124 594.662C798.4 593.18 797.256 592.031 795.737 591.216L795.264 592.097L794.791 592.978C795.971 593.611 796.801 594.464 797.327 595.54L798.226 595.101ZM795.264 592.097L795.741 591.218C794.209 590.386 792.265 590.01 789.98 590.01V591.01V592.01C792.069 592.01 793.649 592.358 794.787 592.976L795.264 592.097ZM789.98 591.01V590.01H781.713V591.01V592.01H789.98V591.01ZM781.713 591.01H780.713V629H781.713H782.713V591.01H781.713ZM781.713 629V628H775.129V629V630H781.713V629Z" fill="#CACACA" mask="url(#path-26-outside-8_9425_434)"/>
<circle cx="545.024" cy="838" r="48" fill="#FBFFFE" stroke="#CACACA" stroke-width="8"/>
<mask id="path-29-outside-9_9425_434" maskUnits="userSpaceOnUse" x="535.024" y="818" width="21" height="44" fill="black">
<rect fill="white" x="535.024" y="818" width="21" height="44"/>
<path d="M553.922 827.273V832.386H536.046V827.273H553.922ZM540.84 819.432H547.21V850.391C547.21 851.626 547.395 852.557 547.764 853.182C548.134 853.793 548.609 854.212 549.192 854.439C549.788 854.652 550.435 854.759 551.131 854.759C551.642 854.759 552.09 854.723 552.473 854.652C552.857 854.581 553.155 854.524 553.368 854.482L554.519 859.744C554.149 859.886 553.624 860.028 552.942 860.17C552.26 860.327 551.408 860.412 550.385 860.426C548.709 860.455 547.146 860.156 545.698 859.531C544.249 858.906 543.077 857.94 542.182 856.634C541.287 855.327 540.84 853.686 540.84 851.712V819.432Z"/>
</mask>
<path d="M553.922 827.273V832.386H536.046V827.273H553.922ZM540.84 819.432H547.21V850.391C547.21 851.626 547.395 852.557 547.764 853.182C548.134 853.793 548.609 854.212 549.192 854.439C549.788 854.652 550.435 854.759 551.131 854.759C551.642 854.759 552.09 854.723 552.473 854.652C552.857 854.581 553.155 854.524 553.368 854.482L554.519 859.744C554.149 859.886 553.624 860.028 552.942 860.17C552.26 860.327 551.408 860.412 550.385 860.426C548.709 860.455 547.146 860.156 545.698 859.531C544.249 858.906 543.077 857.94 542.182 856.634C541.287 855.327 540.84 853.686 540.84 851.712V819.432Z" fill="#1A1A2E"/>
<path d="M553.922 827.273H554.922V826.273H553.922V827.273ZM553.922 832.386V833.386H554.922V832.386H553.922ZM536.046 832.386H535.046V833.386H536.046V832.386ZM536.046 827.273V826.273H535.046V827.273H536.046ZM540.84 819.432V818.432H539.84V819.432H540.84ZM547.21 819.432H548.21V818.432H547.21V819.432ZM547.764 853.182L546.903 853.691L546.909 853.699L547.764 853.182ZM549.192 854.439L548.828 855.37L548.842 855.376L548.856 855.381L549.192 854.439ZM552.473 854.652L552.655 855.635V855.635L552.473 854.652ZM553.368 854.482L554.345 854.268L554.135 853.308L553.172 853.501L553.368 854.482ZM554.519 859.744L554.878 860.678L555.679 860.369L555.495 859.531L554.519 859.744ZM552.942 860.17L552.738 859.191L552.728 859.194L552.718 859.196L552.942 860.17ZM550.385 860.426L550.371 859.426L550.368 859.426L550.385 860.426ZM545.698 859.531L545.301 860.449H545.301L545.698 859.531ZM542.182 856.634L541.357 857.199V857.199L542.182 856.634ZM553.922 827.273H552.922V832.386H553.922H554.922V827.273H553.922ZM553.922 832.386V831.386H536.046V832.386V833.386H553.922V832.386ZM536.046 832.386H537.046V827.273H536.046H535.046V832.386H536.046ZM536.046 827.273V828.273H553.922V827.273V826.273H536.046V827.273ZM540.84 819.432V820.432H547.21V819.432V818.432H540.84V819.432ZM547.21 819.432H546.21V850.391H547.21H548.21V819.432H547.21ZM547.21 850.391H546.21C546.21 851.695 546.4 852.838 546.903 853.691L547.764 853.182L548.625 852.673C548.39 852.276 548.21 851.558 548.21 850.391H547.21ZM547.764 853.182L546.909 853.699C547.375 854.471 548.012 855.052 548.828 855.37L549.192 854.439L549.555 853.507C549.207 853.371 548.892 853.115 548.62 852.664L547.764 853.182ZM549.192 854.439L548.856 855.381C549.57 855.636 550.331 855.759 551.131 855.759V854.759V853.759C550.538 853.759 550.007 853.668 549.528 853.497L549.192 854.439ZM551.131 854.759V855.759C551.686 855.759 552.196 855.72 552.655 855.635L552.473 854.652L552.291 853.669C551.983 853.726 551.599 853.759 551.131 853.759V854.759ZM552.473 854.652L552.655 855.635C553.04 855.564 553.344 855.506 553.564 855.462L553.368 854.482L553.172 853.501C552.966 853.542 552.673 853.598 552.291 853.669L552.473 854.652ZM553.368 854.482L552.391 854.695L553.542 859.958L554.519 859.744L555.495 859.531L554.345 854.268L553.368 854.482ZM554.519 859.744L554.16 858.811C553.865 858.924 553.4 859.054 552.738 859.191L552.942 860.17L553.146 861.149C553.847 861.003 554.434 860.848 554.878 860.678L554.519 859.744ZM552.942 860.17L552.718 859.196C552.129 859.331 551.353 859.413 550.371 859.426L550.385 860.426L550.399 861.426C551.463 861.411 552.391 861.323 553.165 861.145L552.942 860.17ZM550.385 860.426L550.368 859.426C548.825 859.452 547.404 859.178 546.094 858.613L545.698 859.531L545.301 860.449C546.889 861.134 548.593 861.457 550.402 861.426L550.385 860.426ZM545.698 859.531L546.094 858.613C544.819 858.063 543.796 857.22 543.007 856.069L542.182 856.634L541.357 857.199C542.358 858.661 543.678 859.749 545.301 860.449L545.698 859.531ZM542.182 856.634L543.007 856.069C542.251 854.965 541.84 853.534 541.84 851.712H540.84H539.84C539.84 853.838 540.323 855.688 541.357 857.199L542.182 856.634ZM540.84 851.712H541.84V819.432H540.84H539.84V851.712H540.84Z" fill="#CACACA" mask="url(#path-29-outside-9_9425_434)"/>
<circle cx="789.024" cy="838" r="48" fill="#FBFFFE" stroke="#CACACA" stroke-width="8"/>
<mask id="path-32-outside-10_9425_434" maskUnits="userSpaceOnUse" x="779.024" y="818" width="21" height="44" fill="black">
<rect fill="white" x="779.024" y="818" width="21" height="44"/>
<path d="M797.922 827.273V832.386H780.046V827.273H797.922ZM784.84 819.432H791.21V850.391C791.21 851.626 791.395 852.557 791.764 853.182C792.134 853.793 792.609 854.212 793.192 854.439C793.788 854.652 794.435 854.759 795.131 854.759C795.642 854.759 796.09 854.723 796.473 854.652C796.857 854.581 797.155 854.524 797.368 854.482L798.519 859.744C798.149 859.886 797.624 860.028 796.942 860.17C796.26 860.327 795.408 860.412 794.385 860.426C792.709 860.455 791.146 860.156 789.698 859.531C788.249 858.906 787.077 857.94 786.182 856.634C785.287 855.327 784.84 853.686 784.84 851.712V819.432Z"/>
</mask>
<path d="M797.922 827.273V832.386H780.046V827.273H797.922ZM784.84 819.432H791.21V850.391C791.21 851.626 791.395 852.557 791.764 853.182C792.134 853.793 792.609 854.212 793.192 854.439C793.788 854.652 794.435 854.759 795.131 854.759C795.642 854.759 796.09 854.723 796.473 854.652C796.857 854.581 797.155 854.524 797.368 854.482L798.519 859.744C798.149 859.886 797.624 860.028 796.942 860.17C796.26 860.327 795.408 860.412 794.385 860.426C792.709 860.455 791.146 860.156 789.698 859.531C788.249 858.906 787.077 857.94 786.182 856.634C785.287 855.327 784.84 853.686 784.84 851.712V819.432Z" fill="#1A1A2E"/>
<path d="M797.922 827.273H798.922V826.273H797.922V827.273ZM797.922 832.386V833.386H798.922V832.386H797.922ZM780.046 832.386H779.046V833.386H780.046V832.386ZM780.046 827.273V826.273H779.046V827.273H780.046ZM784.84 819.432V818.432H783.84V819.432H784.84ZM791.21 819.432H792.21V818.432H791.21V819.432ZM791.764 853.182L790.903 853.691L790.909 853.699L791.764 853.182ZM793.192 854.439L792.828 855.37L792.842 855.376L792.856 855.381L793.192 854.439ZM796.473 854.652L796.655 855.635V855.635L796.473 854.652ZM797.368 854.482L798.345 854.268L798.135 853.308L797.172 853.501L797.368 854.482ZM798.519 859.744L798.878 860.678L799.679 860.369L799.495 859.531L798.519 859.744ZM796.942 860.17L796.738 859.191L796.728 859.194L796.718 859.196L796.942 860.17ZM794.385 860.426L794.371 859.426L794.368 859.426L794.385 860.426ZM789.698 859.531L789.301 860.449H789.301L789.698 859.531ZM786.182 856.634L785.357 857.199V857.199L786.182 856.634ZM797.922 827.273H796.922V832.386H797.922H798.922V827.273H797.922ZM797.922 832.386V831.386H780.046V832.386V833.386H797.922V832.386ZM780.046 832.386H781.046V827.273H780.046H779.046V832.386H780.046ZM780.046 827.273V828.273H797.922V827.273V826.273H780.046V827.273ZM784.84 819.432V820.432H791.21V819.432V818.432H784.84V819.432ZM791.21 819.432H790.21V850.391H791.21H792.21V819.432H791.21ZM791.21 850.391H790.21C790.21 851.695 790.4 852.838 790.903 853.691L791.764 853.182L792.625 852.673C792.39 852.276 792.21 851.558 792.21 850.391H791.21ZM791.764 853.182L790.909 853.699C791.375 854.471 792.012 855.052 792.828 855.37L793.192 854.439L793.555 853.507C793.207 853.371 792.892 853.115 792.62 852.664L791.764 853.182ZM793.192 854.439L792.856 855.381C793.57 855.636 794.331 855.759 795.131 855.759V854.759V853.759C794.538 853.759 794.007 853.668 793.528 853.497L793.192 854.439ZM795.131 854.759V855.759C795.686 855.759 796.196 855.72 796.655 855.635L796.473 854.652L796.291 853.669C795.983 853.726 795.599 853.759 795.131 853.759V854.759ZM796.473 854.652L796.655 855.635C797.04 855.564 797.344 855.506 797.564 855.462L797.368 854.482L797.172 853.501C796.966 853.542 796.673 853.598 796.291 853.669L796.473 854.652ZM797.368 854.482L796.391 854.695L797.542 859.958L798.519 859.744L799.495 859.531L798.345 854.268L797.368 854.482ZM798.519 859.744L798.16 858.811C797.865 858.924 797.4 859.054 796.738 859.191L796.942 860.17L797.146 861.149C797.847 861.003 798.434 860.848 798.878 860.678L798.519 859.744ZM796.942 860.17L796.718 859.196C796.129 859.331 795.353 859.413 794.371 859.426L794.385 860.426L794.399 861.426C795.463 861.411 796.391 861.323 797.165 861.145L796.942 860.17ZM794.385 860.426L794.368 859.426C792.825 859.452 791.404 859.178 790.094 858.613L789.698 859.531L789.301 860.449C790.889 861.134 792.593 861.457 794.402 861.426L794.385 860.426ZM789.698 859.531L790.094 858.613C788.819 858.063 787.796 857.22 787.007 856.069L786.182 856.634L785.357 857.199C786.358 858.661 787.678 859.749 789.301 860.449L789.698 859.531ZM786.182 856.634L787.007 856.069C786.251 854.965 785.84 853.534 785.84 851.712H784.84H783.84C783.84 853.838 784.323 855.688 785.357 857.199L786.182 856.634ZM784.84 851.712H785.84V819.432H784.84H783.84V851.712H784.84Z" fill="#CACACA" mask="url(#path-32-outside-10_9425_434)"/>
<circle cx="545.024" cy="607" r="48" fill="#FBFFFE" stroke="#CACACA" stroke-width="8"/>
<mask id="path-35-outside-11_9425_434" maskUnits="userSpaceOnUse" x="530.024" y="584" width="33" height="46" fill="black">
<rect fill="white" x="530.024" y="584" width="33" height="46"/>
<path d="M531.129 629V585.364H546.683C550.078 585.364 552.89 585.982 555.12 587.217C557.351 588.453 559.02 590.143 560.128 592.288C561.236 594.419 561.79 596.82 561.79 599.49C561.79 602.175 561.228 604.589 560.106 606.734C558.998 608.865 557.322 610.555 555.078 611.805C552.848 613.041 550.042 613.659 546.662 613.659H535.966V608.077H546.065C548.21 608.077 549.95 607.707 551.285 606.969C552.62 606.216 553.601 605.193 554.226 603.901C554.851 602.608 555.163 601.138 555.163 599.49C555.163 597.842 554.851 596.379 554.226 595.101C553.601 593.822 552.613 592.821 551.264 592.097C549.929 591.372 548.167 591.01 545.98 591.01H537.713V629H531.129Z"/>
</mask>
<path d="M531.129 629V585.364H546.683C550.078 585.364 552.89 585.982 555.12 587.217C557.351 588.453 559.02 590.143 560.128 592.288C561.236 594.419 561.79 596.82 561.79 599.49C561.79 602.175 561.228 604.589 560.106 606.734C558.998 608.865 557.322 610.555 555.078 611.805C552.848 613.041 550.042 613.659 546.662 613.659H535.966V608.077H546.065C548.21 608.077 549.95 607.707 551.285 606.969C552.62 606.216 553.601 605.193 554.226 603.901C554.851 602.608 555.163 601.138 555.163 599.49C555.163 597.842 554.851 596.379 554.226 595.101C553.601 593.822 552.613 592.821 551.264 592.097C549.929 591.372 548.167 591.01 545.98 591.01H537.713V629H531.129Z" fill="#1A1A2E"/>
<path d="M531.129 629H530.129V630H531.129V629ZM531.129 585.364V584.364H530.129V585.364H531.129ZM560.128 592.288L559.239 592.747L559.24 592.75L560.128 592.288ZM560.106 606.734L559.22 606.271L559.219 606.273L560.106 606.734ZM555.078 611.805L555.563 612.68L555.564 612.679L555.078 611.805ZM535.966 613.659H534.966V614.659H535.966V613.659ZM535.966 608.077V607.077H534.966V608.077H535.966ZM551.285 606.969L551.769 607.844L551.776 607.84L551.285 606.969ZM551.264 592.097L550.787 592.976L550.791 592.978L551.264 592.097ZM537.713 591.01V590.01H536.713V591.01H537.713ZM537.713 629V630H538.713V629H537.713ZM531.129 629H532.129V585.364H531.129H530.129V629H531.129ZM531.129 585.364V586.364H546.683V585.364V584.364H531.129V585.364ZM546.683 585.364V586.364C549.962 586.364 552.595 586.961 554.636 588.092L555.12 587.217L555.605 586.343C553.186 585.002 550.193 584.364 546.683 584.364V585.364ZM555.12 587.217L554.636 588.092C556.703 589.238 558.227 590.788 559.239 592.747L560.128 592.288L561.016 591.829C559.812 589.499 557.998 587.668 555.605 586.343L555.12 587.217ZM560.128 592.288L559.24 592.75C560.266 594.723 560.79 596.962 560.79 599.49H561.79H562.79C562.79 596.677 562.205 594.116 561.015 591.827L560.128 592.288ZM561.79 599.49H560.79C560.79 602.031 560.26 604.284 559.22 606.271L560.106 606.734L560.992 607.198C562.197 604.895 562.79 602.318 562.79 599.49H561.79ZM560.106 606.734L559.219 606.273C558.208 608.218 556.677 609.77 554.591 610.932L555.078 611.805L555.564 612.679C557.967 611.341 559.789 609.512 560.993 607.196L560.106 606.734ZM555.078 611.805L554.593 610.931C552.552 612.062 549.926 612.659 546.662 612.659V613.659V614.659C550.159 614.659 553.144 614.021 555.563 612.68L555.078 611.805ZM546.662 613.659V612.659H535.966V613.659V614.659H546.662V613.659ZM535.966 613.659H536.966V608.077H535.966H534.966V613.659H535.966ZM535.966 608.077V609.077H546.065V608.077V607.077H535.966V608.077ZM546.065 608.077V609.077C548.314 609.077 550.238 608.691 551.769 607.844L551.285 606.969L550.801 606.094C549.662 606.724 548.106 607.077 546.065 607.077V608.077ZM551.285 606.969L551.776 607.84C553.277 606.994 554.406 605.825 555.126 604.336L554.226 603.901L553.325 603.465C552.795 604.562 551.964 605.438 550.794 606.098L551.285 606.969ZM554.226 603.901L555.126 604.336C555.826 602.889 556.163 601.266 556.163 599.49H555.163H554.163C554.163 601.009 553.876 602.327 553.325 603.465L554.226 603.901ZM555.163 599.49H556.163C556.163 597.714 555.826 596.097 555.124 594.662L554.226 595.101L553.327 595.54C553.876 596.662 554.163 597.971 554.163 599.49H555.163ZM554.226 595.101L555.124 594.662C554.4 593.18 553.256 592.031 551.737 591.216L551.264 592.097L550.791 592.978C551.971 593.611 552.801 594.464 553.327 595.54L554.226 595.101ZM551.264 592.097L551.741 591.218C550.209 590.386 548.265 590.01 545.98 590.01V591.01V592.01C548.069 592.01 549.649 592.358 550.787 592.976L551.264 592.097ZM545.98 591.01V590.01H537.713V591.01V592.01H545.98V591.01ZM537.713 591.01H536.713V629H537.713H538.713V591.01H537.713ZM537.713 629V628H531.129V629V630H537.713V629Z" fill="#CACACA" mask="url(#path-35-outside-11_9425_434)"/>
<circle cx="539.024" cy="382" r="48" fill="#FBFFFE" stroke="#CACACA" stroke-width="8"/>
<mask id="path-38-outside-12_9425_434" maskUnits="userSpaceOnUse" x="515.024" y="359" width="48" height="46" fill="black">
<rect fill="white" x="515.024" y="359" width="48" height="46"/>
<path d="M516.895 360.364H524.885L538.777 394.284H539.288L553.18 360.364H561.17V404H554.906V372.423H554.501L541.632 403.936H536.433L523.564 372.402H523.159V404H516.895V360.364Z"/>
</mask>
<path d="M516.895 360.364H524.885L538.777 394.284H539.288L553.18 360.364H561.17V404H554.906V372.423H554.501L541.632 403.936H536.433L523.564 372.402H523.159V404H516.895V360.364Z" fill="#1A1A2E"/>
<path d="M516.895 360.364V359.364H515.895V360.364H516.895ZM524.885 360.364L525.81 359.985L525.556 359.364H524.885V360.364ZM538.777 394.284L537.851 394.663L538.106 395.284H538.777V394.284ZM539.288 394.284V395.284H539.959L540.213 394.663L539.288 394.284ZM553.18 360.364V359.364H552.509L552.255 359.985L553.18 360.364ZM561.17 360.364H562.17V359.364H561.17V360.364ZM561.17 404V405H562.17V404H561.17ZM554.906 404H553.906V405H554.906V404ZM554.906 372.423H555.906V371.423H554.906V372.423ZM554.501 372.423V371.423H553.829L553.575 372.045L554.501 372.423ZM541.632 403.936V404.936H542.304L542.558 404.314L541.632 403.936ZM536.433 403.936L535.507 404.314L535.761 404.936H536.433V403.936ZM523.564 372.402L524.49 372.024L524.236 371.402H523.564V372.402ZM523.159 372.402V371.402H522.159V372.402H523.159ZM523.159 404V405H524.159V404H523.159ZM516.895 404H515.895V405H516.895V404ZM516.895 360.364V361.364H524.885V360.364V359.364H516.895V360.364ZM524.885 360.364L523.959 360.743L537.851 394.663L538.777 394.284L539.702 393.905L525.81 359.985L524.885 360.364ZM538.777 394.284V395.284H539.288V394.284V393.284H538.777V394.284ZM539.288 394.284L540.213 394.663L554.106 360.743L553.18 360.364L552.255 359.985L538.363 393.905L539.288 394.284ZM553.18 360.364V361.364H561.17V360.364V359.364H553.18V360.364ZM561.17 360.364H560.17V404H561.17H562.17V360.364H561.17ZM561.17 404V403H554.906V404V405H561.17V404ZM554.906 404H555.906V372.423H554.906H553.906V404H554.906ZM554.906 372.423V371.423H554.501V372.423V373.423H554.906V372.423ZM554.501 372.423L553.575 372.045L540.706 403.558L541.632 403.936L542.558 404.314L555.427 372.801L554.501 372.423ZM541.632 403.936V402.936H536.433V403.936V404.936H541.632V403.936ZM536.433 403.936L537.359 403.558L524.49 372.024L523.564 372.402L522.638 372.78L535.507 404.314L536.433 403.936ZM523.564 372.402V371.402H523.159V372.402V373.402H523.564V372.402ZM523.159 372.402H522.159V404H523.159H524.159V372.402H523.159ZM523.159 404V403H516.895V404V405H523.159V404ZM516.895 404H517.895V360.364H516.895H515.895V404H516.895Z" fill="#CACACA" mask="url(#path-38-outside-12_9425_434)"/>
<circle cx="301.024" cy="838" r="48" fill="#FBFFFE" stroke="#CACACA" stroke-width="8"/>
<mask id="path-41-outside-13_9425_434" maskUnits="userSpaceOnUse" x="291.024" y="818" width="21" height="44" fill="black">
<rect fill="white" x="291.024" y="818" width="21" height="44"/>
<path d="M309.922 827.273V832.386H292.046V827.273H309.922ZM296.84 819.432H303.21V850.391C303.21 851.626 303.395 852.557 303.764 853.182C304.134 853.793 304.609 854.212 305.192 854.439C305.788 854.652 306.435 854.759 307.131 854.759C307.642 854.759 308.09 854.723 308.473 854.652C308.857 854.581 309.155 854.524 309.368 854.482L310.519 859.744C310.149 859.886 309.624 860.028 308.942 860.17C308.26 860.327 307.408 860.412 306.385 860.426C304.709 860.455 303.146 860.156 301.698 859.531C300.249 858.906 299.077 857.94 298.182 856.634C297.287 855.327 296.84 853.686 296.84 851.712V819.432Z"/>
</mask>
<path d="M309.922 827.273V832.386H292.046V827.273H309.922ZM296.84 819.432H303.21V850.391C303.21 851.626 303.395 852.557 303.764 853.182C304.134 853.793 304.609 854.212 305.192 854.439C305.788 854.652 306.435 854.759 307.131 854.759C307.642 854.759 308.09 854.723 308.473 854.652C308.857 854.581 309.155 854.524 309.368 854.482L310.519 859.744C310.149 859.886 309.624 860.028 308.942 860.17C308.26 860.327 307.408 860.412 306.385 860.426C304.709 860.455 303.146 860.156 301.698 859.531C300.249 858.906 299.077 857.94 298.182 856.634C297.287 855.327 296.84 853.686 296.84 851.712V819.432Z" fill="#1A1A2E"/>
<path d="M309.922 827.273H310.922V826.273H309.922V827.273ZM309.922 832.386V833.386H310.922V832.386H309.922ZM292.046 832.386H291.046V833.386H292.046V832.386ZM292.046 827.273V826.273H291.046V827.273H292.046ZM296.84 819.432V818.432H295.84V819.432H296.84ZM303.21 819.432H304.21V818.432H303.21V819.432ZM303.764 853.182L302.903 853.691L302.909 853.699L303.764 853.182ZM305.192 854.439L304.828 855.37L304.842 855.376L304.856 855.381L305.192 854.439ZM308.473 854.652L308.655 855.635V855.635L308.473 854.652ZM309.368 854.482L310.345 854.268L310.135 853.308L309.172 853.501L309.368 854.482ZM310.519 859.744L310.878 860.678L311.679 860.369L311.495 859.531L310.519 859.744ZM308.942 860.17L308.738 859.191L308.728 859.194L308.718 859.196L308.942 860.17ZM306.385 860.426L306.371 859.426L306.368 859.426L306.385 860.426ZM301.698 859.531L301.301 860.449H301.301L301.698 859.531ZM298.182 856.634L297.357 857.199V857.199L298.182 856.634ZM309.922 827.273H308.922V832.386H309.922H310.922V827.273H309.922ZM309.922 832.386V831.386H292.046V832.386V833.386H309.922V832.386ZM292.046 832.386H293.046V827.273H292.046H291.046V832.386H292.046ZM292.046 827.273V828.273H309.922V827.273V826.273H292.046V827.273ZM296.84 819.432V820.432H303.21V819.432V818.432H296.84V819.432ZM303.21 819.432H302.21V850.391H303.21H304.21V819.432H303.21ZM303.21 850.391H302.21C302.21 851.695 302.4 852.838 302.903 853.691L303.764 853.182L304.625 852.673C304.39 852.276 304.21 851.558 304.21 850.391H303.21ZM303.764 853.182L302.909 853.699C303.375 854.471 304.012 855.052 304.828 855.37L305.192 854.439L305.555 853.507C305.207 853.371 304.892 853.115 304.62 852.664L303.764 853.182ZM305.192 854.439L304.856 855.381C305.57 855.636 306.331 855.759 307.131 855.759V854.759V853.759C306.538 853.759 306.007 853.668 305.528 853.497L305.192 854.439ZM307.131 854.759V855.759C307.686 855.759 308.196 855.72 308.655 855.635L308.473 854.652L308.291 853.669C307.983 853.726 307.599 853.759 307.131 853.759V854.759ZM308.473 854.652L308.655 855.635C309.04 855.564 309.344 855.506 309.564 855.462L309.368 854.482L309.172 853.501C308.966 853.542 308.673 853.598 308.291 853.669L308.473 854.652ZM309.368 854.482L308.391 854.695L309.542 859.958L310.519 859.744L311.495 859.531L310.345 854.268L309.368 854.482ZM310.519 859.744L310.16 858.811C309.865 858.924 309.4 859.054 308.738 859.191L308.942 860.17L309.146 861.149C309.847 861.003 310.434 860.848 310.878 860.678L310.519 859.744ZM308.942 860.17L308.718 859.196C308.129 859.331 307.353 859.413 306.371 859.426L306.385 860.426L306.399 861.426C307.463 861.411 308.391 861.323 309.165 861.145L308.942 860.17ZM306.385 860.426L306.368 859.426C304.825 859.452 303.404 859.178 302.094 858.613L301.698 859.531L301.301 860.449C302.889 861.134 304.593 861.457 306.402 861.426L306.385 860.426ZM301.698 859.531L302.094 858.613C300.819 858.063 299.796 857.22 299.007 856.069L298.182 856.634L297.357 857.199C298.358 858.661 299.678 859.749 301.301 860.449L301.698 859.531ZM298.182 856.634L299.007 856.069C298.251 854.965 297.84 853.534 297.84 851.712H296.84H295.84C295.84 853.838 296.323 855.688 297.357 857.199L298.182 856.634ZM296.84 851.712H297.84V819.432H296.84H295.84V851.712H296.84Z" fill="#CACACA" mask="url(#path-41-outside-13_9425_434)"/>
<circle cx="667.024" cy="838" r="48" fill="#FBFFFE" stroke="#CACACA" stroke-width="8"/>
<mask id="path-44-outside-14_9425_434" maskUnits="userSpaceOnUse" x="657.024" y="818" width="21" height="44" fill="black">
<rect fill="white" x="657.024" y="818" width="21" height="44"/>
<path d="M675.922 827.273V832.386H658.046V827.273H675.922ZM662.84 819.432H669.21V850.391C669.21 851.626 669.395 852.557 669.764 853.182C670.134 853.793 670.609 854.212 671.192 854.439C671.788 854.652 672.435 854.759 673.131 854.759C673.642 854.759 674.09 854.723 674.473 854.652C674.857 854.581 675.155 854.524 675.368 854.482L676.519 859.744C676.149 859.886 675.624 860.028 674.942 860.17C674.26 860.327 673.408 860.412 672.385 860.426C670.709 860.455 669.146 860.156 667.698 859.531C666.249 858.906 665.077 857.94 664.182 856.634C663.287 855.327 662.84 853.686 662.84 851.712V819.432Z"/>
</mask>
<path d="M675.922 827.273V832.386H658.046V827.273H675.922ZM662.84 819.432H669.21V850.391C669.21 851.626 669.395 852.557 669.764 853.182C670.134 853.793 670.609 854.212 671.192 854.439C671.788 854.652 672.435 854.759 673.131 854.759C673.642 854.759 674.09 854.723 674.473 854.652C674.857 854.581 675.155 854.524 675.368 854.482L676.519 859.744C676.149 859.886 675.624 860.028 674.942 860.17C674.26 860.327 673.408 860.412 672.385 860.426C670.709 860.455 669.146 860.156 667.698 859.531C666.249 858.906 665.077 857.94 664.182 856.634C663.287 855.327 662.84 853.686 662.84 851.712V819.432Z" fill="#1A1A2E"/>
<path d="M675.922 827.273H676.922V826.273H675.922V827.273ZM675.922 832.386V833.386H676.922V832.386H675.922ZM658.046 832.386H657.046V833.386H658.046V832.386ZM658.046 827.273V826.273H657.046V827.273H658.046ZM662.84 819.432V818.432H661.84V819.432H662.84ZM669.21 819.432H670.21V818.432H669.21V819.432ZM669.764 853.182L668.903 853.691L668.909 853.699L669.764 853.182ZM671.192 854.439L670.828 855.37L670.842 855.376L670.856 855.381L671.192 854.439ZM674.473 854.652L674.655 855.635V855.635L674.473 854.652ZM675.368 854.482L676.345 854.268L676.135 853.308L675.172 853.501L675.368 854.482ZM676.519 859.744L676.878 860.678L677.679 860.369L677.495 859.531L676.519 859.744ZM674.942 860.17L674.738 859.191L674.728 859.194L674.718 859.196L674.942 860.17ZM672.385 860.426L672.371 859.426L672.368 859.426L672.385 860.426ZM667.698 859.531L667.301 860.449H667.301L667.698 859.531ZM664.182 856.634L663.357 857.199V857.199L664.182 856.634ZM675.922 827.273H674.922V832.386H675.922H676.922V827.273H675.922ZM675.922 832.386V831.386H658.046V832.386V833.386H675.922V832.386ZM658.046 832.386H659.046V827.273H658.046H657.046V832.386H658.046ZM658.046 827.273V828.273H675.922V827.273V826.273H658.046V827.273ZM662.84 819.432V820.432H669.21V819.432V818.432H662.84V819.432ZM669.21 819.432H668.21V850.391H669.21H670.21V819.432H669.21ZM669.21 850.391H668.21C668.21 851.695 668.4 852.838 668.903 853.691L669.764 853.182L670.625 852.673C670.39 852.276 670.21 851.558 670.21 850.391H669.21ZM669.764 853.182L668.909 853.699C669.375 854.471 670.012 855.052 670.828 855.37L671.192 854.439L671.555 853.507C671.207 853.371 670.892 853.115 670.62 852.664L669.764 853.182ZM671.192 854.439L670.856 855.381C671.57 855.636 672.331 855.759 673.131 855.759V854.759V853.759C672.538 853.759 672.007 853.668 671.528 853.497L671.192 854.439ZM673.131 854.759V855.759C673.686 855.759 674.196 855.72 674.655 855.635L674.473 854.652L674.291 853.669C673.983 853.726 673.599 853.759 673.131 853.759V854.759ZM674.473 854.652L674.655 855.635C675.04 855.564 675.344 855.506 675.564 855.462L675.368 854.482L675.172 853.501C674.966 853.542 674.673 853.598 674.291 853.669L674.473 854.652ZM675.368 854.482L674.391 854.695L675.542 859.958L676.519 859.744L677.495 859.531L676.345 854.268L675.368 854.482ZM676.519 859.744L676.16 858.811C675.865 858.924 675.4 859.054 674.738 859.191L674.942 860.17L675.146 861.149C675.847 861.003 676.434 860.848 676.878 860.678L676.519 859.744ZM674.942 860.17L674.718 859.196C674.129 859.331 673.353 859.413 672.371 859.426L672.385 860.426L672.399 861.426C673.463 861.411 674.391 861.323 675.165 861.145L674.942 860.17ZM672.385 860.426L672.368 859.426C670.825 859.452 669.404 859.178 668.094 858.613L667.698 859.531L667.301 860.449C668.889 861.134 670.593 861.457 672.402 861.426L672.385 860.426ZM667.698 859.531L668.094 858.613C666.819 858.063 665.796 857.22 665.007 856.069L664.182 856.634L663.357 857.199C664.358 858.661 665.678 859.749 667.301 860.449L667.698 859.531ZM664.182 856.634L665.007 856.069C664.251 854.965 663.84 853.534 663.84 851.712H662.84H661.84C661.84 853.838 662.323 855.688 663.357 857.199L664.182 856.634ZM662.84 851.712H663.84V819.432H662.84H661.84V851.712H662.84Z" fill="#CACACA" mask="url(#path-44-outside-14_9425_434)"/>
<circle cx="911.024" cy="838" r="48" fill="#FBFFFE" stroke="#CACACA" stroke-width="8"/>
<mask id="path-47-outside-15_9425_434" maskUnits="userSpaceOnUse" x="901.024" y="818" width="21" height="44" fill="black">
<rect fill="white" x="901.024" y="818" width="21" height="44"/>
<path d="M919.922 827.273V832.386H902.046V827.273H919.922ZM906.84 819.432H913.21V850.391C913.21 851.626 913.395 852.557 913.764 853.182C914.134 853.793 914.609 854.212 915.192 854.439C915.788 854.652 916.435 854.759 917.131 854.759C917.642 854.759 918.09 854.723 918.473 854.652C918.857 854.581 919.155 854.524 919.368 854.482L920.519 859.744C920.149 859.886 919.624 860.028 918.942 860.17C918.26 860.327 917.408 860.412 916.385 860.426C914.709 860.455 913.146 860.156 911.698 859.531C910.249 858.906 909.077 857.94 908.182 856.634C907.287 855.327 906.84 853.686 906.84 851.712V819.432Z"/>
</mask>
<path d="M919.922 827.273V832.386H902.046V827.273H919.922ZM906.84 819.432H913.21V850.391C913.21 851.626 913.395 852.557 913.764 853.182C914.134 853.793 914.609 854.212 915.192 854.439C915.788 854.652 916.435 854.759 917.131 854.759C917.642 854.759 918.09 854.723 918.473 854.652C918.857 854.581 919.155 854.524 919.368 854.482L920.519 859.744C920.149 859.886 919.624 860.028 918.942 860.17C918.26 860.327 917.408 860.412 916.385 860.426C914.709 860.455 913.146 860.156 911.698 859.531C910.249 858.906 909.077 857.94 908.182 856.634C907.287 855.327 906.84 853.686 906.84 851.712V819.432Z" fill="#1A1A2E"/>
<path d="M919.922 827.273H920.922V826.273H919.922V827.273ZM919.922 832.386V833.386H920.922V832.386H919.922ZM902.046 832.386H901.046V833.386H902.046V832.386ZM902.046 827.273V826.273H901.046V827.273H902.046ZM906.84 819.432V818.432H905.84V819.432H906.84ZM913.21 819.432H914.21V818.432H913.21V819.432ZM913.764 853.182L912.903 853.691L912.909 853.699L913.764 853.182ZM915.192 854.439L914.828 855.37L914.842 855.376L914.856 855.381L915.192 854.439ZM918.473 854.652L918.655 855.635V855.635L918.473 854.652ZM919.368 854.482L920.345 854.268L920.135 853.308L919.172 853.501L919.368 854.482ZM920.519 859.744L920.878 860.678L921.679 860.369L921.495 859.531L920.519 859.744ZM918.942 860.17L918.738 859.191L918.728 859.194L918.718 859.196L918.942 860.17ZM916.385 860.426L916.371 859.426L916.368 859.426L916.385 860.426ZM911.698 859.531L911.301 860.449H911.301L911.698 859.531ZM908.182 856.634L907.357 857.199V857.199L908.182 856.634ZM919.922 827.273H918.922V832.386H919.922H920.922V827.273H919.922ZM919.922 832.386V831.386H902.046V832.386V833.386H919.922V832.386ZM902.046 832.386H903.046V827.273H902.046H901.046V832.386H902.046ZM902.046 827.273V828.273H919.922V827.273V826.273H902.046V827.273ZM906.84 819.432V820.432H913.21V819.432V818.432H906.84V819.432ZM913.21 819.432H912.21V850.391H913.21H914.21V819.432H913.21ZM913.21 850.391H912.21C912.21 851.695 912.4 852.838 912.903 853.691L913.764 853.182L914.625 852.673C914.39 852.276 914.21 851.558 914.21 850.391H913.21ZM913.764 853.182L912.909 853.699C913.375 854.471 914.012 855.052 914.828 855.37L915.192 854.439L915.555 853.507C915.207 853.371 914.892 853.115 914.62 852.664L913.764 853.182ZM915.192 854.439L914.856 855.381C915.57 855.636 916.331 855.759 917.131 855.759V854.759V853.759C916.538 853.759 916.007 853.668 915.528 853.497L915.192 854.439ZM917.131 854.759V855.759C917.686 855.759 918.196 855.72 918.655 855.635L918.473 854.652L918.291 853.669C917.983 853.726 917.599 853.759 917.131 853.759V854.759ZM918.473 854.652L918.655 855.635C919.04 855.564 919.344 855.506 919.564 855.462L919.368 854.482L919.172 853.501C918.966 853.542 918.673 853.598 918.291 853.669L918.473 854.652ZM919.368 854.482L918.391 854.695L919.542 859.958L920.519 859.744L921.495 859.531L920.345 854.268L919.368 854.482ZM920.519 859.744L920.16 858.811C919.865 858.924 919.4 859.054 918.738 859.191L918.942 860.17L919.146 861.149C919.847 861.003 920.434 860.848 920.878 860.678L920.519 859.744ZM918.942 860.17L918.718 859.196C918.129 859.331 917.353 859.413 916.371 859.426L916.385 860.426L916.399 861.426C917.463 861.411 918.391 861.323 919.165 861.145L918.942 860.17ZM916.385 860.426L916.368 859.426C914.825 859.452 913.404 859.178 912.094 858.613L911.698 859.531L911.301 860.449C912.889 861.134 914.593 861.457 916.402 861.426L916.385 860.426ZM911.698 859.531L912.094 858.613C910.819 858.063 909.796 857.22 909.007 856.069L908.182 856.634L907.357 857.199C908.358 858.661 909.678 859.749 911.301 860.449L911.698 859.531ZM908.182 856.634L909.007 856.069C908.251 854.965 907.84 853.534 907.84 851.712H906.84H905.84C905.84 853.838 906.323 855.688 907.357 857.199L908.182 856.634ZM906.84 851.712H907.84V819.432H906.84H905.84V851.712H906.84Z" fill="#CACACA" mask="url(#path-47-outside-15_9425_434)"/>
<circle cx="661.024" cy="382" r="48" fill="#FBFFFE" stroke="#CACACA" stroke-width="8"/>
<mask id="path-50-outside-16_9425_434" maskUnits="userSpaceOnUse" x="637.024" y="359" width="48" height="46" fill="black">
<rect fill="white" x="637.024" y="359" width="48" height="46"/>
<path d="M638.895 360.364H646.885L660.777 394.284H661.288L675.18 360.364H683.17V404H676.906V372.423H676.501L663.632 403.936H658.433L645.564 372.402H645.159V404H638.895V360.364Z"/>
</mask>
<path d="M638.895 360.364H646.885L660.777 394.284H661.288L675.18 360.364H683.17V404H676.906V372.423H676.501L663.632 403.936H658.433L645.564 372.402H645.159V404H638.895V360.364Z" fill="#1A1A2E"/>
<path d="M638.895 360.364V359.364H637.895V360.364H638.895ZM646.885 360.364L647.81 359.985L647.556 359.364H646.885V360.364ZM660.777 394.284L659.851 394.663L660.106 395.284H660.777V394.284ZM661.288 394.284V395.284H661.959L662.213 394.663L661.288 394.284ZM675.18 360.364V359.364H674.509L674.255 359.985L675.18 360.364ZM683.17 360.364H684.17V359.364H683.17V360.364ZM683.17 404V405H684.17V404H683.17ZM676.906 404H675.906V405H676.906V404ZM676.906 372.423H677.906V371.423H676.906V372.423ZM676.501 372.423V371.423H675.829L675.575 372.045L676.501 372.423ZM663.632 403.936V404.936H664.304L664.558 404.314L663.632 403.936ZM658.433 403.936L657.507 404.314L657.761 404.936H658.433V403.936ZM645.564 372.402L646.49 372.024L646.236 371.402H645.564V372.402ZM645.159 372.402V371.402H644.159V372.402H645.159ZM645.159 404V405H646.159V404H645.159ZM638.895 404H637.895V405H638.895V404ZM638.895 360.364V361.364H646.885V360.364V359.364H638.895V360.364ZM646.885 360.364L645.959 360.743L659.851 394.663L660.777 394.284L661.702 393.905L647.81 359.985L646.885 360.364ZM660.777 394.284V395.284H661.288V394.284V393.284H660.777V394.284ZM661.288 394.284L662.213 394.663L676.106 360.743L675.18 360.364L674.255 359.985L660.363 393.905L661.288 394.284ZM675.18 360.364V361.364H683.17V360.364V359.364H675.18V360.364ZM683.17 360.364H682.17V404H683.17H684.17V360.364H683.17ZM683.17 404V403H676.906V404V405H683.17V404ZM676.906 404H677.906V372.423H676.906H675.906V404H676.906ZM676.906 372.423V371.423H676.501V372.423V373.423H676.906V372.423ZM676.501 372.423L675.575 372.045L662.706 403.558L663.632 403.936L664.558 404.314L677.427 372.801L676.501 372.423ZM663.632 403.936V402.936H658.433V403.936V404.936H663.632V403.936ZM658.433 403.936L659.359 403.558L646.49 372.024L645.564 372.402L644.638 372.78L657.507 404.314L658.433 403.936ZM645.564 372.402V371.402H645.159V372.402V373.402H645.564V372.402ZM645.159 372.402H644.159V404H645.159H646.159V372.402H645.159ZM645.159 404V403H638.895V404V405H645.159V404ZM638.895 404H639.895V360.364H638.895H637.895V404H638.895Z" fill="#CACACA" mask="url(#path-50-outside-16_9425_434)"/>
<circle cx="423.024" cy="838" r="48" fill="#FBFFFE" stroke="#CACACA" stroke-width="8"/>
<mask id="path-53-outside-17_9425_434" maskUnits="userSpaceOnUse" x="413.024" y="818" width="21" height="44" fill="black">
<rect fill="white" x="413.024" y="818" width="21" height="44"/>
<path d="M431.922 827.273V832.386H414.046V827.273H431.922ZM418.84 819.432H425.21V850.391C425.21 851.626 425.395 852.557 425.764 853.182C426.134 853.793 426.609 854.212 427.192 854.439C427.788 854.652 428.435 854.759 429.131 854.759C429.642 854.759 430.09 854.723 430.473 854.652C430.857 854.581 431.155 854.524 431.368 854.482L432.519 859.744C432.149 859.886 431.624 860.028 430.942 860.17C430.26 860.327 429.408 860.412 428.385 860.426C426.709 860.455 425.146 860.156 423.698 859.531C422.249 858.906 421.077 857.94 420.182 856.634C419.287 855.327 418.84 853.686 418.84 851.712V819.432Z"/>
</mask>
<path d="M431.922 827.273V832.386H414.046V827.273H431.922ZM418.84 819.432H425.21V850.391C425.21 851.626 425.395 852.557 425.764 853.182C426.134 853.793 426.609 854.212 427.192 854.439C427.788 854.652 428.435 854.759 429.131 854.759C429.642 854.759 430.09 854.723 430.473 854.652C430.857 854.581 431.155 854.524 431.368 854.482L432.519 859.744C432.149 859.886 431.624 860.028 430.942 860.17C430.26 860.327 429.408 860.412 428.385 860.426C426.709 860.455 425.146 860.156 423.698 859.531C422.249 858.906 421.077 857.94 420.182 856.634C419.287 855.327 418.84 853.686 418.84 851.712V819.432Z" fill="#1A1A2E"/>
<path d="M431.922 827.273H432.922V826.273H431.922V827.273ZM431.922 832.386V833.386H432.922V832.386H431.922ZM414.046 832.386H413.046V833.386H414.046V832.386ZM414.046 827.273V826.273H413.046V827.273H414.046ZM418.84 819.432V818.432H417.84V819.432H418.84ZM425.21 819.432H426.21V818.432H425.21V819.432ZM425.764 853.182L424.903 853.691L424.909 853.699L425.764 853.182ZM427.192 854.439L426.828 855.37L426.842 855.376L426.856 855.381L427.192 854.439ZM430.473 854.652L430.655 855.635V855.635L430.473 854.652ZM431.368 854.482L432.345 854.268L432.135 853.308L431.172 853.501L431.368 854.482ZM432.519 859.744L432.878 860.678L433.679 860.369L433.495 859.531L432.519 859.744ZM430.942 860.17L430.738 859.191L430.728 859.194L430.718 859.196L430.942 860.17ZM428.385 860.426L428.371 859.426L428.368 859.426L428.385 860.426ZM423.698 859.531L423.301 860.449H423.301L423.698 859.531ZM420.182 856.634L419.357 857.199V857.199L420.182 856.634ZM431.922 827.273H430.922V832.386H431.922H432.922V827.273H431.922ZM431.922 832.386V831.386H414.046V832.386V833.386H431.922V832.386ZM414.046 832.386H415.046V827.273H414.046H413.046V832.386H414.046ZM414.046 827.273V828.273H431.922V827.273V826.273H414.046V827.273ZM418.84 819.432V820.432H425.21V819.432V818.432H418.84V819.432ZM425.21 819.432H424.21V850.391H425.21H426.21V819.432H425.21ZM425.21 850.391H424.21C424.21 851.695 424.4 852.838 424.903 853.691L425.764 853.182L426.625 852.673C426.39 852.276 426.21 851.558 426.21 850.391H425.21ZM425.764 853.182L424.909 853.699C425.375 854.471 426.012 855.052 426.828 855.37L427.192 854.439L427.555 853.507C427.207 853.371 426.892 853.115 426.62 852.664L425.764 853.182ZM427.192 854.439L426.856 855.381C427.57 855.636 428.331 855.759 429.131 855.759V854.759V853.759C428.538 853.759 428.007 853.668 427.528 853.497L427.192 854.439ZM429.131 854.759V855.759C429.686 855.759 430.196 855.72 430.655 855.635L430.473 854.652L430.291 853.669C429.983 853.726 429.599 853.759 429.131 853.759V854.759ZM430.473 854.652L430.655 855.635C431.04 855.564 431.344 855.506 431.564 855.462L431.368 854.482L431.172 853.501C430.966 853.542 430.673 853.598 430.291 853.669L430.473 854.652ZM431.368 854.482L430.391 854.695L431.542 859.958L432.519 859.744L433.495 859.531L432.345 854.268L431.368 854.482ZM432.519 859.744L432.16 858.811C431.865 858.924 431.4 859.054 430.738 859.191L430.942 860.17L431.146 861.149C431.847 861.003 432.434 860.848 432.878 860.678L432.519 859.744ZM430.942 860.17L430.718 859.196C430.129 859.331 429.353 859.413 428.371 859.426L428.385 860.426L428.399 861.426C429.463 861.411 430.391 861.323 431.165 861.145L430.942 860.17ZM428.385 860.426L428.368 859.426C426.825 859.452 425.404 859.178 424.094 858.613L423.698 859.531L423.301 860.449C424.889 861.134 426.593 861.457 428.402 861.426L428.385 860.426ZM423.698 859.531L424.094 858.613C422.819 858.063 421.796 857.22 421.007 856.069L420.182 856.634L419.357 857.199C420.358 858.661 421.678 859.749 423.301 860.449L423.698 859.531ZM420.182 856.634L421.007 856.069C420.251 854.965 419.84 853.534 419.84 851.712H418.84H417.84C417.84 853.838 418.323 855.688 419.357 857.199L420.182 856.634ZM418.84 851.712H419.84V819.432H418.84H417.84V851.712H418.84Z" fill="#CACACA" mask="url(#path-53-outside-17_9425_434)"/>
</svg>
