<svg width="1448" height="1067" viewBox="0 -40 1448 1067" fill="none" xmlns="http://www.w3.org/2000/svg">
<path d="M1243.37 41V10.4545H1261.09V12.9602H1246.16V24.4595H1260.15V26.9652H1246.16V38.4943H1261.39V41H1243.37ZM1270.41 10.4545V41H1267.75V10.4545H1270.41ZM1286.7 41.4773C1284.56 41.4773 1282.71 40.9801 1281.15 39.9858C1279.59 38.9815 1278.38 37.5945 1277.52 35.8246C1276.68 34.0447 1276.26 31.9964 1276.26 29.6797C1276.26 27.3729 1276.68 25.3246 1277.52 23.5348C1278.38 21.7351 1279.56 20.3281 1281.06 19.3139C1282.57 18.2898 1284.31 17.7777 1286.29 17.7777C1287.54 17.7777 1288.73 18.0064 1289.89 18.4638C1291.04 18.9112 1292.08 19.6023 1292.99 20.5369C1293.91 21.4616 1294.65 22.63 1295.18 24.0419C1295.72 25.4439 1295.99 27.1044 1295.99 29.0234V30.3359H1278.09V27.9943H1293.27C1293.27 26.5227 1292.97 25.2003 1292.38 24.027C1291.79 22.8437 1290.97 21.9091 1289.92 21.223C1288.87 20.5369 1287.67 20.1939 1286.29 20.1939C1284.84 20.1939 1283.56 20.5817 1282.46 21.3572C1281.36 22.1328 1280.49 23.157 1279.86 24.4297C1279.25 25.7024 1278.94 27.0945 1278.93 28.6058V30.0078C1278.93 31.8274 1279.24 33.4183 1279.86 34.7805C1280.5 36.1328 1281.4 37.1818 1282.56 37.9276C1283.73 38.6733 1285.1 39.0462 1286.7 39.0462C1287.78 39.0462 1288.73 38.8771 1289.54 38.5391C1290.37 38.201 1291.06 37.7486 1291.62 37.1818C1292.18 36.6051 1292.61 35.9737 1292.9 35.2876L1295.42 36.108C1295.07 37.0724 1294.5 37.9624 1293.71 38.7777C1292.92 39.593 1291.94 40.2493 1290.75 40.7464C1289.58 41.2337 1288.23 41.4773 1286.7 41.4773ZM1318.87 18.0909L1310.51 41H1307.67L1299.31 18.0909H1302.18L1308.99 37.495H1309.19L1316 18.0909H1318.87ZM1329.77 41.522C1328.39 41.522 1327.12 41.2536 1325.98 40.7166C1324.84 40.1697 1323.93 39.3842 1323.25 38.3601C1322.58 37.326 1322.24 36.0732 1322.24 34.6016C1322.24 33.468 1322.45 32.5135 1322.88 31.7379C1323.31 30.9624 1323.91 30.326 1324.7 29.8288C1325.48 29.3317 1326.41 28.9389 1327.49 28.6506C1328.56 28.3622 1329.74 28.1385 1331.04 27.9794C1332.32 27.8203 1333.4 27.6811 1334.29 27.5618C1335.18 27.4425 1335.86 27.2536 1336.33 26.995C1336.8 26.7365 1337.03 26.3189 1337.03 25.7422V25.2053C1337.03 23.6442 1336.57 22.4162 1335.63 21.5213C1334.71 20.6165 1333.37 20.1641 1331.63 20.1641C1329.98 20.1641 1328.64 20.527 1327.59 21.2528C1326.56 21.9787 1325.83 22.8338 1325.41 23.8182L1322.89 22.9084C1323.41 21.6555 1324.13 20.6562 1325.04 19.9105C1325.96 19.1548 1326.98 18.6129 1328.11 18.2848C1329.25 17.9467 1330.4 17.7777 1331.56 17.7777C1332.43 17.7777 1333.34 17.892 1334.29 18.1207C1335.24 18.3494 1336.13 18.7472 1336.94 19.3139C1337.76 19.8707 1338.42 20.6513 1338.93 21.6555C1339.43 22.6499 1339.69 23.9126 1339.69 25.4439V41H1337.03V37.3757H1336.87C1336.55 38.0518 1336.08 38.7081 1335.45 39.3445C1334.83 39.9808 1334.04 40.5028 1333.1 40.9105C1332.15 41.3182 1331.04 41.522 1329.77 41.522ZM1330.13 39.0909C1331.54 39.0909 1332.76 38.7777 1333.8 38.1513C1334.83 37.5249 1335.63 36.6946 1336.18 35.6605C1336.75 34.6165 1337.03 33.468 1337.03 32.2152V28.9041C1336.83 29.093 1336.5 29.2621 1336.03 29.4112C1335.58 29.5604 1335.04 29.6946 1334.44 29.8139C1333.84 29.9233 1333.24 30.0178 1332.65 30.0973C1332.05 30.1768 1331.51 30.2464 1331.04 30.3061C1329.74 30.4652 1328.64 30.7138 1327.73 31.0518C1326.81 31.3899 1326.11 31.8572 1325.62 32.4538C1325.14 33.0405 1324.89 33.7962 1324.89 34.7209C1324.89 36.1129 1325.39 37.1918 1326.38 37.9574C1327.38 38.7131 1328.63 39.0909 1330.13 39.0909ZM1355.77 18.0909V20.4027H1344.84V18.0909H1355.77ZM1348.26 12.6023H1350.93V35.0192C1350.93 35.9737 1351.09 36.7244 1351.42 37.2713C1351.75 37.8082 1352.17 38.1911 1352.7 38.4197C1353.23 38.6385 1353.79 38.7479 1354.39 38.7479C1354.73 38.7479 1355.03 38.728 1355.28 38.6882C1355.53 38.6385 1355.75 38.5888 1355.94 38.5391L1356.5 40.9403C1356.25 41.0398 1355.93 41.1293 1355.55 41.2088C1355.17 41.2983 1354.7 41.343 1354.15 41.343C1353.17 41.343 1352.23 41.1293 1351.33 40.7017C1350.43 40.2741 1349.7 39.6378 1349.12 38.7926C1348.54 37.9474 1348.26 36.8984 1348.26 35.6456V12.6023ZM1361.83 41V18.0909H1364.5V41H1361.83ZM1363.19 14.1534C1362.64 14.1534 1362.18 13.9695 1361.79 13.6016C1361.4 13.2237 1361.21 12.7713 1361.21 12.2443C1361.21 11.7173 1361.4 11.2699 1361.79 10.902C1362.18 10.5241 1362.64 10.3352 1363.19 10.3352C1363.74 10.3352 1364.2 10.5241 1364.59 10.902C1364.98 11.2699 1365.17 11.7173 1365.17 12.2443C1365.17 12.7713 1364.98 13.2237 1364.59 13.6016C1364.2 13.9695 1363.74 14.1534 1363.19 14.1534ZM1380.43 41.4773C1378.45 41.4773 1376.7 40.9751 1375.18 39.9709C1373.67 38.9666 1372.48 37.5795 1371.63 35.8097C1370.77 34.0298 1370.35 31.9766 1370.35 29.6499C1370.35 27.3033 1370.77 25.2401 1371.63 23.4602C1372.48 21.6705 1373.67 20.2784 1375.18 19.2841C1376.7 18.2798 1378.45 17.7777 1380.43 17.7777C1382.41 17.7777 1384.15 18.2798 1385.66 19.2841C1387.17 20.2884 1388.36 21.6804 1389.21 23.4602C1390.08 25.2401 1390.51 27.3033 1390.51 29.6499C1390.51 31.9766 1390.08 34.0298 1389.23 35.8097C1388.37 37.5795 1387.18 38.9666 1385.66 39.9709C1384.15 40.9751 1382.41 41.4773 1380.43 41.4773ZM1380.43 39.0462C1382.02 39.0462 1383.37 38.6186 1384.47 37.7635C1385.57 36.9084 1386.41 35.7699 1386.98 34.348C1387.55 32.9261 1387.84 31.3601 1387.84 29.6499C1387.84 27.9396 1387.55 26.3686 1386.98 24.9368C1386.41 23.505 1385.57 22.3565 1384.47 21.4915C1383.37 20.6264 1382.02 20.1939 1380.43 20.1939C1378.85 20.1939 1377.5 20.6264 1376.39 21.4915C1375.28 22.3565 1374.44 23.505 1373.87 24.9368C1373.3 26.3686 1373.02 27.9396 1373.02 29.6499C1373.02 31.3601 1373.3 32.9261 1373.87 34.348C1374.44 35.7699 1375.28 36.9084 1376.39 37.7635C1377.49 38.6186 1378.84 39.0462 1380.43 39.0462ZM1398.99 26.6818V41H1396.34V18.0909H1398.92V21.6854H1399.16C1399.69 20.5121 1400.53 19.5724 1401.66 18.8665C1402.81 18.1506 1404.22 17.7926 1405.9 17.7926C1407.44 17.7926 1408.79 18.1158 1409.96 18.7621C1411.13 19.3984 1412.04 20.3381 1412.68 21.581C1413.34 22.8239 1413.67 24.3501 1413.67 26.1598V41H1411.01V26.3239C1411.01 24.4446 1410.49 22.9581 1409.43 21.8643C1408.39 20.7706 1406.99 20.2237 1405.23 20.2237C1404.02 20.2237 1402.96 20.4822 1402.02 20.9993C1401.09 21.5163 1400.35 22.2621 1399.8 23.2365C1399.26 24.201 1398.99 25.3494 1398.99 26.6818ZM1436.05 23.1172L1433.62 23.8033C1433.38 23.1172 1433.04 22.4957 1432.61 21.9389C1432.17 21.3821 1431.6 20.9396 1430.89 20.6115C1430.2 20.2834 1429.33 20.1193 1428.3 20.1193C1426.75 20.1193 1425.47 20.4872 1424.48 21.223C1423.48 21.9588 1422.99 22.9084 1422.99 24.0717C1422.99 25.0561 1423.33 25.8565 1424 26.473C1424.69 27.0795 1425.74 27.5618 1427.16 27.9197L1430.62 28.7699C1432.54 29.2372 1433.98 29.978 1434.93 30.9922C1435.9 32.0064 1436.38 33.2791 1436.38 34.8104C1436.38 36.103 1436.02 37.2514 1435.31 38.2557C1434.59 39.2599 1433.59 40.0504 1432.31 40.6271C1431.04 41.1939 1429.56 41.4773 1427.88 41.4773C1425.64 41.4773 1423.8 40.9751 1422.35 39.9709C1420.89 38.9567 1419.96 37.495 1419.56 35.5859L1422.11 34.9595C1422.44 36.3217 1423.08 37.3509 1424.03 38.0469C1425 38.7429 1426.26 39.0909 1427.83 39.0909C1429.59 39.0909 1431 38.6982 1432.06 37.9126C1433.11 37.1172 1433.64 36.1229 1433.64 34.9297C1433.64 34.005 1433.33 33.2294 1432.71 32.603C1432.09 31.9666 1431.16 31.4993 1429.91 31.201L1426.16 30.3061C1424.18 29.8288 1422.7 29.0732 1421.75 28.0391C1420.79 27.005 1420.32 25.7223 1420.32 24.1911C1420.32 22.9283 1420.66 21.8196 1421.35 20.8651C1422.03 19.9006 1422.98 19.1449 1424.18 18.598C1425.38 18.0511 1426.76 17.7777 1428.3 17.7777C1430.39 17.7777 1432.07 18.255 1433.32 19.2095C1434.59 20.1541 1435.5 21.4567 1436.05 23.1172Z" fill="black"/>
<path d="M402 84V1019H26C16.0589 1019 8 1010.94 8 1001V102C8 92.0588 16.0589 84 26 84H402Z" fill="#EDE8E0" fill-opacity="0.79" stroke="black" stroke-width="16"/>
<rect x="386" y="84" width="394" height="630" fill="#EDE8E0" stroke="black" stroke-width="16"/>
<path d="M1157 84C1166.94 84 1175 92.0589 1175 102V409H781V84H1157Z" fill="#EDE8E0" stroke="black" stroke-width="16"/>
<rect x="781" y="393" width="394" height="325" fill="#EDE8E0" stroke="black" stroke-width="16"/>
<path d="M1175 694V1001C1175 1010.94 1166.94 1019 1157 1019H781V694H1175Z" fill="#EDE8E0" stroke="black" stroke-width="16"/>
<rect x="386" y="694" width="394" height="325" fill="#EDE8E0" stroke="black" stroke-width="16"/>
<path d="M514.217 293.646H506.462C506.163 291.989 505.608 290.531 504.796 289.271C503.984 288.012 502.99 286.943 501.813 286.065C500.637 285.186 499.319 284.523 497.861 284.076C496.419 283.629 494.886 283.405 493.262 283.405C490.329 283.405 487.702 284.142 485.382 285.617C483.079 287.092 481.256 289.255 479.913 292.105C478.588 294.955 477.925 298.436 477.925 302.545C477.925 306.688 478.588 310.185 479.913 313.036C481.256 315.886 483.087 318.04 485.407 319.499C487.727 320.957 490.337 321.686 493.237 321.686C494.845 321.686 496.369 321.471 497.811 321.04C499.269 320.592 500.587 319.938 501.763 319.076C502.94 318.214 503.934 317.162 504.746 315.919C505.575 314.66 506.147 313.218 506.462 311.594L514.217 311.619C513.803 314.121 512.999 316.424 511.806 318.529C510.629 320.617 509.113 322.424 507.257 323.948C505.418 325.456 503.313 326.625 500.943 327.453C498.573 328.282 495.988 328.696 493.187 328.696C488.779 328.696 484.852 327.652 481.405 325.564C477.958 323.459 475.24 320.451 473.251 316.54C471.279 312.629 470.293 307.964 470.293 302.545C470.293 297.11 471.288 292.445 473.276 288.55C475.265 284.639 477.983 281.64 481.43 279.552C484.877 277.447 488.796 276.395 493.187 276.395C495.889 276.395 498.408 276.784 500.744 277.563C503.097 278.326 505.21 279.452 507.083 280.944C508.956 282.419 510.505 284.225 511.731 286.363C512.958 288.484 513.786 290.912 514.217 293.646ZM530.244 277.091V328H522.812V277.091H530.244ZM551.355 328.845C548.936 328.845 546.748 328.398 544.793 327.503C542.837 326.591 541.288 325.274 540.144 323.55C539.017 321.827 538.454 319.714 538.454 317.212C538.454 315.057 538.868 313.284 539.697 311.892C540.525 310.5 541.644 309.398 543.052 308.586C544.461 307.774 546.035 307.161 547.775 306.746C549.516 306.332 551.289 306.017 553.095 305.802C555.382 305.537 557.238 305.321 558.663 305.156C560.088 304.973 561.124 304.683 561.771 304.286C562.417 303.888 562.74 303.241 562.74 302.347V302.173C562.74 300.002 562.127 298.32 560.9 297.126C559.691 295.933 557.884 295.337 555.481 295.337C552.979 295.337 551.007 295.892 549.565 297.002C548.14 298.096 547.154 299.314 546.607 300.656L539.622 299.065C540.451 296.745 541.66 294.873 543.251 293.447C544.859 292.006 546.707 290.962 548.795 290.315C550.883 289.652 553.079 289.321 555.382 289.321C556.907 289.321 558.522 289.503 560.229 289.868C561.953 290.216 563.56 290.862 565.052 291.807C566.56 292.751 567.794 294.102 568.756 295.859C569.717 297.599 570.197 299.861 570.197 302.645V328H562.939V322.78H562.641C562.16 323.741 561.439 324.686 560.478 325.614C559.517 326.542 558.282 327.312 556.774 327.925C555.266 328.539 553.46 328.845 551.355 328.845ZM552.971 322.879C555.026 322.879 556.782 322.473 558.241 321.661C559.716 320.849 560.834 319.789 561.597 318.479C562.375 317.154 562.765 315.737 562.765 314.229V309.307C562.5 309.572 561.986 309.821 561.224 310.053C560.478 310.268 559.624 310.459 558.663 310.624C557.702 310.773 556.766 310.914 555.854 311.047C554.943 311.163 554.181 311.262 553.567 311.345C552.126 311.527 550.808 311.834 549.615 312.265C548.438 312.696 547.494 313.317 546.781 314.129C546.085 314.925 545.737 315.985 545.737 317.311C545.737 319.151 546.417 320.543 547.775 321.487C549.134 322.415 550.866 322.879 552.971 322.879ZM580.097 328V289.818H587.281V295.884H587.679C588.375 293.829 589.601 292.213 591.358 291.036C593.131 289.843 595.136 289.246 597.373 289.246C597.837 289.246 598.384 289.263 599.014 289.296C599.66 289.329 600.166 289.371 600.53 289.42V296.53C600.232 296.447 599.702 296.356 598.939 296.256C598.177 296.14 597.415 296.082 596.652 296.082C594.896 296.082 593.33 296.455 591.954 297.201C590.595 297.93 589.518 298.949 588.723 300.259C587.927 301.551 587.53 303.026 587.53 304.683V328H580.097ZM606.962 328V289.818H614.395V328H606.962ZM610.716 283.927C609.423 283.927 608.313 283.496 607.385 282.634C606.473 281.756 606.018 280.712 606.018 279.502C606.018 278.276 606.473 277.232 607.385 276.37C608.313 275.492 609.423 275.053 610.716 275.053C612.008 275.053 613.11 275.492 614.022 276.37C614.95 277.232 615.414 278.276 615.414 279.502C615.414 280.712 614.95 281.756 614.022 282.634C613.11 283.496 612.008 283.927 610.716 283.927ZM642.565 289.818V295.784H620.988V289.818H642.565ZM626.905 328V285.393C626.905 283.007 627.427 281.027 628.471 279.452C629.515 277.862 630.898 276.677 632.622 275.898C634.345 275.102 636.218 274.705 638.24 274.705C639.731 274.705 641.007 274.829 642.068 275.077C643.129 275.309 643.916 275.525 644.429 275.724L642.689 281.739C642.341 281.64 641.894 281.524 641.347 281.391C640.8 281.242 640.137 281.168 639.358 281.168C637.552 281.168 636.259 281.615 635.481 282.51C634.718 283.405 634.337 284.697 634.337 286.388V328H626.905ZM654.932 342.318C653.822 342.318 652.811 342.227 651.899 342.045C650.988 341.879 650.308 341.697 649.861 341.498L651.651 335.408C653.01 335.772 654.219 335.93 655.28 335.88C656.341 335.83 657.277 335.433 658.089 334.687C658.917 333.941 659.647 332.723 660.276 331.033L661.196 328.497L647.226 289.818H655.18L664.85 319.449H665.248L674.918 289.818H682.897L667.162 333.096C666.433 335.085 665.505 336.767 664.378 338.142C663.251 339.534 661.909 340.578 660.351 341.274C658.793 341.97 656.987 342.318 654.932 342.318ZM697.159 321.04L696.786 323.749C696.538 325.738 696.115 327.809 695.519 329.964C694.939 332.135 694.334 334.148 693.704 336.004C693.091 337.86 692.585 339.335 692.188 340.429H686.918C687.133 339.402 687.432 338.009 687.813 336.253C688.194 334.513 688.567 332.566 688.931 330.411C689.296 328.257 689.569 326.061 689.752 323.824L690 321.04H697.159ZM452.138 387.545C452.138 392.981 451.143 397.654 449.155 401.565C447.166 405.46 444.44 408.459 440.976 410.564C437.529 412.652 433.61 413.696 429.219 413.696C424.81 413.696 420.875 412.652 417.411 410.564C413.964 408.459 411.246 405.451 409.258 401.54C407.269 397.629 406.275 392.964 406.275 387.545C406.275 382.11 407.269 377.445 409.258 373.55C411.246 369.639 413.964 366.64 417.411 364.552C420.875 362.447 424.81 361.395 429.219 361.395C433.61 361.395 437.529 362.447 440.976 364.552C444.44 366.64 447.166 369.639 449.155 373.55C451.143 377.445 452.138 382.11 452.138 387.545ZM444.531 387.545C444.531 383.402 443.86 379.914 442.518 377.08C441.192 374.23 439.369 372.076 437.049 370.617C434.745 369.142 432.135 368.405 429.219 368.405C426.285 368.405 423.667 369.142 421.363 370.617C419.06 372.076 417.237 374.23 415.895 377.08C414.569 379.914 413.906 383.402 413.906 387.545C413.906 391.688 414.569 395.185 415.895 398.036C417.237 400.869 419.06 403.024 421.363 404.499C423.667 405.957 426.285 406.686 429.219 406.686C432.135 406.686 434.745 405.957 437.049 404.499C439.369 403.024 441.192 400.869 442.518 398.036C443.86 395.185 444.531 391.688 444.531 387.545ZM461.118 413V374.818H468.301V380.884H468.699C469.395 378.829 470.622 377.213 472.378 376.036C474.151 374.843 476.157 374.246 478.394 374.246C478.858 374.246 479.405 374.263 480.034 374.296C480.681 374.329 481.186 374.371 481.551 374.42V381.53C481.252 381.447 480.722 381.356 479.96 381.256C479.198 381.14 478.435 381.082 477.673 381.082C475.916 381.082 474.35 381.455 472.975 382.201C471.616 382.93 470.539 383.949 469.743 385.259C468.948 386.551 468.55 388.026 468.55 389.683V413H461.118ZM502.624 428.114C499.591 428.114 496.981 427.716 494.794 426.92C492.623 426.125 490.85 425.073 489.474 423.763C488.099 422.454 487.071 421.021 486.392 419.463L492.78 416.828C493.228 417.557 493.824 418.328 494.57 419.14C495.332 419.969 496.36 420.673 497.653 421.253C498.962 421.833 500.644 422.123 502.699 422.123C505.516 422.123 507.844 421.435 509.684 420.06C511.523 418.701 512.443 416.53 512.443 413.547V406.04H511.971C511.523 406.852 510.877 407.755 510.032 408.749C509.203 409.744 508.06 410.605 506.601 411.335C505.143 412.064 503.246 412.428 500.909 412.428C497.893 412.428 495.175 411.724 492.756 410.315C490.353 408.89 488.447 406.794 487.038 404.026C485.646 401.242 484.95 397.82 484.95 393.76C484.95 389.7 485.638 386.22 487.013 383.32C488.405 380.42 490.311 378.199 492.731 376.658C495.15 375.1 497.893 374.321 500.959 374.321C503.328 374.321 505.242 374.719 506.701 375.514C508.159 376.293 509.294 377.205 510.106 378.249C510.935 379.293 511.573 380.212 512.02 381.008H512.567V374.818H519.851V413.845C519.851 417.126 519.088 419.819 517.564 421.924C516.039 424.029 513.976 425.586 511.374 426.597C508.789 427.608 505.872 428.114 502.624 428.114ZM502.55 406.263C504.687 406.263 506.494 405.766 507.969 404.772C509.46 403.761 510.587 402.319 511.349 400.447C512.128 398.558 512.518 396.295 512.518 393.661C512.518 391.092 512.136 388.83 511.374 386.874C510.612 384.919 509.493 383.394 508.018 382.3C506.543 381.19 504.72 380.635 502.55 380.635C500.312 380.635 498.448 381.215 496.956 382.375C495.465 383.518 494.338 385.076 493.576 387.048C492.83 389.02 492.457 391.224 492.457 393.661C492.457 396.163 492.838 398.359 493.601 400.248C494.363 402.137 495.49 403.612 496.981 404.673C498.489 405.733 500.345 406.263 502.55 406.263ZM540.93 413.845C538.511 413.845 536.323 413.398 534.368 412.503C532.412 411.591 530.863 410.274 529.719 408.55C528.592 406.827 528.029 404.714 528.029 402.212C528.029 400.057 528.443 398.284 529.272 396.892C530.1 395.5 531.219 394.398 532.628 393.586C534.036 392.774 535.611 392.161 537.351 391.746C539.091 391.332 540.864 391.017 542.67 390.802C544.957 390.537 546.813 390.321 548.238 390.156C549.664 389.973 550.699 389.683 551.346 389.286C551.992 388.888 552.315 388.241 552.315 387.347V387.173C552.315 385.002 551.702 383.32 550.476 382.126C549.266 380.933 547.46 380.337 545.057 380.337C542.554 380.337 540.582 380.892 539.14 382.002C537.715 383.096 536.729 384.314 536.182 385.656L529.197 384.065C530.026 381.745 531.236 379.873 532.827 378.447C534.434 377.006 536.282 375.962 538.37 375.315C540.458 374.652 542.654 374.321 544.957 374.321C546.482 374.321 548.098 374.503 549.805 374.868C551.528 375.216 553.135 375.862 554.627 376.807C556.135 377.751 557.37 379.102 558.331 380.859C559.292 382.599 559.773 384.861 559.773 387.645V413H552.514V407.78H552.216C551.735 408.741 551.014 409.686 550.053 410.614C549.092 411.542 547.857 412.312 546.349 412.925C544.841 413.539 543.035 413.845 540.93 413.845ZM542.546 407.879C544.601 407.879 546.358 407.473 547.816 406.661C549.291 405.849 550.409 404.789 551.172 403.479C551.951 402.154 552.34 400.737 552.34 399.229V394.307C552.075 394.572 551.561 394.821 550.799 395.053C550.053 395.268 549.2 395.459 548.238 395.624C547.277 395.773 546.341 395.914 545.43 396.047C544.518 396.163 543.756 396.262 543.143 396.345C541.701 396.527 540.383 396.834 539.19 397.265C538.014 397.696 537.069 398.317 536.356 399.129C535.66 399.925 535.312 400.985 535.312 402.311C535.312 404.151 535.992 405.543 537.351 406.487C538.71 407.415 540.441 407.879 542.546 407.879ZM577.105 390.33V413H569.672V374.818H576.806V381.033H577.279C578.157 379.011 579.533 377.387 581.405 376.161C583.294 374.934 585.672 374.321 588.539 374.321C591.141 374.321 593.42 374.868 595.375 375.962C597.331 377.039 598.847 378.646 599.924 380.784C601.002 382.922 601.54 385.565 601.54 388.714V413H594.108V389.609C594.108 386.841 593.387 384.679 591.945 383.121C590.503 381.546 588.523 380.759 586.004 380.759C584.28 380.759 582.748 381.132 581.405 381.878C580.079 382.624 579.027 383.717 578.248 385.159C577.486 386.584 577.105 388.308 577.105 390.33ZM611.508 413V374.818H618.941V413H611.508ZM615.262 368.927C613.969 368.927 612.859 368.496 611.931 367.634C611.019 366.756 610.564 365.712 610.564 364.502C610.564 363.276 611.019 362.232 611.931 361.37C612.859 360.492 613.969 360.053 615.262 360.053C616.554 360.053 617.656 360.492 618.568 361.37C619.496 362.232 619.96 363.276 619.96 364.502C619.96 365.712 619.496 366.756 618.568 367.634C617.656 368.496 616.554 368.927 615.262 368.927ZM628.144 413V407.904L648.826 381.629V381.281H628.816V374.818H658.098V380.237L638.212 406.189V406.537H658.794V413H628.144ZM682.925 413.771C679.163 413.771 675.923 412.967 673.206 411.359C670.504 409.735 668.416 407.457 666.941 404.523C665.483 401.574 664.754 398.118 664.754 394.158C664.754 390.247 665.483 386.8 666.941 383.817C668.416 380.834 670.471 378.505 673.106 376.832C675.758 375.158 678.857 374.321 682.403 374.321C684.557 374.321 686.645 374.677 688.667 375.39C690.689 376.103 692.504 377.221 694.111 378.746C695.719 380.27 696.986 382.251 697.914 384.687C698.842 387.106 699.306 390.048 699.306 393.511V396.146H668.955V390.578H692.023C692.023 388.623 691.625 386.891 690.83 385.383C690.034 383.858 688.916 382.657 687.474 381.778C686.049 380.9 684.375 380.461 682.453 380.461C680.365 380.461 678.542 380.975 676.984 382.002C675.443 383.013 674.25 384.339 673.404 385.979C672.576 387.603 672.162 389.368 672.162 391.274V395.624C672.162 398.176 672.609 400.347 673.504 402.137C674.415 403.927 675.683 405.294 677.307 406.239C678.931 407.167 680.829 407.631 683 407.631C684.408 407.631 685.693 407.432 686.853 407.034C688.013 406.62 689.015 406.007 689.86 405.195C690.706 404.383 691.352 403.38 691.799 402.187L698.834 403.455C698.271 405.526 697.26 407.341 695.801 408.898C694.36 410.44 692.545 411.641 690.358 412.503C688.187 413.348 685.709 413.771 682.925 413.771ZM740.894 413.721C737.48 413.721 734.538 413.099 732.069 411.857C729.617 410.614 727.727 408.923 726.402 406.786C725.076 404.631 724.413 402.195 724.413 399.477C724.413 397.406 724.844 395.566 725.706 393.959C726.567 392.335 727.769 390.835 729.31 389.46C730.851 388.084 732.633 386.7 734.654 385.308L742.858 379.516C744.25 378.605 745.335 377.644 746.114 376.633C746.893 375.605 747.282 374.338 747.282 372.83C747.282 371.636 746.769 370.493 745.741 369.399C744.714 368.305 743.338 367.759 741.615 367.759C740.422 367.759 739.369 368.049 738.458 368.629C737.563 369.209 736.859 369.954 736.345 370.866C735.848 371.761 735.599 372.705 735.599 373.7C735.599 374.86 735.914 376.028 736.544 377.205C737.19 378.381 738.019 379.599 739.029 380.859C740.04 382.102 741.101 383.394 742.211 384.737L765.851 413H757.449L737.886 390.006C736.245 388.067 734.721 386.245 733.312 384.538C731.904 382.814 730.76 381.074 729.882 379.317C729.02 377.544 728.589 375.63 728.589 373.575C728.589 371.239 729.119 369.167 730.18 367.361C731.257 365.538 732.757 364.113 734.679 363.085C736.602 362.058 738.855 361.544 741.441 361.544C744.059 361.544 746.305 362.058 748.177 363.085C750.066 364.096 751.516 365.447 752.527 367.137C753.555 368.811 754.069 370.642 754.069 372.631C754.069 375.05 753.464 377.188 752.254 379.044C751.061 380.884 749.412 382.574 747.307 384.115L737.091 391.647C735.102 393.105 733.718 394.547 732.939 395.972C732.177 397.381 731.796 398.483 731.796 399.278C731.796 400.737 732.169 402.087 732.914 403.33C733.677 404.573 734.737 405.567 736.096 406.313C737.472 407.059 739.079 407.432 740.919 407.432C742.808 407.432 744.647 407.026 746.437 406.214C748.243 405.385 749.876 404.2 751.334 402.659C752.809 401.118 753.977 399.27 754.839 397.116C755.701 394.961 756.132 392.55 756.132 389.882H762.843C762.843 393.163 762.471 395.939 761.725 398.21C760.979 400.463 760.076 402.303 759.015 403.728C757.971 405.137 756.985 406.239 756.057 407.034C755.759 407.299 755.477 407.564 755.212 407.83C754.947 408.095 754.665 408.36 754.367 408.625C752.643 410.365 750.555 411.649 748.103 412.478C745.667 413.307 743.264 413.721 740.894 413.721ZM441.275 498V447.091H459.421C463.382 447.091 466.663 447.812 469.265 449.254C471.867 450.695 473.814 452.667 475.106 455.17C476.399 457.656 477.045 460.456 477.045 463.572C477.045 466.704 476.391 469.521 475.081 472.023C473.789 474.509 471.833 476.481 469.215 477.94C466.613 479.381 463.34 480.102 459.396 480.102H446.917V473.589H458.7C461.202 473.589 463.233 473.159 464.79 472.297C466.348 471.419 467.492 470.225 468.221 468.717C468.95 467.209 469.314 465.494 469.314 463.572C469.314 461.649 468.95 459.942 468.221 458.451C467.492 456.96 466.34 455.791 464.765 454.946C463.208 454.101 461.153 453.678 458.601 453.678H448.956V498H441.275ZM485.453 498V459.818H492.637V465.884H493.035C493.731 463.829 494.958 462.213 496.714 461.036C498.487 459.843 500.493 459.246 502.73 459.246C503.194 459.246 503.741 459.263 504.37 459.296C505.017 459.329 505.522 459.371 505.887 459.42V466.53C505.588 466.447 505.058 466.356 504.296 466.256C503.533 466.14 502.771 466.082 502.009 466.082C500.252 466.082 498.686 466.455 497.311 467.201C495.952 467.93 494.875 468.949 494.079 470.259C493.284 471.551 492.886 473.026 492.886 474.683V498H485.453ZM512.319 498V459.818H519.751V498H512.319ZM516.072 453.927C514.78 453.927 513.669 453.496 512.741 452.634C511.83 451.756 511.374 450.712 511.374 449.502C511.374 448.276 511.83 447.232 512.741 446.37C513.669 445.492 514.78 445.053 516.072 445.053C517.365 445.053 518.467 445.492 519.378 446.37C520.306 447.232 520.77 448.276 520.77 449.502C520.77 450.712 520.306 451.756 519.378 452.634C518.467 453.496 517.365 453.927 516.072 453.927ZM545.833 498.771C542.254 498.771 539.13 497.95 536.462 496.31C533.794 494.669 531.722 492.374 530.248 489.424C528.773 486.474 528.035 483.027 528.035 479.083C528.035 475.122 528.773 471.659 530.248 468.692C531.722 465.726 533.794 463.423 536.462 461.782C539.13 460.141 542.254 459.321 545.833 459.321C549.413 459.321 552.537 460.141 555.205 461.782C557.873 463.423 559.944 465.726 561.419 468.692C562.894 471.659 563.632 475.122 563.632 479.083C563.632 483.027 562.894 486.474 561.419 489.424C559.944 492.374 557.873 494.669 555.205 496.31C552.537 497.95 549.413 498.771 545.833 498.771ZM545.858 492.531C548.178 492.531 550.101 491.918 551.625 490.692C553.15 489.465 554.277 487.833 555.006 485.795C555.752 483.756 556.125 481.511 556.125 479.058C556.125 476.622 555.752 474.385 555.006 472.347C554.277 470.292 553.15 468.643 551.625 467.4C550.101 466.157 548.178 465.536 545.858 465.536C543.522 465.536 541.583 466.157 540.042 467.4C538.517 468.643 537.382 470.292 536.636 472.347C535.907 474.385 535.542 476.622 535.542 479.058C535.542 481.511 535.907 483.756 536.636 485.795C537.382 487.833 538.517 489.465 540.042 490.692C541.583 491.918 543.522 492.531 545.858 492.531ZM571.928 498V459.818H579.112V465.884H579.51C580.206 463.829 581.432 462.213 583.189 461.036C584.962 459.843 586.967 459.246 589.204 459.246C589.668 459.246 590.215 459.263 590.845 459.296C591.491 459.329 591.997 459.371 592.361 459.42V466.53C592.063 466.447 591.533 466.356 590.77 466.256C590.008 466.14 589.246 466.082 588.483 466.082C586.727 466.082 585.161 466.455 583.785 467.201C582.426 467.93 581.349 468.949 580.554 470.259C579.758 471.551 579.361 473.026 579.361 474.683V498H571.928ZM598.793 498V459.818H606.226V498H598.793ZM602.547 453.927C601.254 453.927 600.144 453.496 599.216 452.634C598.304 451.756 597.849 450.712 597.849 449.502C597.849 448.276 598.304 447.232 599.216 446.37C600.144 445.492 601.254 445.053 602.547 445.053C603.839 445.053 604.942 445.492 605.853 446.37C606.781 447.232 607.245 448.276 607.245 449.502C607.245 450.712 606.781 451.756 605.853 452.634C604.942 453.496 603.839 453.927 602.547 453.927ZM634.048 459.818V465.784H613.192V459.818H634.048ZM618.785 450.67H626.218V486.789C626.218 488.231 626.433 489.316 626.864 490.045C627.295 490.758 627.85 491.247 628.53 491.512C629.226 491.761 629.98 491.885 630.792 491.885C631.388 491.885 631.91 491.844 632.358 491.761C632.805 491.678 633.153 491.612 633.402 491.562L634.744 497.702C634.313 497.867 633.7 498.033 632.905 498.199C632.109 498.381 631.115 498.481 629.922 498.497C627.966 498.53 626.143 498.182 624.453 497.453C622.763 496.724 621.395 495.597 620.351 494.072C619.307 492.548 618.785 490.634 618.785 488.33V450.67ZM642.27 498V459.818H649.702V498H642.27ZM646.023 453.927C644.731 453.927 643.621 453.496 642.692 452.634C641.781 451.756 641.325 450.712 641.325 449.502C641.325 448.276 641.781 447.232 642.692 446.37C643.621 445.492 644.731 445.053 646.023 445.053C647.316 445.053 648.418 445.492 649.33 446.37C650.258 447.232 650.722 448.276 650.722 449.502C650.722 450.712 650.258 451.756 649.33 452.634C648.418 453.496 647.316 453.927 646.023 453.927ZM658.906 498V492.904L679.588 466.629V466.281H659.577V459.818H688.86V465.237L668.974 491.189V491.537H689.556V498H658.906ZM713.687 498.771C709.925 498.771 706.685 497.967 703.967 496.359C701.266 494.735 699.178 492.457 697.703 489.523C696.245 486.574 695.516 483.118 695.516 479.158C695.516 475.247 696.245 471.8 697.703 468.817C699.178 465.834 701.233 463.505 703.868 461.832C706.519 460.158 709.618 459.321 713.165 459.321C715.319 459.321 717.407 459.677 719.429 460.39C721.451 461.103 723.265 462.221 724.873 463.746C726.48 465.27 727.748 467.251 728.676 469.687C729.604 472.106 730.068 475.048 730.068 478.511V481.146H699.717V475.578H722.785C722.785 473.623 722.387 471.891 721.592 470.383C720.796 468.858 719.678 467.657 718.236 466.778C716.811 465.9 715.137 465.461 713.214 465.461C711.126 465.461 709.304 465.975 707.746 467.002C706.205 468.013 705.011 469.339 704.166 470.979C703.338 472.603 702.923 474.368 702.923 476.274V480.624C702.923 483.176 703.371 485.347 704.266 487.137C705.177 488.927 706.445 490.294 708.069 491.239C709.693 492.167 711.59 492.631 713.761 492.631C715.17 492.631 716.454 492.432 717.614 492.034C718.774 491.62 719.777 491.007 720.622 490.195C721.467 489.383 722.114 488.38 722.561 487.187L729.596 488.455C729.032 490.526 728.022 492.341 726.563 493.898C725.121 495.44 723.307 496.641 721.119 497.503C718.948 498.348 716.471 498.771 713.687 498.771Z" fill="black"/>
<path d="M911.645 264V213.091H929.791C933.752 213.091 937.033 213.812 939.635 215.254C942.237 216.695 944.184 218.667 945.476 221.17C946.769 223.656 947.415 226.456 947.415 229.572C947.415 232.704 946.761 235.521 945.452 238.023C944.159 240.509 942.204 242.481 939.585 243.94C936.983 245.381 933.71 246.102 929.766 246.102H917.288V239.589H929.07C931.573 239.589 933.603 239.159 935.16 238.297C936.718 237.419 937.862 236.225 938.591 234.717C939.32 233.209 939.685 231.494 939.685 229.572C939.685 227.649 939.32 225.942 938.591 224.451C937.862 222.96 936.71 221.791 935.136 220.946C933.578 220.101 931.523 219.678 928.971 219.678H919.326V264H911.645ZM963.256 213.091V264H955.824V213.091H963.256ZM984.367 264.845C981.947 264.845 979.76 264.398 977.804 263.503C975.849 262.591 974.299 261.274 973.156 259.55C972.029 257.827 971.465 255.714 971.465 253.212C971.465 251.057 971.88 249.284 972.708 247.892C973.537 246.5 974.656 245.398 976.064 244.586C977.473 243.774 979.047 243.161 980.787 242.746C982.527 242.332 984.3 242.017 986.107 241.802C988.394 241.537 990.25 241.321 991.675 241.156C993.1 240.973 994.136 240.683 994.782 240.286C995.429 239.888 995.752 239.241 995.752 238.347V238.173C995.752 236.002 995.139 234.32 993.912 233.126C992.702 231.933 990.896 231.337 988.493 231.337C985.991 231.337 984.019 231.892 982.577 233.002C981.152 234.096 980.166 235.314 979.619 236.656L972.634 235.065C973.462 232.745 974.672 230.873 976.263 229.447C977.871 228.006 979.718 226.962 981.806 226.315C983.894 225.652 986.09 225.321 988.394 225.321C989.918 225.321 991.534 225.503 993.241 225.868C994.965 226.216 996.572 226.862 998.063 227.807C999.572 228.751 1000.81 230.102 1001.77 231.859C1002.73 233.599 1003.21 235.861 1003.21 238.645V264H995.951V258.78H995.652C995.172 259.741 994.451 260.686 993.49 261.614C992.528 262.542 991.294 263.312 989.786 263.925C988.278 264.539 986.471 264.845 984.367 264.845ZM985.983 258.879C988.037 258.879 989.794 258.473 991.252 257.661C992.727 256.849 993.846 255.789 994.608 254.479C995.387 253.154 995.777 251.737 995.777 250.229V245.307C995.511 245.572 994.998 245.821 994.235 246.053C993.49 246.268 992.636 246.459 991.675 246.624C990.714 246.773 989.777 246.914 988.866 247.047C987.955 247.163 987.192 247.262 986.579 247.345C985.137 247.527 983.82 247.834 982.627 248.265C981.45 248.696 980.505 249.317 979.793 250.129C979.097 250.925 978.749 251.985 978.749 253.311C978.749 255.151 979.428 256.543 980.787 257.487C982.146 258.415 983.878 258.879 985.983 258.879ZM1020.54 241.33V264H1013.11V225.818H1020.24V232.033H1020.72C1021.59 230.011 1022.97 228.387 1024.84 227.161C1026.73 225.934 1029.11 225.321 1031.98 225.321C1034.58 225.321 1036.86 225.868 1038.81 226.962C1040.77 228.039 1042.28 229.646 1043.36 231.784C1044.44 233.922 1044.98 236.565 1044.98 239.714V264H1037.54V240.609C1037.54 237.841 1036.82 235.679 1035.38 234.121C1033.94 232.546 1031.96 231.759 1029.44 231.759C1027.72 231.759 1026.18 232.132 1024.84 232.878C1023.52 233.624 1022.46 234.717 1021.68 236.159C1020.92 237.584 1020.54 239.308 1020.54 241.33Z" fill="black"/>
<path d="M863.849 566V515.091H881.995C885.939 515.091 889.212 515.77 891.814 517.129C894.432 518.488 896.388 520.369 897.681 522.772C898.973 525.158 899.619 527.918 899.619 531.05C899.619 534.165 898.965 536.908 897.656 539.278C896.363 541.631 894.408 543.462 891.789 544.771C889.187 546.08 885.914 546.735 881.97 546.735H868.224V540.123H881.274C883.76 540.123 885.782 539.767 887.34 539.054C888.914 538.341 890.066 537.306 890.795 535.947C891.524 534.588 891.889 532.955 891.889 531.05C891.889 529.127 891.516 527.462 890.77 526.053C890.041 524.645 888.889 523.567 887.315 522.822C885.757 522.059 883.71 521.678 881.175 521.678H871.53V566H863.849ZM888.98 543.031L901.558 566H892.808L880.479 543.031H888.98ZM924.347 566.771C920.585 566.771 917.345 565.967 914.627 564.359C911.926 562.735 909.838 560.457 908.363 557.523C906.905 554.574 906.176 551.118 906.176 547.158C906.176 543.247 906.905 539.8 908.363 536.817C909.838 533.834 911.893 531.505 914.528 529.832C917.18 528.158 920.279 527.321 923.825 527.321C925.979 527.321 928.067 527.677 930.089 528.39C932.111 529.103 933.926 530.221 935.533 531.746C937.141 533.27 938.408 535.251 939.336 537.687C940.264 540.106 940.728 543.048 940.728 546.511V549.146H910.377V543.578H933.445C933.445 541.623 933.047 539.891 932.252 538.383C931.456 536.858 930.338 535.657 928.896 534.778C927.471 533.9 925.797 533.461 923.875 533.461C921.787 533.461 919.964 533.975 918.406 535.002C916.865 536.013 915.672 537.339 914.826 538.979C913.998 540.603 913.583 542.368 913.583 544.274V548.624C913.583 551.176 914.031 553.347 914.926 555.137C915.837 556.927 917.105 558.294 918.729 559.239C920.353 560.167 922.251 560.631 924.422 560.631C925.83 560.631 927.114 560.432 928.275 560.034C929.435 559.62 930.437 559.007 931.282 558.195C932.127 557.383 932.774 556.38 933.221 555.187L940.256 556.455C939.693 558.526 938.682 560.341 937.223 561.898C935.782 563.44 933.967 564.641 931.779 565.503C929.609 566.348 927.131 566.771 924.347 566.771ZM980.545 527.818L966.699 566H958.744L944.873 527.818H952.853L962.523 557.2H962.92L972.565 527.818H980.545ZM987.53 566V527.818H994.962V566H987.53ZM991.283 521.927C989.991 521.927 988.88 521.496 987.952 520.634C987.041 519.756 986.585 518.712 986.585 517.502C986.585 516.276 987.041 515.232 987.952 514.37C988.88 513.492 989.991 513.053 991.283 513.053C992.576 513.053 993.678 513.492 994.589 514.37C995.517 515.232 995.981 516.276 995.981 517.502C995.981 518.712 995.517 519.756 994.589 520.634C993.678 521.496 992.576 521.927 991.283 521.927ZM1021.42 566.771C1017.66 566.771 1014.42 565.967 1011.7 564.359C1009 562.735 1006.91 560.457 1005.43 557.523C1003.98 554.574 1003.25 551.118 1003.25 547.158C1003.25 543.247 1003.98 539.8 1005.43 536.817C1006.91 533.834 1008.96 531.505 1011.6 529.832C1014.25 528.158 1017.35 527.321 1020.9 527.321C1023.05 527.321 1025.14 527.677 1027.16 528.39C1029.18 529.103 1031 530.221 1032.6 531.746C1034.21 533.27 1035.48 535.251 1036.41 537.687C1037.33 540.106 1037.8 543.048 1037.8 546.511V549.146H1007.45V543.578H1030.52C1030.52 541.623 1030.12 539.891 1029.32 538.383C1028.53 536.858 1027.41 535.657 1025.97 534.778C1024.54 533.9 1022.87 533.461 1020.94 533.461C1018.86 533.461 1017.03 533.975 1015.48 535.002C1013.94 536.013 1012.74 537.339 1011.9 538.979C1011.07 540.603 1010.65 542.368 1010.65 544.274V548.624C1010.65 551.176 1011.1 553.347 1012 555.137C1012.91 556.927 1014.18 558.294 1015.8 559.239C1017.42 560.167 1019.32 560.631 1021.49 560.631C1022.9 560.631 1024.18 560.432 1025.34 560.034C1026.5 559.62 1027.51 559.007 1028.35 558.195C1029.2 557.383 1029.84 556.38 1030.29 555.187L1037.33 556.455C1036.76 558.526 1035.75 560.341 1034.29 561.898C1032.85 563.44 1031.04 564.641 1028.85 565.503C1026.68 566.348 1024.2 566.771 1021.42 566.771ZM1054.25 566L1043.02 527.818H1050.7L1058.18 555.858H1058.56L1066.06 527.818H1073.74L1081.2 555.734H1081.57L1089.01 527.818H1096.69L1085.48 566H1077.89L1070.14 538.433H1069.57L1061.81 566H1054.25Z" fill="black"/>
<path d="M106.982 503.646H99.2262C98.9279 501.989 98.3728 500.531 97.5607 499.271C96.7487 498.012 95.7544 496.943 94.5778 496.065C93.4012 495.186 92.0837 494.523 90.6254 494.076C89.1836 493.629 87.6507 493.405 86.0266 493.405C83.0934 493.405 80.4667 494.142 78.1467 495.617C75.8432 497.092 74.0202 499.255 72.6779 502.105C71.3522 504.955 70.6893 508.436 70.6893 512.545C70.6893 516.688 71.3522 520.185 72.6779 523.036C74.0202 525.886 75.8514 528.04 78.1715 529.499C80.4916 530.957 83.1017 531.686 86.0018 531.686C87.6093 531.686 89.1339 531.471 90.5756 531.04C92.034 530.592 93.3514 529.938 94.5281 529.076C95.7047 528.214 96.699 527.162 97.511 525.919C98.3396 524.66 98.9113 523.218 99.2262 521.594L106.982 521.619C106.568 524.121 105.764 526.424 104.571 528.529C103.394 530.617 101.878 532.424 100.022 533.948C98.1822 535.456 96.0775 536.625 93.7077 537.453C91.338 538.282 88.7527 538.696 85.9521 538.696C81.5439 538.696 77.6164 537.652 74.1694 535.564C70.7224 533.459 68.0046 530.451 66.016 526.54C64.0439 522.629 63.0579 517.964 63.0579 512.545C63.0579 507.11 64.0522 502.445 66.0408 498.55C68.0295 494.639 70.7473 491.64 74.1942 489.552C77.6412 487.447 81.5605 486.395 85.9521 486.395C88.6533 486.395 91.1722 486.784 93.5089 487.563C95.8621 488.326 97.975 489.452 99.8477 490.944C101.72 492.419 103.27 494.225 104.496 496.363C105.722 498.484 106.551 500.912 106.982 503.646ZM126.688 538.845C124.269 538.845 122.081 538.398 120.126 537.503C118.17 536.591 116.621 535.274 115.477 533.55C114.35 531.827 113.787 529.714 113.787 527.212C113.787 525.057 114.201 523.284 115.03 521.892C115.858 520.5 116.977 519.398 118.385 518.586C119.794 517.774 121.368 517.161 123.108 516.746C124.849 516.332 126.622 516.017 128.428 515.802C130.715 515.537 132.571 515.321 133.996 515.156C135.421 514.973 136.457 514.683 137.104 514.286C137.75 513.888 138.073 513.241 138.073 512.347V512.173C138.073 510.002 137.46 508.32 136.233 507.126C135.024 505.933 133.217 505.337 130.814 505.337C128.312 505.337 126.34 505.892 124.898 507.002C123.473 508.096 122.487 509.314 121.94 510.656L114.955 509.065C115.784 506.745 116.993 504.873 118.584 503.447C120.192 502.006 122.04 500.962 124.128 500.315C126.216 499.652 128.412 499.321 130.715 499.321C132.24 499.321 133.855 499.503 135.562 499.868C137.286 500.216 138.893 500.862 140.385 501.807C141.893 502.751 143.127 504.102 144.089 505.859C145.05 507.599 145.53 509.861 145.53 512.645V538H138.272V532.78H137.974C137.493 533.741 136.772 534.686 135.811 535.614C134.85 536.542 133.615 537.312 132.107 537.925C130.599 538.539 128.793 538.845 126.688 538.845ZM128.304 532.879C130.359 532.879 132.115 532.473 133.574 531.661C135.049 530.849 136.167 529.789 136.93 528.479C137.708 527.154 138.098 525.737 138.098 524.229V519.307C137.833 519.572 137.319 519.821 136.557 520.053C135.811 520.268 134.957 520.459 133.996 520.624C133.035 520.773 132.099 520.914 131.187 521.047C130.276 521.163 129.514 521.262 128.9 521.345C127.459 521.527 126.141 521.834 124.948 522.265C123.771 522.696 122.827 523.317 122.114 524.129C121.418 524.925 121.07 525.985 121.07 527.311C121.07 529.151 121.75 530.543 123.108 531.487C124.467 532.415 126.199 532.879 128.304 532.879ZM155.43 552.318V499.818H162.689V506.008H163.31C163.741 505.212 164.362 504.293 165.174 503.249C165.986 502.205 167.113 501.293 168.555 500.514C169.997 499.719 171.903 499.321 174.272 499.321C177.355 499.321 180.106 500.1 182.525 501.658C184.945 503.215 186.842 505.461 188.218 508.394C189.61 511.327 190.306 514.857 190.306 518.984C190.306 523.11 189.618 526.648 188.243 529.598C186.867 532.531 184.978 534.793 182.575 536.384C180.172 537.959 177.429 538.746 174.347 538.746C172.027 538.746 170.129 538.356 168.654 537.577C167.196 536.799 166.053 535.887 165.224 534.843C164.395 533.799 163.757 532.871 163.31 532.059H162.863V552.318H155.43ZM162.713 518.909C162.713 521.594 163.103 523.947 163.882 525.969C164.661 527.991 165.788 529.573 167.262 530.717C168.737 531.844 170.544 532.407 172.681 532.407C174.902 532.407 176.758 531.819 178.25 530.642C179.741 529.449 180.868 527.833 181.63 525.795C182.409 523.756 182.799 521.461 182.799 518.909C182.799 516.39 182.417 514.128 181.655 512.123C180.909 510.118 179.783 508.535 178.275 507.375C176.783 506.215 174.919 505.635 172.681 505.635C170.527 505.635 168.704 506.19 167.213 507.3C165.738 508.411 164.619 509.96 163.857 511.949C163.095 513.937 162.713 516.258 162.713 518.909ZM216.456 499.818V505.784H195.6V499.818H216.456ZM201.194 490.67H208.626V526.789C208.626 528.231 208.842 529.316 209.272 530.045C209.703 530.758 210.258 531.247 210.938 531.512C211.634 531.761 212.388 531.885 213.2 531.885C213.797 531.885 214.319 531.844 214.766 531.761C215.213 531.678 215.561 531.612 215.81 531.562L217.152 537.702C216.721 537.867 216.108 538.033 215.313 538.199C214.517 538.381 213.523 538.481 212.33 538.497C210.374 538.53 208.551 538.182 206.861 537.453C205.171 536.724 203.804 535.597 202.76 534.072C201.716 532.548 201.194 530.634 201.194 528.33V490.67ZM248.865 522.165V499.818H256.322V538H249.014V531.388H248.616C247.738 533.426 246.329 535.125 244.39 536.484C242.468 537.826 240.073 538.497 237.206 538.497C234.754 538.497 232.583 537.959 230.694 536.881C228.821 535.788 227.346 534.172 226.269 532.034C225.208 529.896 224.678 527.253 224.678 524.104V499.818H232.111V523.21C232.111 525.811 232.831 527.883 234.273 529.424C235.715 530.965 237.588 531.736 239.891 531.736C241.283 531.736 242.667 531.388 244.042 530.692C245.434 529.996 246.586 528.943 247.498 527.535C248.426 526.126 248.881 524.336 248.865 522.165ZM266.309 538V499.818H273.493V505.884H273.891C274.587 503.829 275.813 502.213 277.57 501.036C279.343 499.843 281.348 499.246 283.585 499.246C284.049 499.246 284.596 499.263 285.226 499.296C285.872 499.329 286.378 499.371 286.742 499.42V506.53C286.444 506.447 285.914 506.356 285.151 506.256C284.389 506.14 283.627 506.082 282.864 506.082C281.108 506.082 279.542 506.455 278.166 507.201C276.807 507.93 275.73 508.949 274.935 510.259C274.139 511.551 273.741 513.026 273.741 514.683V538H266.309ZM308.263 538.771C304.501 538.771 301.261 537.967 298.544 536.359C295.842 534.735 293.754 532.457 292.279 529.523C290.821 526.574 290.092 523.118 290.092 519.158C290.092 515.247 290.821 511.8 292.279 508.817C293.754 505.834 295.809 503.505 298.444 501.832C301.096 500.158 304.195 499.321 307.741 499.321C309.895 499.321 311.983 499.677 314.005 500.39C316.027 501.103 317.842 502.221 319.449 503.746C321.057 505.27 322.324 507.251 323.252 509.687C324.18 512.106 324.644 515.048 324.644 518.511V521.146H294.293V515.578H317.361C317.361 513.623 316.963 511.891 316.168 510.383C315.372 508.858 314.254 507.657 312.812 506.778C311.387 505.9 309.713 505.461 307.791 505.461C305.703 505.461 303.88 505.975 302.322 507.002C300.781 508.013 299.588 509.339 298.742 510.979C297.914 512.603 297.499 514.368 297.499 516.274V520.624C297.499 523.176 297.947 525.347 298.842 527.137C299.753 528.927 301.021 530.294 302.645 531.239C304.269 532.167 306.167 532.631 308.338 532.631C309.746 532.631 311.03 532.432 312.191 532.034C313.351 531.62 314.353 531.007 315.198 530.195C316.044 529.383 316.69 528.38 317.137 527.187L324.172 528.455C323.609 530.526 322.598 532.341 321.139 533.898C319.698 535.44 317.883 536.641 315.695 537.503C313.525 538.348 311.047 538.771 308.263 538.771Z" fill="black"/>
<path d="M454.646 942.053L454.646 949.809C452.989 950.107 451.531 950.662 450.271 951.474C449.012 952.286 447.943 953.281 447.065 954.457C446.186 955.634 445.523 956.951 445.076 958.41C444.629 959.852 444.405 961.384 444.405 963.009C444.405 965.942 445.142 968.568 446.617 970.888C448.092 973.192 450.255 975.015 453.105 976.357C455.955 977.683 459.436 978.346 463.545 978.346C467.688 978.346 471.185 977.683 474.036 976.357C476.886 975.015 479.04 973.184 480.499 970.864C481.957 968.544 482.686 965.933 482.686 963.033C482.686 961.426 482.471 959.901 482.04 958.46C481.592 957.001 480.938 955.684 480.076 954.507C479.214 953.33 478.162 952.336 476.919 951.524C475.66 950.696 474.218 950.124 472.594 949.809L472.619 942.053C475.121 942.468 477.424 943.271 479.529 944.464C481.617 945.641 483.424 947.157 484.948 949.013C486.456 950.853 487.625 952.958 488.453 955.327C489.282 957.697 489.696 960.282 489.696 963.083C489.696 967.491 488.652 971.419 486.564 974.866C484.459 978.313 481.451 981.031 477.54 983.019C473.629 984.991 468.964 985.977 463.545 985.977C458.11 985.977 453.445 984.983 449.55 982.994C445.639 981.006 442.64 978.288 440.552 974.841C438.447 971.394 437.395 967.475 437.395 963.083C437.395 960.382 437.784 957.863 438.563 955.526C439.326 953.173 440.452 951.06 441.944 949.188C443.419 947.315 445.225 945.765 447.363 944.539C449.484 943.313 451.912 942.484 454.646 942.053ZM489.771 917.376C489.771 920.955 488.95 924.079 487.31 926.747C485.669 929.415 483.374 931.487 480.424 932.961C477.474 934.436 474.027 935.174 470.083 935.174C466.122 935.174 462.659 934.436 459.692 932.961C456.726 931.487 454.423 929.415 452.782 926.747C451.141 924.079 450.321 920.955 450.321 917.376C450.321 913.796 451.141 910.672 452.782 908.004C454.423 905.336 456.726 903.265 459.692 901.79C462.659 900.315 466.122 899.577 470.083 899.577C474.027 899.577 477.474 900.315 480.424 901.79C483.374 903.265 485.669 905.336 487.31 908.004C488.95 910.672 489.771 913.796 489.771 917.376ZM483.531 917.351C483.531 915.031 482.918 913.108 481.692 911.584C480.465 910.059 478.833 908.932 476.795 908.203C474.756 907.457 472.511 907.084 470.058 907.084C467.622 907.084 465.385 907.457 463.347 908.203C461.292 908.932 459.643 910.059 458.4 911.584C457.157 913.108 456.536 915.031 456.536 917.351C456.536 919.687 457.157 921.626 458.4 923.167C459.643 924.692 461.292 925.827 463.347 926.573C465.385 927.302 467.622 927.667 470.058 927.667C472.511 927.667 474.756 927.302 476.795 926.573C478.833 925.827 480.465 924.692 481.692 923.167C482.918 921.626 483.531 919.687 483.531 917.351ZM489 891.281L450.818 891.281L450.818 884.147L457.033 884.147L457.033 883.674C454.928 882.879 453.287 881.578 452.111 879.772C450.918 877.965 450.321 875.803 450.321 873.284C450.321 870.732 450.918 868.594 452.111 866.87C453.304 865.13 454.945 863.846 457.033 863.017L457.033 862.62C454.994 861.708 453.37 860.258 452.161 858.27C450.934 856.281 450.321 853.911 450.321 851.16C450.321 847.697 451.406 844.871 453.577 842.684C455.748 840.48 459.021 839.377 463.396 839.377L489 839.377L489 846.81L464.092 846.81C461.507 846.81 459.634 847.514 458.474 848.923C457.314 850.332 456.734 852.014 456.734 853.969C456.734 856.389 457.48 858.27 458.972 859.612C460.446 860.954 462.344 861.625 464.664 861.625L489 861.625L489 869.033L463.62 869.033C461.549 869.033 459.883 869.679 458.624 870.972C457.364 872.265 456.734 873.947 456.734 876.018C456.734 877.427 457.107 878.728 457.853 879.921C458.582 881.097 459.601 882.05 460.911 882.779C462.22 883.492 463.736 883.848 465.46 883.848L489 883.848L489 891.281ZM489 829.416L450.818 829.416L450.818 822.281L457.033 822.281L457.033 821.809C454.928 821.014 453.287 819.713 452.111 817.906C450.918 816.1 450.321 813.937 450.321 811.419C450.321 808.866 450.918 806.729 452.111 805.005C453.304 803.265 454.945 801.981 457.033 801.152L457.033 800.754C454.994 799.843 453.37 798.393 452.161 796.404C450.934 794.416 450.321 792.046 450.321 789.295C450.321 785.831 451.406 783.006 453.577 780.818C455.748 778.614 459.021 777.512 463.396 777.512L489 777.512L489 784.945L464.092 784.945C461.507 784.945 459.634 785.649 458.474 787.058C457.314 788.466 456.734 790.148 456.734 792.104C456.734 794.523 457.48 796.404 458.972 797.747C460.446 799.089 462.344 799.76 464.664 799.76L489 799.76L489 807.168L463.62 807.168C461.549 807.168 459.883 807.814 458.624 809.107C457.364 810.399 456.734 812.081 456.734 814.153C456.734 815.561 457.107 816.862 457.853 818.056C458.582 819.232 459.601 820.185 460.911 820.914C462.22 821.627 463.736 821.983 465.46 821.983L489 821.983L489 829.416ZM489 767.55L450.818 767.55L450.818 760.118L489 760.118L489 767.55ZM444.927 763.797C444.927 765.089 444.496 766.2 443.634 767.128C442.756 768.039 441.712 768.495 440.502 768.495C439.276 768.495 438.232 768.039 437.37 767.128C436.492 766.2 436.053 765.089 436.053 763.797C436.053 762.504 436.492 761.402 437.37 760.491C438.232 759.563 439.276 759.099 440.502 759.099C441.712 759.099 442.756 759.563 443.634 760.491C444.496 761.402 444.927 762.504 444.927 763.797ZM450.818 732.296L456.784 732.296L456.784 753.151L450.818 753.151L450.818 732.296ZM441.67 747.558L441.67 740.126L477.789 740.126C479.231 740.126 480.316 739.91 481.045 739.48C481.758 739.049 482.247 738.494 482.512 737.814C482.761 737.118 482.885 736.364 482.885 735.552C482.885 734.955 482.844 734.433 482.761 733.986C482.678 733.539 482.612 733.191 482.562 732.942L488.702 731.6C488.867 732.03 489.033 732.644 489.199 733.439C489.381 734.235 489.481 735.229 489.497 736.422C489.53 738.378 489.182 740.2 488.453 741.891C487.724 743.581 486.597 744.948 485.072 745.992C483.548 747.036 481.634 747.558 479.33 747.558L441.67 747.558Z" fill="black"/>
<path d="M954.226 874H937.745V823.091H954.748C959.736 823.091 964.02 824.11 967.6 826.148C971.179 828.17 973.922 831.079 975.828 834.874C977.75 838.652 978.711 843.184 978.711 848.471C978.711 853.774 977.742 858.331 975.803 862.143C973.881 865.954 971.096 868.888 967.451 870.942C963.805 872.981 959.397 874 954.226 874ZM945.426 867.288H953.804C957.681 867.288 960.905 866.559 963.473 865.101C966.042 863.626 967.964 861.496 969.24 858.712C970.516 855.912 971.154 852.498 971.154 848.471C971.154 844.477 970.516 841.088 969.24 838.304C967.981 835.52 966.1 833.407 963.598 831.965C961.095 830.523 957.988 829.803 954.276 829.803H945.426V867.288ZM1003.75 874.771C1000.17 874.771 997.046 873.95 994.378 872.31C991.71 870.669 989.638 868.374 988.164 865.424C986.689 862.474 985.951 859.027 985.951 855.083C985.951 851.122 986.689 847.659 988.164 844.692C989.638 841.726 991.71 839.423 994.378 837.782C997.046 836.141 1000.17 835.321 1003.75 835.321C1007.33 835.321 1010.45 836.141 1013.12 837.782C1015.79 839.423 1017.86 841.726 1019.34 844.692C1020.81 847.659 1021.55 851.122 1021.55 855.083C1021.55 859.027 1020.81 862.474 1019.34 865.424C1017.86 868.374 1015.79 870.669 1013.12 872.31C1010.45 873.95 1007.33 874.771 1003.75 874.771ZM1003.77 868.531C1006.09 868.531 1008.02 867.918 1009.54 866.692C1011.07 865.465 1012.19 863.833 1012.92 861.795C1013.67 859.756 1014.04 857.511 1014.04 855.058C1014.04 852.622 1013.67 850.385 1012.92 848.347C1012.19 846.292 1011.07 844.643 1009.54 843.4C1008.02 842.157 1006.09 841.536 1003.77 841.536C1001.44 841.536 999.499 842.157 997.958 843.4C996.433 844.643 995.298 846.292 994.552 848.347C993.823 850.385 993.458 852.622 993.458 855.058C993.458 857.511 993.823 859.756 994.552 861.795C995.298 863.833 996.433 865.465 997.958 866.692C999.499 867.918 1001.44 868.531 1003.77 868.531Z" fill="black"/>
<path d="M660.759 964.182V994H657.148V967.967H656.974L649.694 972.801V969.132L657.148 964.182H660.759ZM679.061 994.408C676.867 994.408 674.998 993.811 673.455 992.617C671.912 991.413 670.732 989.671 669.917 987.39C669.102 985.099 668.694 982.333 668.694 979.091C668.694 975.868 669.102 973.117 669.917 970.836C670.742 968.545 671.926 966.798 673.47 965.594C675.023 964.381 676.886 963.774 679.061 963.774C681.235 963.774 683.094 964.381 684.637 965.594C686.19 966.798 687.374 968.545 688.189 970.836C689.015 973.117 689.427 975.868 689.427 979.091C689.427 982.333 689.019 985.099 688.204 987.39C687.389 989.671 686.209 991.413 684.666 992.617C683.123 993.811 681.254 994.408 679.061 994.408ZM679.061 991.205C681.235 991.205 682.924 990.156 684.127 988.06C685.331 985.963 685.933 982.973 685.933 979.091C685.933 976.509 685.656 974.31 685.103 972.495C684.559 970.68 683.773 969.297 682.744 968.346C681.725 967.395 680.497 966.919 679.061 966.919C676.906 966.919 675.222 967.982 674.008 970.108C672.795 972.224 672.188 975.218 672.188 979.091C672.188 981.673 672.46 983.866 673.004 985.672C673.547 987.477 674.329 988.851 675.348 989.792C676.377 990.734 677.614 991.205 679.061 991.205ZM704.686 994.408C702.492 994.408 700.623 993.811 699.08 992.617C697.537 991.413 696.357 989.671 695.542 987.39C694.727 985.099 694.319 982.333 694.319 979.091C694.319 975.868 694.727 973.117 695.542 970.836C696.367 968.545 697.551 966.798 699.095 965.594C700.648 964.381 702.511 963.774 704.686 963.774C706.86 963.774 708.719 964.381 710.262 965.594C711.815 966.798 712.999 968.545 713.814 970.836C714.64 973.117 715.052 975.868 715.052 979.091C715.052 982.333 714.644 985.099 713.829 987.39C713.014 989.671 711.834 991.413 710.291 992.617C708.748 993.811 706.879 994.408 704.686 994.408ZM704.686 991.205C706.86 991.205 708.549 990.156 709.752 988.06C710.956 985.963 711.558 982.973 711.558 979.091C711.558 976.509 711.281 974.31 710.728 972.495C710.184 970.68 709.398 969.297 708.369 968.346C707.35 967.395 706.122 966.919 704.686 966.919C702.531 966.919 700.847 967.982 699.633 970.108C698.42 972.224 697.813 975.218 697.813 979.091C697.813 981.673 698.085 983.866 698.629 985.672C699.172 987.477 699.954 988.851 700.973 989.792C702.002 990.734 703.239 991.205 704.686 991.205ZM735.785 988.409V986.837C735.785 985.75 736.008 984.755 736.455 983.852C736.911 982.94 737.571 982.212 738.435 981.668C739.308 981.115 740.366 980.838 741.609 980.838C742.871 980.838 743.929 981.115 744.783 981.668C745.637 982.212 746.282 982.94 746.719 983.852C747.156 984.755 747.374 985.75 747.374 986.837V988.409C747.374 989.496 747.151 990.496 746.705 991.408C746.268 992.311 745.618 993.039 744.754 993.592C743.9 994.136 742.851 994.408 741.609 994.408C740.347 994.408 739.284 994.136 738.42 993.592C737.556 993.039 736.901 992.311 736.455 991.408C736.008 990.496 735.785 989.496 735.785 988.409ZM738.755 986.837V988.409C738.755 989.312 738.969 990.122 739.396 990.841C739.823 991.549 740.561 991.903 741.609 991.903C742.628 991.903 743.346 991.549 743.764 990.841C744.191 990.122 744.404 989.312 744.404 988.409V986.837C744.404 985.934 744.2 985.128 743.793 984.42C743.385 983.701 742.657 983.342 741.609 983.342C740.59 983.342 739.857 983.701 739.41 984.42C738.974 985.128 738.755 985.934 738.755 986.837ZM720.934 971.345V969.773C720.934 968.686 721.157 967.691 721.604 966.788C722.06 965.876 722.72 965.148 723.584 964.604C724.458 964.051 725.516 963.774 726.758 963.774C728.02 963.774 729.078 964.051 729.932 964.604C730.786 965.148 731.432 965.876 731.868 966.788C732.305 967.691 732.524 968.686 732.524 969.773V971.345C732.524 972.432 732.3 973.432 731.854 974.344C731.417 975.247 730.767 975.975 729.903 976.528C729.049 977.072 728 977.344 726.758 977.344C725.496 977.344 724.433 977.072 723.569 976.528C722.706 975.975 722.05 975.247 721.604 974.344C721.157 973.432 720.934 972.432 720.934 971.345ZM723.904 969.773V971.345C723.904 972.248 724.118 973.058 724.545 973.777C724.972 974.485 725.71 974.839 726.758 974.839C727.777 974.839 728.495 974.485 728.913 973.777C729.34 973.058 729.553 972.248 729.553 971.345V969.773C729.553 968.87 729.35 968.064 728.942 967.356C728.534 966.638 727.806 966.278 726.758 966.278C725.739 966.278 725.006 966.638 724.559 967.356C724.123 968.064 723.904 968.87 723.904 969.773ZM722.041 994L742.541 964.182H745.86L725.36 994H722.041Z" fill="black"/>
<path d="M1383.91 87.0909V122H1378.62V92.375H1378.42L1370.07 97.8295V92.7841L1378.78 87.0909H1383.91ZM1405.5 122.58C1402.81 122.568 1400.51 121.858 1398.6 120.449C1396.69 119.04 1395.23 116.989 1394.22 114.295C1393.21 111.602 1392.7 108.358 1392.7 104.562C1392.7 100.778 1393.21 97.5455 1394.22 94.8636C1395.24 92.1818 1396.71 90.1364 1398.62 88.7273C1400.54 87.3182 1402.83 86.6136 1405.5 86.6136C1408.17 86.6136 1410.46 87.3239 1412.37 88.7443C1414.28 90.1534 1415.74 92.1989 1416.75 94.8807C1417.78 97.5511 1418.29 100.778 1418.29 104.562C1418.29 108.369 1417.78 111.619 1416.77 114.312C1415.76 116.994 1414.3 119.045 1412.39 120.466C1410.48 121.875 1408.19 122.58 1405.5 122.58ZM1405.5 118.028C1407.87 118.028 1409.71 116.875 1411.04 114.568C1412.38 112.261 1413.05 108.926 1413.05 104.562C1413.05 101.665 1412.75 99.2159 1412.13 97.2159C1411.53 95.2045 1410.66 93.6818 1409.53 92.6477C1408.4 91.6023 1407.06 91.0795 1405.5 91.0795C1403.15 91.0795 1401.3 92.2386 1399.96 94.5568C1398.62 96.875 1397.95 100.21 1397.94 104.562C1397.94 107.472 1398.24 109.932 1398.84 111.943C1399.45 113.943 1400.32 115.46 1401.45 116.494C1402.57 117.517 1403.92 118.028 1405.5 118.028ZM1429.09 113.119L1429.06 106.898H1429.94L1440.37 95.8182H1446.48L1434.58 108.432H1433.78L1429.09 113.119ZM1424.4 122V87.0909H1429.5V122H1424.4ZM1440.94 122L1431.56 109.557L1435.07 105.994L1447.19 122H1440.94Z" fill="black"/>
<path d="M1394.14 553.477C1392 553.477 1390.08 553.068 1388.38 552.25C1386.68 551.42 1385.33 550.284 1384.32 548.841C1383.31 547.398 1382.77 545.75 1382.7 543.898H1387.81C1387.94 545.398 1388.6 546.631 1389.81 547.597C1391.01 548.562 1392.46 549.045 1394.14 549.045C1395.48 549.045 1396.67 548.739 1397.7 548.125C1398.75 547.5 1399.56 546.642 1400.16 545.551C1400.76 544.46 1401.06 543.216 1401.06 541.818C1401.06 540.398 1400.75 539.131 1400.14 538.017C1399.52 536.903 1398.68 536.028 1397.6 535.392C1396.53 534.756 1395.3 534.432 1393.92 534.42C1392.86 534.42 1391.8 534.602 1390.73 534.966C1389.66 535.33 1388.8 535.807 1388.14 536.398L1383.31 535.682L1385.27 518.091H1404.47V522.608H1389.66L1388.55 532.375H1388.75C1389.43 531.716 1390.34 531.165 1391.46 530.722C1392.6 530.278 1393.81 530.057 1395.11 530.057C1397.24 530.057 1399.13 530.562 1400.79 531.574C1402.46 532.585 1403.77 533.966 1404.72 535.716C1405.69 537.455 1406.17 539.455 1406.16 541.716C1406.17 543.977 1405.66 545.994 1404.62 547.767C1403.6 549.54 1402.18 550.937 1400.36 551.96C1398.55 552.972 1396.48 553.477 1394.14 553.477ZM1417.14 544.119L1417.1 537.898H1417.99L1428.42 526.818H1434.52L1422.63 539.432H1421.82L1417.14 544.119ZM1412.45 553V518.091H1417.55V553H1412.45ZM1428.98 553L1419.61 540.557L1423.12 536.994L1435.24 553H1428.98Z" fill="black"/>
<path d="M1393.66 1006.58C1390.97 1006.57 1388.67 1005.86 1386.76 1004.45C1384.85 1003.04 1383.39 1000.99 1382.38 998.295C1381.36 995.602 1380.86 992.358 1380.86 988.562C1380.86 984.778 1381.36 981.545 1382.38 978.864C1383.4 976.182 1384.86 974.136 1386.77 972.727C1388.69 971.318 1390.99 970.614 1393.66 970.614C1396.33 970.614 1398.62 971.324 1400.53 972.744C1402.44 974.153 1403.9 976.199 1404.91 978.881C1405.93 981.551 1406.44 984.778 1406.44 988.562C1406.44 992.369 1405.94 995.619 1404.93 998.312C1403.92 1000.99 1402.46 1003.05 1400.55 1004.47C1398.64 1005.88 1396.34 1006.58 1393.66 1006.58ZM1393.66 1002.03C1396.02 1002.03 1397.87 1000.88 1399.2 998.568C1400.54 996.261 1401.21 992.926 1401.21 988.562C1401.21 985.665 1400.9 983.216 1400.29 981.216C1399.69 979.205 1398.82 977.682 1397.68 976.648C1396.56 975.602 1395.22 975.08 1393.66 975.08C1391.31 975.08 1389.46 976.239 1388.12 978.557C1386.78 980.875 1386.1 984.21 1386.09 988.562C1386.09 991.472 1386.39 993.932 1387 995.943C1387.61 997.943 1388.48 999.46 1389.6 1000.49C1390.73 1001.52 1392.08 1002.03 1393.66 1002.03ZM1417.25 997.119L1417.21 990.898H1418.1L1428.53 979.818H1434.63L1422.74 992.432H1421.93L1417.25 997.119ZM1412.56 1006V971.091H1417.66V1006H1412.56ZM1429.09 1006L1419.72 993.557L1423.23 989.994L1435.35 1006H1429.09Z" fill="black"/>
<path d="M682.844 759.408C680.65 759.408 678.782 758.811 677.238 757.617C675.695 756.413 674.516 754.671 673.7 752.39C672.885 750.099 672.477 747.333 672.477 744.091C672.477 740.868 672.885 738.117 673.7 735.836C674.525 733.545 675.71 731.798 677.253 730.594C678.806 729.381 680.67 728.774 682.844 728.774C685.018 728.774 686.877 729.381 688.42 730.594C689.973 731.798 691.157 733.545 691.973 735.836C692.798 738.117 693.21 740.868 693.21 744.091C693.21 747.333 692.803 750.099 691.987 752.39C691.172 754.671 689.993 756.413 688.449 757.617C686.906 758.811 685.037 759.408 682.844 759.408ZM682.844 756.205C685.018 756.205 686.707 755.156 687.911 753.06C689.114 750.963 689.716 747.973 689.716 744.091C689.716 741.509 689.439 739.31 688.886 737.495C688.342 735.68 687.556 734.297 686.527 733.346C685.508 732.395 684.28 731.919 682.844 731.919C680.689 731.919 679.005 732.982 677.792 735.108C676.578 737.224 675.972 740.218 675.972 744.091C675.972 746.673 676.243 748.866 676.787 750.672C677.33 752.477 678.112 753.851 679.131 754.792C680.16 755.734 681.397 756.205 682.844 756.205ZM713.943 753.409V751.837C713.943 750.75 714.166 749.755 714.613 748.852C715.069 747.94 715.729 747.212 716.593 746.668C717.467 746.115 718.525 745.838 719.767 745.838C721.029 745.838 722.087 746.115 722.941 746.668C723.795 747.212 724.441 747.94 724.877 748.852C725.314 749.755 725.533 750.75 725.533 751.837V753.409C725.533 754.496 725.309 755.496 724.863 756.408C724.426 757.311 723.776 758.039 722.912 758.592C722.058 759.136 721.009 759.408 719.767 759.408C718.505 759.408 717.442 759.136 716.578 758.592C715.715 758.039 715.059 757.311 714.613 756.408C714.166 755.496 713.943 754.496 713.943 753.409ZM716.913 751.837V753.409C716.913 754.312 717.127 755.122 717.554 755.841C717.981 756.549 718.719 756.903 719.767 756.903C720.786 756.903 721.504 756.549 721.922 755.841C722.349 755.122 722.562 754.312 722.562 753.409V751.837C722.562 750.934 722.359 750.128 721.951 749.42C721.543 748.701 720.815 748.342 719.767 748.342C718.748 748.342 718.015 748.701 717.569 749.42C717.132 750.128 716.913 750.934 716.913 751.837ZM699.092 736.345V734.773C699.092 733.686 699.316 732.691 699.762 731.788C700.218 730.876 700.878 730.148 701.742 729.604C702.616 729.051 703.674 728.774 704.916 728.774C706.178 728.774 707.236 729.051 708.09 729.604C708.944 730.148 709.59 730.876 710.027 731.788C710.463 732.691 710.682 733.686 710.682 734.773V736.345C710.682 737.432 710.459 738.432 710.012 739.344C709.575 740.247 708.925 740.975 708.061 741.528C707.207 742.072 706.159 742.344 704.916 742.344C703.654 742.344 702.592 742.072 701.728 741.528C700.864 740.975 700.209 740.247 699.762 739.344C699.316 738.432 699.092 737.432 699.092 736.345ZM702.062 734.773V736.345C702.062 737.248 702.276 738.058 702.703 738.777C703.13 739.485 703.868 739.839 704.916 739.839C705.935 739.839 706.654 739.485 707.071 738.777C707.498 738.058 707.712 737.248 707.712 736.345V734.773C707.712 733.87 707.508 733.064 707.1 732.356C706.692 731.638 705.964 731.278 704.916 731.278C703.897 731.278 703.164 731.638 702.718 732.356C702.281 733.064 702.062 733.87 702.062 734.773ZM700.199 759L720.699 729.182H724.018L703.518 759H700.199Z" fill="black"/>
<path d="M574.475 731.525C573.108 730.158 570.892 730.158 569.525 731.525L547.251 753.799C545.884 755.166 545.884 757.382 547.251 758.749C548.618 760.116 550.834 760.116 552.201 758.749L572 738.95L591.799 758.749C593.166 760.116 595.382 760.116 596.749 758.749C598.116 757.382 598.116 755.166 596.749 753.799L574.475 731.525ZM569.525 989.475C570.892 990.842 573.108 990.842 574.475 989.475L596.749 967.201C598.116 965.834 598.116 963.618 596.749 962.251C595.382 960.884 593.166 960.884 591.799 962.251L572 982.05L552.201 962.251C550.834 960.884 548.618 960.884 547.251 962.251C545.884 963.618 545.884 965.834 547.251 967.201L569.525 989.475ZM572 734L568.5 734L568.5 987L572 987L575.5 987L575.5 734L572 734Z" fill="black"/>
<path d="M1334 539.5C1335.93 539.5 1337.5 537.933 1337.5 536C1337.5 534.067 1335.93 532.5 1334 532.5L1334 536L1334 539.5ZM1237.53 533.525C1236.16 534.892 1236.16 537.108 1237.53 538.475L1259.8 560.749C1261.17 562.116 1263.38 562.116 1264.75 560.749C1266.12 559.382 1266.12 557.166 1264.75 555.799L1244.95 536L1264.75 516.201C1266.12 514.834 1266.12 512.618 1264.75 511.251C1263.38 509.884 1261.17 509.884 1259.8 511.251L1237.53 533.525ZM1334 536L1334 532.5L1240 532.5L1240 536L1240 539.5L1334 539.5L1334 536Z" fill="black"/>
<path d="M1334 108.5C1335.93 108.5 1337.5 106.933 1337.5 105C1337.5 103.067 1335.93 101.5 1334 101.5L1334 105L1334 108.5ZM1237.53 102.525C1236.16 103.892 1236.16 106.108 1237.53 107.475L1259.8 129.749C1261.17 131.116 1263.38 131.116 1264.75 129.749C1266.12 128.382 1266.12 126.166 1264.75 124.799L1244.95 105L1264.75 85.201C1266.12 83.8342 1266.12 81.6181 1264.75 80.2513C1263.38 78.8844 1261.17 78.8844 1259.8 80.2513L1237.53 102.525ZM1334 105L1334 101.5L1240 101.5L1240 105L1240 108.5L1334 108.5L1334 105Z" fill="black"/>
<path d="M1334 992.5C1335.93 992.5 1337.5 990.933 1337.5 989C1337.5 987.067 1335.93 985.5 1334 985.5L1334 989L1334 992.5ZM1237.53 986.525C1236.16 987.892 1236.16 990.108 1237.53 991.475L1259.8 1013.75C1261.17 1015.12 1263.38 1015.12 1264.75 1013.75C1266.12 1012.38 1266.12 1010.17 1264.75 1008.8L1244.95 989L1264.75 969.201C1266.12 967.834 1266.12 965.618 1264.75 964.251C1263.38 962.884 1261.17 962.884 1259.8 964.251L1237.53 986.525ZM1334 989L1334 985.5L1240 985.5L1240 989L1240 992.5L1334 992.5L1334 989Z" fill="black"/>

<!-- Column badges: Capture · Stage · Deliver -->
<!-- Capture badge — amber, centered above column 1 (x=8–402) -->
<rect x="40" y="-34" width="330" height="70" rx="35" fill="#D97706"/>
<text x="205" y="1" text-anchor="middle" dominant-baseline="middle"
  font-family="system-ui,-apple-system,sans-serif" font-size="32" font-weight="700"
  letter-spacing="4" fill="white">CAPTURE</text>

<!-- Stage badge — purple, centered above column 2 (x=386–780) -->
<rect x="444" y="-34" width="280" height="70" rx="35" fill="#5B47D9"/>
<text x="584" y="1" text-anchor="middle" dominant-baseline="middle"
  font-family="system-ui,-apple-system,sans-serif" font-size="32" font-weight="700"
  letter-spacing="4" fill="white">STAGE</text>

<!-- Deliver badge — teal, centered above column 3 (x=781–1175) -->
<rect x="823" y="-34" width="310" height="70" rx="35" fill="#2D9B8A"/>
<text x="978" y="1" text-anchor="middle" dominant-baseline="middle"
  font-family="system-ui,-apple-system,sans-serif" font-size="32" font-weight="700"
  letter-spacing="4" fill="white">DELIVER</text>
</svg>
